<svg width="102" height="121" viewBox="0 0 102 121" fill="none" xmlns="http://www.w3.org/2000/svg">
<path d="M80.019 54.7404C80.019 54.7404 77.2744 57.5786 72.9889 62.3279C69.936 65.6979 66.1082 70.0205 61.9041 74.9716C61.7505 75.1526 61.597 75.3336 61.4434 75.5146C61.4434 75.5146 60.688 76.402 59.4411 77.8763C51.4834 87.3992 42.5667 98.8091 35.3034 110.016C35.3034 110.016 25.9604 114.597 16.9779 108.281C7.99545 101.964 9.14709 91.6221 9.14709 91.6221C13.6279 85.7359 17.99 79.346 22.0765 73.0118C22.1445 72.9151 22.194 72.8448 22.2382 72.7445C22.3989 72.516 22.542 72.2751 22.6851 72.0342C22.7655 71.92 22.8087 71.8585 22.8087 71.8585C27.5552 64.399 31.8816 57.0512 35.4682 50.6807C37.4581 47.1412 39.2291 43.8943 40.7236 41.0965C40.7731 41.0262 40.7978 40.9911 40.8101 40.9735C44.1121 34.7837 46.0579 30.8585 46.0579 30.8585L61.7838 44.5836L80.019 54.7404Z" fill="url(#paint0_linear_7_2034)"/>
<path d="M46.5726 30.1828C51.245 25.2195 81.065 43.9694 80.1645 53.805C79.2024 64.438 39.248 37.9835 46.5726 30.1828Z" fill="#FF6934"/>
<path d="M71.9771 51.4759C66.4123 50.6101 54.2821 42.2507 51.9405 37.0443C51.3832 35.8381 51.3793 34.7976 52.0833 34.058C55.052 30.9571 75.1486 43.697 74.7768 50.0163C74.6991 51.3409 73.6191 51.7373 71.9771 51.4759Z" fill="url(#paint1_linear_7_2034)"/>
<path d="M71.9771 51.4759C66.4123 50.61 54.2821 42.2507 51.9405 37.0443C57.3734 37.8174 69.579 45.9014 71.9771 51.4759Z" fill="#FF451D"/>
<g style="mix-blend-mode:multiply" opacity="0.3">
<path d="M61.8979 74.9803C61.7443 75.1613 61.5908 75.3423 61.4372 75.5233C61.4372 75.5233 60.6818 76.4108 59.4349 77.8851C51.4772 87.408 42.5605 98.8179 35.2972 110.024C35.2972 110.024 25.9542 114.606 16.9717 108.29C7.98929 101.973 9.14091 91.6309 9.14091 91.6309C13.6217 85.7447 17.9838 79.3547 22.0704 73.0205C22.1383 72.9239 22.1878 72.8535 22.232 72.7533C22.3927 72.5248 22.5358 72.2839 22.6789 72.043C22.7593 71.9288 22.8026 71.8672 22.8026 71.8672C27.549 64.4077 31.8754 57.06 35.462 50.6895C27.7713 65.4179 15.4851 92.3223 24.9408 97.9472C33.3452 102.938 50.5334 87.1252 61.9041 74.9716L61.8979 74.9803Z" fill="#BD3EA9"/>
</g>
<g style="mix-blend-mode:multiply" opacity="0.5">
<path d="M35.306 110.031C35.306 110.031 25.963 114.612 16.9805 108.296C7.99808 101.979 9.1497 91.6371 9.1497 91.6371C13.6305 85.7509 17.9926 79.3609 22.0791 73.0267C19.6864 76.8216 12.1836 88.9105 10.9559 92.4869C9.50839 96.7494 11.7585 103.599 17.3019 107.839C22.8304 112.081 30.9177 111.844 36.0237 106.227C40.0939 101.746 54.5459 83.6419 59.4349 77.8851C51.4772 87.408 42.5605 98.8179 35.2972 110.024L35.306 110.031Z" fill="#912790"/>
</g>
<g style="mix-blend-mode:soft-light">
<path d="M60.583 49.9523C44.2708 41.5813 18.3759 91.032 24.9408 97.9472C31.5057 104.862 55.1249 82.5385 64.9506 70.0602C74.7763 57.582 73.3192 56.4786 60.583 49.9523Z" fill="#FFA474"/>
</g>
<g style="mix-blend-mode:multiply" opacity="0.3">
<path d="M45.9052 37.5947C44.9221 34.6966 32.635 56.2413 31.129 61.5397C29.6229 66.8382 50.9127 49.1155 54.3021 47.6765C57.6853 46.2464 45.8964 37.5885 45.8964 37.5885L45.9052 37.5947Z" fill="#BD3EA9"/>
</g>
<g style="mix-blend-mode:soft-light">
<path d="M66.2764 54.8754C63.841 52.7162 44.3812 77.4002 45.2558 79.9856C46.1393 82.5772 68.0265 56.4213 66.2764 54.8754Z" fill="#FFCFA9"/>
</g>
<g style="mix-blend-mode:multiply" opacity="0.74">
<path d="M66.2568 39.8479C59.319 36.0594 60.9089 39.2528 65.8984 44.4297C70.8879 49.6066 72.0149 50.675 72.2367 51.1068C72.4585 51.5385 74.7748 50.9344 74.6707 49.0091C74.5691 47.0988 71.7211 42.8367 66.2568 39.8479Z" fill="#CA2790"/>
</g>
<g style="mix-blend-mode:soft-light">
<path d="M54.7793 44.7939C51.6644 40.9485 65.3694 50.1131 71.7793 51.7571C78.1892 53.4012 79.7182 52.5717 79.5575 54.8363C79.3968 57.1008 74.5857 56.9751 67.5096 53.2338C60.4335 49.4925 54.7793 44.7939 54.7793 44.7939Z" fill="#FFC08D"/>
</g>
<path d="M47.237 36.7842C47.237 36.7842 50.9753 43.3667 58.1201 49.1398C65.2561 54.9066 76.7657 56.3407 76.7657 56.3407C76.7657 56.3407 59.127 52.0415 47.237 36.7842Z" fill="#FFBA84"/>
<path d="M52.0684 34.0606C52.0684 34.0606 52.9272 32.9701 55.7686 33.786C61.3714 35.401 69.0048 41.5439 69.0048 41.5439C69.0048 41.5439 57.4345 32.7245 52.0684 34.0606Z" fill="#FF958E"/>
<path d="M98.1913 25.854C98.1913 25.854 79.4439 28.7351 63.8206 47.9074C63.8206 47.9074 58.6673 45.5971 58.6813 43.5972C58.6813 43.5972 67.7914 31.128 79.9984 23.8184C80.0232 23.7832 80.0531 23.778 80.0743 23.7666C80.0866 23.749 80.0928 23.7402 80.0928 23.7402C83.9779 21.4283 88.1716 19.6487 92.4758 18.945C92.4758 18.945 99.5798 20.3678 98.201 25.8214L98.1913 25.854Z" fill="url(#paint2_linear_7_2034)"/>
<g style="mix-blend-mode:multiply" opacity="0.2">
<path d="M98.1913 25.854C98.1913 25.854 79.4439 28.7351 63.8206 47.9074C63.8206 47.9074 58.6673 45.5971 58.6813 43.5973C58.6813 43.5973 67.7914 31.128 79.9984 23.8184C78.9107 24.5247 69.2662 30.9173 67.0466 35.6614C64.7067 40.6887 78.1714 32.6741 87.01 29.3139C95.4664 26.1051 98.1697 25.6418 98.1948 25.8302L98.1913 25.854Z" fill="#BD3EA9"/>
</g>
<path d="M92.4784 18.96C88.6625 18.9693 97.4661 25.7644 98.2062 25.8514C98.9314 25.941 99.0996 18.9399 92.4784 18.96Z" fill="#FFD193"/>
<g style="mix-blend-mode:multiply" opacity="0.5">
<path d="M42.957 74.4942C42.7462 74.7006 42.4791 74.8936 42.2006 75.0656C39.687 76.5293 34.5218 76.4961 33.3104 74.1468C32.8922 73.3405 32.9053 72.5747 33.2185 71.8492C34.3076 69.2918 38.9861 67.1963 41.809 66.0027C45.4512 64.4657 44.9894 72.4819 42.957 74.4942Z" fill="#D1524A"/>
</g>
<g style="mix-blend-mode:multiply" opacity="0.5">
<path d="M29.3099 74.867C28.7672 75.4706 28.0026 76.1282 27.0724 76.8533C24.9634 78.4702 23.9786 75.5184 24.5569 73.4819C24.6492 73.1264 24.7881 72.8169 24.9735 72.5532C26.2653 70.7163 29.2508 70.412 30.2431 72.3445C30.5902 73.009 30.2293 73.8585 29.3099 74.867Z" fill="#D1524A"/>
</g>
<g style="mix-blend-mode:multiply" opacity="0.5">
<path d="M42.957 74.4942C42.7462 74.7006 42.4791 74.8936 42.2006 75.0656L42.0414 74.993C42.0414 74.993 42.6368 74.4266 43.3257 72.1394C44.0207 69.8435 43.9353 66.5653 41.0413 66.9076C38.1859 67.251 33.386 71.7043 33.2308 71.8316C34.3137 69.283 38.9923 67.1875 41.8152 65.9939C45.4574 64.4569 44.9956 72.4731 42.9632 74.4854L42.957 74.4942Z" fill="#D1524A"/>
</g>
<g style="mix-blend-mode:multiply" opacity="0.5">
<path d="M29.3099 74.867C29.3099 74.867 29.6619 71.6206 28.0255 71.2579C26.3828 70.904 24.5507 73.4907 24.5507 73.4907C24.643 73.1352 24.7819 72.8257 24.9673 72.562C26.2591 70.7251 29.2446 70.4208 30.2369 72.3533C30.584 73.0177 30.2231 73.8673 29.3037 74.8758L29.3099 74.867Z" fill="#D1524A"/>
</g>
<defs>
<linearGradient id="paint0_linear_7_2034" x1="16.9805" y1="108.296" x2="63.0384" y2="42.7995" gradientUnits="userSpaceOnUse">
<stop stop-color="#FE3136"/>
<stop offset="1" stop-color="#FB3325"/>
</linearGradient>
<linearGradient id="paint1_linear_7_2034" x1="51.7479" y1="34.4789" x2="74.6962" y2="50.6165" gradientUnits="userSpaceOnUse">
<stop stop-color="#DD1527"/>
<stop offset="1" stop-color="#BD1025"/>
</linearGradient>
<linearGradient id="paint2_linear_7_2034" x1="67.1999" y1="50.7042" x2="90.9644" y2="16.9101" gradientUnits="userSpaceOnUse">
<stop stop-color="#FE972C"/>
<stop offset="0.62" stop-color="#FE9528"/>
<stop offset="1" stop-color="#FF9322"/>
</linearGradient>
</defs>
</svg>
