<svg width="27" height="32" viewBox="0 0 27 32" fill="none" xmlns="http://www.w3.org/2000/svg">
<path fill-rule="evenodd" clip-rule="evenodd" d="M22.32 0.220009C14.27 4.02001 6.83 8.53001 0.809995 14.32C-0.400005 15.48 -0.120005 16.49 0.809995 17.33C6.83 22.72 14.64 28.08 22.38 31.45C23.58 31.97 24.92 31.45 25.1 30.44C26.43 22.93 26.35 10.99 25.1 1.40001C24.92 -0.0199908 23.3 -0.239991 22.32 0.230009V0.220009Z" fill="url(#paint0_radial_7_1867)"/>
<path style="mix-blend-mode:screen" fill-rule="evenodd" clip-rule="evenodd" d="M3.31995 12.71C2.41995 13.69 2.32995 14.85 2.79995 15.77C4.62995 19.35 21.19 17.73 22.21 9.48001C22.42 7.78001 22.04 4.57001 20.68 3.37001C20.22 2.96001 19.46 2.95001 18.86 3.08001C15.21 3.84001 6.02995 9.79001 3.31995 12.73V12.71Z" fill="url(#paint1_radial_7_1867)"/>
<path style="mix-blend-mode:screen" fill-rule="evenodd" clip-rule="evenodd" d="M19.11 3.25998C17.06 3.41998 11.98 6.49998 10.21 7.77998C8.83996 8.76999 8.96996 9.79998 10.72 9.36998C12.97 8.81998 17.2 7.17998 19.04 5.74998C20.03 4.97998 20 3.88998 19.72 3.46998C19.6 3.28998 19.32 3.23998 19.11 3.25998ZM7.56996 9.69998C6.94996 9.96998 6.38996 10.39 5.89996 10.86C5.32996 11.41 5.67996 11.67 6.33996 11.62C7.00996 11.56 7.98996 11.18 8.57996 10.68C9.04996 10.28 8.63996 9.22998 7.55996 9.70998L7.56996 9.69998Z" fill="url(#paint2_radial_7_1867)"/>
<path style="mix-blend-mode:screen" opacity="0.6" fill-rule="evenodd" clip-rule="evenodd" d="M18.16 26.67C18.93 26.96 20.66 27.48 21.42 27.13C21.85 26.94 22.1 26.51 22.41 25.79C22.62 25.31 23.04 23.49 22.43 23.28C21.54 22.98 21.01 24.84 20.49 25.21C19.77 25.73 18.74 25.57 17.92 25.65C16.62 25.78 17.14 26.29 18.16 26.66V26.67Z" fill="url(#paint3_radial_7_1867)"/>
<g opacity="0.75">
<path style="mix-blend-mode:screen" opacity="0.75" fill-rule="evenodd" clip-rule="evenodd" d="M24.05 19.9C24.54 19.9 25.07 20.33 25.07 20.82C25.07 21.31 24.6 21.7 24.12 21.7C23.64 21.7 23.21 21.29 23.24 20.82C23.27 20.35 23.57 19.9 24.05 19.9ZM24.01 19.96C24.41 19.96 24.85 20.32 24.85 20.72C24.85 21.12 24.46 21.45 24.06 21.45C23.66 21.45 23.31 21.11 23.33 20.72C23.35 20.33 23.6 19.96 24 19.96H24.01ZM24.21 20.13C24.35 20.27 24.28 20.49 24.09 20.68C23.9 20.87 23.66 20.97 23.52 20.83C23.38 20.69 23.42 20.38 23.62 20.19C23.82 20 24.08 19.99 24.22 20.13H24.21ZM24.74 20.58C24.81 20.6 24.84 20.91 24.63 21.15C24.42 21.39 24.08 21.38 24.07 21.29C24.07 21.2 24.32 21.21 24.5 21.03C24.69 20.84 24.67 20.57 24.74 20.58Z" fill="url(#paint4_radial_7_1867)"/>
<path style="mix-blend-mode:screen" opacity="0.75" fill-rule="evenodd" clip-rule="evenodd" d="M6.70001 12.1C7.34001 12.1 8.05001 12.67 8.05001 13.31C8.05001 13.95 7.43001 14.47 6.79001 14.47C6.15001 14.47 5.59001 13.93 5.63001 13.31C5.67001 12.69 6.06001 12.1 6.71001 12.1H6.70001ZM6.65001 12.18C7.18001 12.18 7.77001 12.65 7.77001 13.18C7.77001 13.71 7.26001 14.14 6.73001 14.14C6.20001 14.14 5.74001 13.69 5.77001 13.18C5.80001 12.66 6.13001 12.18 6.66001 12.18H6.65001ZM6.92001 12.4C7.11001 12.59 7.01001 12.87 6.75001 13.13C6.49001 13.39 6.18001 13.51 5.99001 13.32C5.80001 13.13 5.86001 12.73 6.12001 12.47C6.38001 12.21 6.73001 12.2 6.92001 12.39V12.4ZM7.62001 13C7.71001 13.02 7.75001 13.44 7.47001 13.76C7.19001 14.07 6.74001 14.07 6.73001 13.95C6.72001 13.83 7.06001 13.85 7.30001 13.6C7.54001 13.35 7.53001 12.99 7.62001 13.01V13Z" fill="url(#paint5_radial_7_1867)"/>
<path style="mix-blend-mode:screen" opacity="0.6" fill-rule="evenodd" clip-rule="evenodd" d="M22.36 10.71C23.1 10.67 23.66 11.16 23.66 11.79C23.66 12.42 23.04 12.96 22.37 12.93C21.7 12.9 21.19 12.42 21.22 11.78C21.25 11.15 21.61 10.75 22.36 10.71ZM22.26 10.81C22.87 10.77 23.32 11.18 23.32 11.7C23.32 12.22 22.81 12.66 22.26 12.63C21.71 12.6 21.29 12.21 21.32 11.69C21.35 11.17 21.64 10.85 22.25 10.81H22.26ZM22.47 11.01C22.66 11.2 22.56 11.51 22.31 11.76C22.06 12.01 21.75 12.1 21.56 11.92C21.37 11.73 21.44 11.37 21.63 11.15C21.82 10.93 22.29 10.82 22.47 11.01ZM23.18 11.47C23.27 11.49 23.32 11.93 23.03 12.25C22.74 12.57 22.28 12.57 22.27 12.44C22.26 12.31 22.61 12.33 22.86 12.08C23.11 11.83 23.09 11.45 23.19 11.47H23.18Z" fill="url(#paint6_radial_7_1867)"/>
<path style="mix-blend-mode:screen" opacity="0.6" fill-rule="evenodd" clip-rule="evenodd" d="M4.48 16.07C5.07 16.04 5.51 16.42 5.51 16.93C5.51 17.44 5.02 17.85 4.49 17.83C3.96 17.8 3.56 17.42 3.58 16.92C3.61 16.42 3.89 16.11 4.48 16.07ZM4.4 16.15C4.88 16.12 5.24 16.44 5.24 16.85C5.24 17.26 4.84 17.61 4.41 17.59C3.98 17.57 3.65 17.26 3.67 16.85C3.69 16.44 3.93 16.18 4.41 16.16L4.4 16.15ZM4.56 16.31C4.71 16.46 4.63 16.71 4.43 16.91C4.23 17.11 3.98 17.18 3.84 17.03C3.69 16.88 3.75 16.59 3.89 16.42C4.04 16.25 4.41 16.16 4.56 16.31ZM5.12 16.67C5.19 16.69 5.23 17.03 5 17.28C4.77 17.53 4.41 17.53 4.4 17.43C4.4 17.33 4.67 17.35 4.87 17.15C5.07 16.95 5.05 16.65 5.13 16.67H5.12Z" fill="url(#paint7_radial_7_1867)"/>
<path style="mix-blend-mode:screen" opacity="0.4" fill-rule="evenodd" clip-rule="evenodd" d="M13.7 21.55C14.45 21.51 15 22 15 22.64C15 23.28 14.38 23.81 13.71 23.78C13.04 23.75 12.52 23.26 12.56 22.63C12.59 21.99 12.96 21.6 13.7 21.55ZM13.6 21.65C14.21 21.61 14.67 22.02 14.67 22.54C14.67 23.06 14.16 23.5 13.61 23.48C13.06 23.45 12.64 23.06 12.66 22.53C12.68 22 12.99 21.68 13.6 21.65ZM13.81 21.86C14 22.05 13.9 22.37 13.65 22.62C13.4 22.87 13.08 22.96 12.9 22.78C12.71 22.59 12.78 22.23 12.97 22.01C13.16 21.79 13.63 21.68 13.82 21.87L13.81 21.86ZM14.52 22.32C14.61 22.34 14.66 22.78 14.36 23.1C14.07 23.42 13.61 23.42 13.59 23.29C13.58 23.17 13.93 23.18 14.18 22.93C14.43 22.68 14.41 22.29 14.51 22.32H14.52Z" fill="url(#paint8_radial_7_1867)"/>
<path style="mix-blend-mode:screen" opacity="0.4" fill-rule="evenodd" clip-rule="evenodd" d="M20.17 21.55C20.62 21.52 20.96 21.82 20.96 22.21C20.96 22.6 20.58 22.92 20.18 22.9C19.77 22.88 19.46 22.59 19.48 22.2C19.5 21.81 19.72 21.57 20.17 21.55ZM20.11 21.61C20.48 21.59 20.76 21.83 20.76 22.15C20.76 22.47 20.45 22.73 20.12 22.72C19.79 22.7 19.53 22.46 19.55 22.15C19.57 21.83 19.75 21.64 20.12 21.61H20.11ZM20.24 21.73C20.35 21.84 20.29 22.04 20.14 22.19C19.99 22.34 19.8 22.4 19.68 22.29C19.57 22.18 19.61 21.95 19.72 21.82C19.83 21.69 20.12 21.62 20.23 21.73H20.24ZM20.67 22.01C20.73 22.02 20.75 22.29 20.58 22.48C20.4 22.68 20.12 22.67 20.12 22.6C20.12 22.52 20.33 22.53 20.48 22.38C20.63 22.23 20.62 21.99 20.68 22.01H20.67Z" fill="url(#paint9_radial_7_1867)"/>
<path style="mix-blend-mode:screen" opacity="0.4" fill-rule="evenodd" clip-rule="evenodd" d="M23.6 24.96C24.02 24.94 24.34 25.21 24.34 25.57C24.34 25.93 23.99 26.23 23.61 26.22C23.23 26.2 22.94 25.93 22.96 25.57C22.98 25.21 23.18 24.99 23.61 24.96H23.6ZM23.54 25.02C23.89 25 24.15 25.23 24.15 25.52C24.15 25.81 23.86 26.06 23.55 26.05C23.24 26.03 23 25.81 23.02 25.52C23.04 25.22 23.2 25.04 23.55 25.02H23.54ZM23.66 25.14C23.77 25.25 23.71 25.43 23.57 25.57C23.43 25.71 23.25 25.76 23.14 25.66C23.03 25.55 23.07 25.35 23.18 25.22C23.29 25.1 23.55 25.03 23.66 25.14ZM24.06 25.4C24.11 25.41 24.14 25.66 23.97 25.84C23.8 26.02 23.54 26.02 23.54 25.95C23.54 25.88 23.73 25.89 23.88 25.75C24.02 25.61 24.01 25.39 24.07 25.4H24.06Z" fill="url(#paint10_radial_7_1867)"/>
<path style="mix-blend-mode:screen" opacity="0.75" fill-rule="evenodd" clip-rule="evenodd" d="M23.5 7.16999C24.11 7.12999 24.57 7.54 24.57 8.05999C24.57 8.57999 24.06 9.01999 23.51 8.98999C22.96 8.95999 22.54 8.56999 22.57 8.04999C22.6 7.52999 22.89 7.20999 23.5 7.16999ZM23.42 7.24999C23.92 7.21999 24.3 7.54999 24.3 7.97999C24.3 8.40999 23.88 8.76999 23.43 8.74999C22.98 8.72999 22.64 8.39999 22.66 7.97999C22.68 7.54999 22.93 7.28999 23.43 7.25999L23.42 7.24999ZM23.59 7.41999C23.74 7.56999 23.66 7.82999 23.46 8.03999C23.26 8.24999 23 8.31999 22.84 8.16999C22.69 8.01999 22.74 7.71999 22.9 7.53999C23.05 7.35999 23.44 7.26999 23.59 7.41999ZM24.17 7.79999C24.25 7.81999 24.28 8.16999 24.04 8.43999C23.8 8.69999 23.42 8.7 23.41 8.6C23.4 8.49999 23.69 8.50999 23.9 8.29999C24.11 8.08999 24.09 7.77999 24.17 7.79999Z" fill="url(#paint11_radial_7_1867)"/>
<path style="mix-blend-mode:screen" opacity="0.4" fill-rule="evenodd" clip-rule="evenodd" d="M16.24 8.35C16.67 8.32 17 8.61 17 8.98C17 9.35 16.64 9.67 16.25 9.65C15.86 9.63 15.56 9.35 15.58 8.98C15.6 8.61 15.81 8.38 16.25 8.35H16.24ZM16.18 8.41C16.54 8.39 16.8 8.63 16.8 8.93C16.8 9.23 16.5 9.49 16.18 9.48C15.86 9.46 15.61 9.23 15.63 8.93C15.65 8.63 15.82 8.44 16.18 8.41ZM16.3 8.53C16.41 8.64 16.35 8.82 16.21 8.97C16.06 9.12 15.88 9.17 15.77 9.06C15.66 8.95 15.7 8.74 15.81 8.61C15.92 8.48 16.2 8.42 16.3 8.53ZM16.72 8.8C16.78 8.81 16.8 9.07 16.63 9.26C16.46 9.45 16.19 9.45 16.18 9.37C16.18 9.3 16.38 9.31 16.53 9.16C16.68 9.01 16.67 8.79 16.72 8.8Z" fill="url(#paint12_radial_7_1867)"/>
<path style="mix-blend-mode:screen" opacity="0.6" fill-rule="evenodd" clip-rule="evenodd" d="M15 9.51998C15.61 9.52998 16.18 10.13 16.18 10.81C16.18 11.49 15.73 11.78 15.05 11.78C14.37 11.78 13.83 11.5 13.83 10.82C13.83 10.14 14.39 9.50998 15.01 9.51998H15ZM14.91 9.62998C15.42 9.62998 15.88 10.13 15.88 10.69C15.88 11.25 15.5 11.49 14.94 11.49C14.38 11.49 13.93 11.26 13.93 10.7C13.93 10.14 14.4 9.61998 14.9 9.62998H14.91ZM15.15 9.82998C15.34 10.02 15.26 10.4 15.01 10.66C14.75 10.92 14.4 10.97 14.21 10.78C14.02 10.59 14.09 10.2 14.34 9.93998C14.59 9.67998 14.96 9.63998 15.15 9.82998ZM15.7 10.39C15.79 10.41 15.9 10.88 15.62 11.18C15.34 11.49 14.84 11.43 14.83 11.31C14.82 11.19 15.22 11.26 15.46 11.02C15.7 10.78 15.61 10.37 15.7 10.39Z" fill="url(#paint13_radial_7_1867)"/>
<path style="mix-blend-mode:screen" opacity="0.75" fill-rule="evenodd" clip-rule="evenodd" d="M9.20002 20.15C9.66002 20.15 10.07 20.6 10.07 21.1C10.07 21.6 9.73002 21.82 9.23002 21.82C8.73002 21.82 8.33002 21.61 8.33002 21.11C8.33002 20.61 8.75002 20.14 9.20002 20.15ZM9.13002 20.23C9.51002 20.23 9.85002 20.6 9.85002 21.02C9.85002 21.44 9.57002 21.62 9.15002 21.62C8.73002 21.62 8.40002 21.45 8.40002 21.03C8.40002 20.61 8.75002 20.23 9.12002 20.23H9.13002ZM9.31002 20.38C9.45002 20.52 9.39002 20.8 9.20002 20.99C9.01002 21.18 8.75002 21.22 8.61002 21.08C8.47002 20.94 8.52002 20.65 8.71002 20.46C8.90002 20.27 9.17002 20.24 9.31002 20.38ZM9.72002 20.79C9.79002 20.81 9.87002 21.15 9.66002 21.38C9.45002 21.61 9.08002 21.57 9.07002 21.48C9.06002 21.39 9.36002 21.44 9.54002 21.26C9.72002 21.08 9.65002 20.77 9.72002 20.79Z" fill="url(#paint14_radial_7_1867)"/>
<path style="mix-blend-mode:screen" opacity="0.75" fill-rule="evenodd" clip-rule="evenodd" d="M21.63 4.16C22.26 4.17 22.83 4.78 22.83 5.48C22.83 6.18 22.37 6.47 21.67 6.47C20.97 6.47 20.42 6.18 20.42 5.49C20.42 4.8 21 4.15 21.62 4.16H21.63ZM21.54 4.27C22.06 4.27 22.54 4.78 22.54 5.36C22.54 5.94 22.16 6.18 21.58 6.18C21 6.18 20.54 5.94 20.54 5.37C20.54 4.8 21.02 4.26 21.54 4.27ZM21.78 4.47C21.97 4.66 21.9 5.05 21.63 5.32C21.37 5.58 21 5.64 20.81 5.44C20.62 5.24 20.68 4.85 20.95 4.58C21.21 4.32 21.59 4.27 21.78 4.47ZM22.35 5.04C22.44 5.06 22.55 5.54 22.27 5.85C21.98 6.16 21.47 6.11 21.46 5.99C21.45 5.87 21.86 5.94 22.11 5.69C22.36 5.44 22.27 5.02 22.36 5.04H22.35Z" fill="url(#paint15_radial_7_1867)"/>
</g>
<path style="mix-blend-mode:multiply" fill-rule="evenodd" clip-rule="evenodd" d="M23.08 25.17C22.3 28.51 20.1 27.74 17.58 26.95C13.29 25.6 6.00998 21.81 3.19999 17.71C1.64999 15.43 1.65999 14.36 2.54999 12.7C1.94999 13.23 1.36999 13.76 0.799985 14.31C-0.410015 15.47 -0.130015 16.48 0.799985 17.32C6.81999 22.71 14.63 28.07 22.37 31.44C23.57 31.96 24.91 31.44 25.09 30.43C26.42 22.92 26.34 10.98 25.09 1.39C24.91 -0.0300006 23.29 -0.250001 22.31 0.219999C20.56 1.05 18.83 1.91 17.14 2.81C19.36 2.01 21.35 1.49 22.28 4.13C24.13 9.4 24.21 20.3 23.07 25.17H23.08Z" fill="url(#paint16_radial_7_1867)"/>
<defs>
<radialGradient id="paint0_radial_7_1867" cx="0" cy="0" r="1" gradientUnits="userSpaceOnUse" gradientTransform="translate(9.86999 6.47001) scale(32.05)">
<stop stop-color="#6BECFF"/>
<stop offset="0.93" stop-color="#0089F2"/>
</radialGradient>
<radialGradient id="paint1_radial_7_1867" cx="0" cy="0" r="1" gradientUnits="userSpaceOnUse" gradientTransform="translate(9.34995 1.15001) scale(20.75 20.75)">
<stop stop-color="#B5F6FF"/>
<stop offset="1"/>
</radialGradient>
<radialGradient id="paint2_radial_7_1867" cx="0" cy="0" r="1" gradientUnits="userSpaceOnUse" gradientTransform="translate(11.47 3.21999) scale(21.29)">
<stop stop-color="white"/>
<stop offset="1"/>
</radialGradient>
<radialGradient id="paint3_radial_7_1867" cx="0" cy="0" r="1" gradientUnits="userSpaceOnUse" gradientTransform="translate(20.06 22.44) scale(10.3 10.3)">
<stop stop-color="#B5F6FF"/>
<stop offset="1"/>
</radialGradient>
<radialGradient id="paint4_radial_7_1867" cx="0" cy="0" r="1" gradientUnits="userSpaceOnUse" gradientTransform="translate(22.53 18.37) scale(3.71 3.71)">
<stop stop-color="#B0F5FF"/>
<stop offset="0.93" stop-color="#63BBFF"/>
</radialGradient>
<radialGradient id="paint5_radial_7_1867" cx="0" cy="0" r="1" gradientUnits="userSpaceOnUse" gradientTransform="translate(4.68001 10.08) scale(4.91)">
<stop stop-color="#B0F5FF"/>
<stop offset="0.93" stop-color="#63BBFF"/>
</radialGradient>
<radialGradient id="paint6_radial_7_1867" cx="0" cy="0" r="1" gradientUnits="userSpaceOnUse" gradientTransform="translate(21.65 10.13) scale(3.44)">
<stop stop-color="#B0F5FF"/>
<stop offset="0.93" stop-color="#63BBFF"/>
</radialGradient>
<radialGradient id="paint7_radial_7_1867" cx="0" cy="0" r="1" gradientUnits="userSpaceOnUse" gradientTransform="translate(3.92 15.61) scale(2.72)">
<stop stop-color="#B0F5FF"/>
<stop offset="0.93" stop-color="#63BBFF"/>
</radialGradient>
<radialGradient id="paint8_radial_7_1867" cx="0" cy="0" r="1" gradientUnits="userSpaceOnUse" gradientTransform="translate(12.98 20.97) scale(3.46 3.46)">
<stop stop-color="#B0F5FF"/>
<stop offset="0.93" stop-color="#63BBFF"/>
</radialGradient>
<radialGradient id="paint9_radial_7_1867" cx="0" cy="0" r="1" gradientUnits="userSpaceOnUse" gradientTransform="translate(19.74 21.2) scale(2.1 2.1)">
<stop stop-color="#B0F5FF"/>
<stop offset="0.93" stop-color="#63BBFF"/>
</radialGradient>
<radialGradient id="paint10_radial_7_1867" cx="0" cy="0" r="1" gradientUnits="userSpaceOnUse" gradientTransform="translate(23.2 24.63) scale(1.96 1.96)">
<stop stop-color="#B0F5FF"/>
<stop offset="0.93" stop-color="#63BBFF"/>
</radialGradient>
<radialGradient id="paint11_radial_7_1867" cx="0" cy="0" r="1" gradientUnits="userSpaceOnUse" gradientTransform="translate(22.92 6.69999) scale(2.83)">
<stop stop-color="#B0F5FF"/>
<stop offset="0.93" stop-color="#63BBFF"/>
</radialGradient>
<radialGradient id="paint12_radial_7_1867" cx="0" cy="0" r="1" gradientUnits="userSpaceOnUse" gradientTransform="translate(15.83 8.01) scale(2.02 2.02)">
<stop stop-color="#B0F5FF"/>
<stop offset="0.93" stop-color="#63BBFF"/>
</radialGradient>
<radialGradient id="paint13_radial_7_1867" cx="0" cy="0" r="1" gradientUnits="userSpaceOnUse" gradientTransform="translate(14.45 8.87998) scale(3.78 3.78)">
<stop stop-color="#B0F5FF"/>
<stop offset="0.93" stop-color="#63BBFF"/>
</radialGradient>
<radialGradient id="paint14_radial_7_1867" cx="0" cy="0" r="1" gradientUnits="userSpaceOnUse" gradientTransform="translate(8.79002 19.68) scale(2.81)">
<stop stop-color="#B0F5FF"/>
<stop offset="0.93" stop-color="#63BBFF"/>
</radialGradient>
<radialGradient id="paint15_radial_7_1867" cx="0" cy="0" r="1" gradientUnits="userSpaceOnUse" gradientTransform="translate(21.06 3.5) scale(3.87)">
<stop stop-color="#B0F5FF"/>
<stop offset="0.93" stop-color="#63BBFF"/>
</radialGradient>
<radialGradient id="paint16_radial_7_1867" cx="0" cy="0" r="1" gradientUnits="userSpaceOnUse" gradientTransform="translate(6.35999 11.38) scale(41.47 41.47)">
<stop offset="0.53" stop-color="white"/>
<stop offset="0.66" stop-color="#C2E8FF"/>
<stop offset="0.95" stop-color="#2CAFFF"/>
<stop offset="1" stop-color="#12A5FF"/>
</radialGradient>
</defs>
</svg>
