<svg width="38" height="38" viewBox="0 0 38 38" fill="none" xmlns="http://www.w3.org/2000/svg">
<path fill-rule="evenodd" clip-rule="evenodd" d="M18.87 37.73C28.76 37.71 38.39 28.89 37.74 18.86C37.09 8.84 29.29 0 18.87 0C8.45001 0 -0.199987 7.46 1.26632e-05 18.87C0.200013 30.28 8.97001 37.76 18.87 37.74V37.73Z" fill="url(#paint0_radial_4_5)"/>
<path style="mix-blend-mode:screen" fill-rule="evenodd" clip-rule="evenodd" d="M33.52 19.57C34.1 19.57 34.73 20.08 34.73 20.66C34.73 21.24 34.17 21.71 33.6 21.71C33.03 21.71 32.52 21.22 32.55 20.66C32.58 20.1 32.94 19.57 33.52 19.57ZM33.47 19.64C33.95 19.64 34.47 20.06 34.47 20.54C34.47 21.02 34.01 21.4 33.53 21.4C33.05 21.4 32.64 21 32.67 20.54C32.7 20.08 32.99 19.64 33.47 19.64ZM33.71 19.84C33.88 20.01 33.79 20.27 33.56 20.5C33.33 20.73 33.05 20.84 32.88 20.68C32.71 20.52 32.76 20.15 32.99 19.92C33.22 19.69 33.54 19.68 33.71 19.85V19.84ZM34.34 20.38C34.42 20.4 34.46 20.78 34.2 21.06C33.94 21.34 33.54 21.34 33.53 21.23C33.52 21.12 33.83 21.14 34.05 20.92C34.27 20.7 34.25 20.37 34.33 20.39L34.34 20.38Z" fill="url(#paint1_radial_4_5)"/>
<path style="mix-blend-mode:screen" opacity="0.7" fill-rule="evenodd" clip-rule="evenodd" d="M17.4 28.34C17.89 28.34 18.42 28.77 18.42 29.26C18.42 29.75 17.95 30.14 17.46 30.14C16.97 30.14 16.55 29.73 16.58 29.26C16.61 28.79 16.91 28.34 17.4 28.34ZM17.36 28.4C17.76 28.4 18.21 28.76 18.21 29.16C18.21 29.56 17.82 29.89 17.42 29.89C17.02 29.89 16.67 29.55 16.69 29.16C16.71 28.77 16.96 28.4 17.37 28.4H17.36ZM17.56 28.57C17.7 28.71 17.63 28.93 17.43 29.12C17.23 29.31 17 29.41 16.85 29.27C16.71 29.13 16.75 28.82 16.95 28.63C17.15 28.44 17.41 28.43 17.56 28.57ZM18.09 29.03C18.16 29.05 18.19 29.37 17.98 29.6C17.77 29.83 17.43 29.83 17.42 29.74C17.42 29.65 17.67 29.66 17.86 29.47C18.05 29.28 18.03 29 18.1 29.02L18.09 29.03Z" fill="url(#paint2_radial_4_5)"/>
<path style="mix-blend-mode:screen" opacity="0.6" fill-rule="evenodd" clip-rule="evenodd" d="M14.27 32.42C14.8 32.42 15.39 32.89 15.39 33.42C15.39 33.95 14.88 34.38 14.35 34.38C13.82 34.38 13.35 33.93 13.39 33.42C13.42 32.9 13.75 32.42 14.28 32.42H14.27ZM14.22 32.48C14.66 32.48 15.14 32.87 15.14 33.31C15.14 33.75 14.72 34.11 14.28 34.11C13.84 34.11 13.46 33.74 13.48 33.31C13.5 32.88 13.78 32.48 14.22 32.48ZM14.44 32.67C14.6 32.83 14.51 33.06 14.3 33.27C14.09 33.48 13.83 33.59 13.67 33.43C13.51 33.27 13.56 32.94 13.77 32.73C13.98 32.52 14.28 32.51 14.43 32.67H14.44ZM15.02 33.17C15.1 33.19 15.13 33.54 14.9 33.8C14.66 34.06 14.3 34.06 14.29 33.96C14.29 33.86 14.56 33.87 14.77 33.67C14.97 33.47 14.96 33.16 15.03 33.18L15.02 33.17Z" fill="url(#paint3_radial_4_5)"/>
<path style="mix-blend-mode:screen" fill-rule="evenodd" clip-rule="evenodd" d="M8.31002 11.84C9.07002 11.84 9.92002 12.52 9.92002 13.28C9.92002 14.04 9.18002 14.66 8.42002 14.66C7.66002 14.66 6.99002 14.02 7.04002 13.28C7.09002 12.54 7.56001 11.84 8.32001 11.84H8.31002ZM8.24002 11.93C8.87002 11.93 9.57001 12.49 9.57001 13.12C9.57001 13.75 8.96002 14.26 8.33002 14.26C7.70002 14.26 7.15002 13.73 7.19002 13.12C7.23002 12.51 7.62002 11.93 8.25002 11.93H8.24002ZM8.56002 12.2C8.78002 12.42 8.67001 12.76 8.36001 13.07C8.06001 13.37 7.68002 13.53 7.46002 13.3C7.24002 13.08 7.31002 12.6 7.61002 12.29C7.91002 11.99 8.34002 11.97 8.56002 12.2ZM9.39002 12.91C9.50002 12.94 9.55002 13.44 9.21002 13.81C8.87002 14.18 8.34002 14.18 8.33002 14.03C8.32002 13.89 8.72002 13.91 9.01002 13.61C9.30002 13.32 9.28002 12.88 9.39002 12.9V12.91Z" fill="url(#paint4_radial_4_5)"/>
<path style="mix-blend-mode:screen" opacity="0.6" fill-rule="evenodd" clip-rule="evenodd" d="M30.05 12.14C30.54 12.11 30.9 12.43 30.9 12.85C30.9 13.27 30.49 13.62 30.06 13.6C29.62 13.58 29.29 13.26 29.31 12.85C29.33 12.43 29.57 12.18 30.06 12.15L30.05 12.14ZM29.98 12.21C30.38 12.19 30.68 12.45 30.68 12.79C30.68 13.13 30.35 13.42 29.99 13.4C29.63 13.38 29.36 13.12 29.37 12.78C29.38 12.44 29.58 12.23 29.98 12.2V12.21ZM30.12 12.34C30.24 12.46 30.18 12.67 30.01 12.83C29.84 12.99 29.64 13.05 29.52 12.93C29.4 12.81 29.44 12.57 29.56 12.42C29.68 12.28 29.99 12.21 30.11 12.33L30.12 12.34ZM30.58 12.64C30.64 12.65 30.67 12.94 30.48 13.15C30.29 13.36 29.99 13.36 29.98 13.28C29.97 13.2 30.2 13.21 30.37 13.04C30.54 12.87 30.52 12.63 30.58 12.64Z" fill="url(#paint5_radial_4_5)"/>
<path style="mix-blend-mode:screen" opacity="0.6" fill-rule="evenodd" clip-rule="evenodd" d="M3.53001 21.3C4.23001 21.26 4.75001 21.72 4.75001 22.32C4.75001 22.92 4.17001 23.42 3.54001 23.39C2.91001 23.36 2.43001 22.91 2.46001 22.31C2.49001 21.71 2.83001 21.34 3.53001 21.3ZM3.43001 21.39C4.00001 21.36 4.43001 21.74 4.43001 22.22C4.43001 22.7 3.95001 23.12 3.44001 23.1C2.93001 23.08 2.53001 22.7 2.56001 22.22C2.58001 21.73 2.86001 21.43 3.44001 21.39H3.43001ZM3.63001 21.58C3.80001 21.75 3.71001 22.05 3.48001 22.29C3.24001 22.53 2.95001 22.61 2.78001 22.44C2.61001 22.27 2.67001 21.92 2.84001 21.72C3.02001 21.51 3.46001 21.41 3.63001 21.59V21.58ZM4.30001 22.01C4.39001 22.03 4.43001 22.44 4.15001 22.74C3.88001 23.04 3.44001 23.04 3.43001 22.92C3.42001 22.8 3.75001 22.82 3.99001 22.58C4.23001 22.34 4.21001 21.99 4.30001 22.01Z" fill="url(#paint6_radial_4_5)"/>
<path style="mix-blend-mode:screen" opacity="0.4" fill-rule="evenodd" clip-rule="evenodd" d="M9.36002 29.09C10.07 29.05 10.6 29.52 10.6 30.12C10.6 30.72 10.01 31.23 9.37002 31.2C8.74002 31.17 8.25002 30.71 8.28002 30.11C8.31002 29.51 8.66002 29.13 9.36002 29.09ZM9.26002 29.18C9.84002 29.15 10.27 29.53 10.27 30.03C10.27 30.53 9.78002 30.94 9.26002 30.92C8.74002 30.89 8.34002 30.52 8.36002 30.02C8.39002 29.53 8.67002 29.22 9.25002 29.18H9.26002ZM9.46002 29.37C9.64002 29.55 9.55003 29.85 9.31003 30.09C9.07003 30.33 8.77003 30.42 8.60003 30.24C8.43003 30.06 8.49002 29.72 8.66002 29.51C8.84002 29.3 9.29002 29.2 9.46002 29.38V29.37ZM10.13 29.81C10.22 29.83 10.26 30.24 9.98002 30.55C9.70002 30.86 9.27002 30.85 9.25002 30.73C9.24002 30.61 9.57003 30.63 9.81003 30.39C10.05 30.15 10.03 29.79 10.12 29.81H10.13Z" fill="url(#paint7_radial_4_5)"/>
<path style="mix-blend-mode:screen" opacity="0.4" fill-rule="evenodd" clip-rule="evenodd" d="M21.6 1.57C22.14 1.54 22.54 1.9 22.54 2.35C22.54 2.8 22.09 3.2 21.61 3.17C21.13 3.14 20.76 2.8 20.78 2.34C20.8 1.88 21.07 1.59 21.6 1.56V1.57ZM21.53 1.64C21.97 1.61 22.3 1.91 22.3 2.28C22.3 2.65 21.93 2.97 21.53 2.96C21.13 2.95 20.83 2.65 20.85 2.28C20.87 1.9 21.08 1.67 21.53 1.64ZM21.68 1.79C21.81 1.92 21.75 2.15 21.56 2.34C21.37 2.53 21.15 2.59 21.02 2.45C20.89 2.32 20.93 2.05 21.07 1.89C21.21 1.73 21.55 1.65 21.68 1.79ZM22.19 2.12C22.26 2.14 22.29 2.45 22.08 2.68C21.87 2.91 21.54 2.91 21.53 2.82C21.53 2.73 21.77 2.74 21.96 2.56C22.15 2.38 22.13 2.1 22.2 2.12H22.19Z" fill="url(#paint8_radial_4_5)"/>
<path style="mix-blend-mode:screen" opacity="0.4" fill-rule="evenodd" clip-rule="evenodd" d="M26.19 28.22C26.69 28.19 27.07 28.52 27.07 28.95C27.07 29.38 26.65 29.74 26.2 29.72C25.75 29.7 25.4 29.37 25.42 28.94C25.44 28.51 25.69 28.24 26.19 28.22ZM26.12 28.29C26.53 28.27 26.84 28.54 26.84 28.89C26.84 29.24 26.5 29.54 26.13 29.52C25.76 29.5 25.48 29.24 25.49 28.88C25.51 28.53 25.71 28.31 26.12 28.29ZM26.26 28.43C26.39 28.56 26.32 28.77 26.15 28.94C25.98 29.11 25.77 29.17 25.64 29.05C25.51 28.92 25.56 28.68 25.69 28.53C25.82 28.38 26.13 28.31 26.26 28.43ZM26.74 28.74C26.8 28.75 26.83 29.05 26.64 29.27C26.45 29.49 26.13 29.48 26.12 29.4C26.12 29.32 26.35 29.33 26.52 29.16C26.69 28.99 26.68 28.73 26.74 28.75V28.74Z" fill="url(#paint9_radial_4_5)"/>
<path style="mix-blend-mode:screen" fill-rule="evenodd" clip-rule="evenodd" d="M17.47 3.19C18.2 3.15 18.74 3.63 18.74 4.25C18.74 4.87 18.13 5.39 17.48 5.36C16.83 5.33 16.33 4.86 16.36 4.24C16.39 3.62 16.75 3.24 17.47 3.19ZM17.37 3.29C17.96 3.26 18.41 3.65 18.41 4.16C18.41 4.67 17.91 5.1 17.38 5.07C16.85 5.04 16.43 4.66 16.46 4.15C16.49 3.64 16.78 3.33 17.37 3.29ZM17.57 3.49C17.75 3.67 17.66 3.98 17.41 4.23C17.16 4.48 16.86 4.56 16.68 4.38C16.5 4.2 16.56 3.84 16.75 3.63C16.93 3.42 17.39 3.31 17.57 3.49ZM18.26 3.94C18.35 3.96 18.39 4.39 18.11 4.7C17.82 5.01 17.38 5.01 17.36 4.89C17.35 4.77 17.69 4.79 17.94 4.54C18.19 4.29 18.17 3.92 18.26 3.94Z" fill="url(#paint10_radial_4_5)"/>
<path style="mix-blend-mode:screen" opacity="0.4" fill-rule="evenodd" clip-rule="evenodd" d="M17.43 8.45C17.95 8.42 18.34 8.76 18.34 9.2C18.34 9.64 17.91 10.02 17.44 9.99C16.98 9.97 16.62 9.63 16.64 9.19C16.66 8.75 16.92 8.47 17.43 8.44V8.45ZM17.36 8.52C17.78 8.5 18.1 8.78 18.1 9.14C18.1 9.5 17.74 9.81 17.36 9.79C16.98 9.77 16.69 9.5 16.7 9.13C16.72 8.77 16.93 8.54 17.35 8.52H17.36ZM17.51 8.66C17.64 8.79 17.57 9.01 17.4 9.19C17.22 9.37 17.01 9.43 16.88 9.3C16.75 9.17 16.8 8.92 16.93 8.76C17.06 8.61 17.39 8.53 17.52 8.66H17.51ZM18 8.98C18.07 9 18.1 9.3 17.89 9.52C17.69 9.74 17.37 9.74 17.36 9.65C17.36 9.56 17.6 9.58 17.77 9.4C17.94 9.22 17.93 8.96 18 8.97V8.98Z" fill="url(#paint11_radial_4_5)"/>
<path style="mix-blend-mode:screen" opacity="0.6" fill-rule="evenodd" clip-rule="evenodd" d="M33.35 15.21C34.08 15.22 34.75 15.93 34.75 16.74C34.75 17.55 34.21 17.89 33.4 17.89C32.59 17.89 31.95 17.56 31.95 16.75C31.95 15.94 32.62 15.2 33.35 15.21ZM33.24 15.34C33.85 15.35 34.4 15.94 34.4 16.61C34.4 17.28 33.95 17.57 33.28 17.57C32.61 17.57 32.08 17.3 32.08 16.63C32.08 15.96 32.63 15.34 33.24 15.35V15.34ZM33.52 15.57C33.74 15.79 33.65 16.25 33.35 16.55C33.05 16.85 32.62 16.92 32.4 16.69C32.18 16.46 32.25 16 32.56 15.7C32.86 15.4 33.3 15.34 33.52 15.57ZM34.18 16.23C34.29 16.25 34.42 16.81 34.08 17.17C33.75 17.53 33.15 17.47 33.14 17.33C33.13 17.19 33.6 17.27 33.89 16.98C34.18 16.69 34.07 16.2 34.18 16.23Z" fill="url(#paint12_radial_4_5)"/>
<path style="mix-blend-mode:screen" fill-rule="evenodd" clip-rule="evenodd" d="M5.75002 13.68C6.29002 13.68 6.79002 14.21 6.79002 14.81C6.79002 15.41 6.39002 15.67 5.79002 15.67C5.19002 15.67 4.71002 15.42 4.71002 14.82C4.71002 14.22 5.21002 13.67 5.75002 13.68ZM5.67002 13.78C6.12002 13.78 6.53002 14.22 6.53002 14.72C6.53002 15.22 6.20002 15.43 5.70002 15.43C5.20002 15.43 4.81002 15.23 4.81002 14.73C4.81002 14.23 5.22002 13.77 5.67002 13.78ZM5.88002 13.95C6.05002 14.12 5.98002 14.45 5.75002 14.68C5.52002 14.91 5.21002 14.95 5.05002 14.79C4.88002 14.62 4.94002 14.28 5.17002 14.05C5.40002 13.82 5.72002 13.79 5.88002 13.95ZM6.37002 14.44C6.45002 14.46 6.54002 14.87 6.30002 15.14C6.05002 15.41 5.61002 15.36 5.60002 15.26C5.59002 15.16 5.94002 15.22 6.16002 15C6.38002 14.78 6.30002 14.42 6.37002 14.44Z" fill="url(#paint13_radial_4_5)"/>
<path style="mix-blend-mode:screen" fill-rule="evenodd" clip-rule="evenodd" d="M23.84 3.46999C24.59 3.47999 25.27 4.20999 25.27 5.03999C25.27 5.86999 24.72 6.21999 23.89 6.21999C23.06 6.21999 22.4 5.87999 22.4 5.04999C22.4 4.21999 23.08 3.45999 23.83 3.46999H23.84ZM23.73 3.59999C24.35 3.60999 24.92 4.20999 24.92 4.89999C24.92 5.58999 24.46 5.87999 23.78 5.87999C23.1 5.87999 22.55 5.59999 22.55 4.90999C22.55 4.21999 23.12 3.58999 23.74 3.59999H23.73ZM24.02 3.83999C24.25 4.06999 24.16 4.52999 23.85 4.84999C23.54 5.16999 23.11 5.22999 22.88 4.99999C22.65 4.76999 22.73 4.28999 23.04 3.97999C23.35 3.66999 23.8 3.60999 24.03 3.83999H24.02ZM24.69 4.51999C24.8 4.54999 24.93 5.10999 24.59 5.48999C24.25 5.85999 23.64 5.79999 23.62 5.64999C23.6 5.49999 24.09 5.58999 24.39 5.28999C24.68 4.99999 24.58 4.48999 24.69 4.51999Z" fill="url(#paint14_radial_4_5)"/>
<g style="mix-blend-mode:multiply">
<path fill-rule="evenodd" clip-rule="evenodd" d="M24.34 9.95C25.84 11.02 27.19 12.33 28.33 13.94C26.99 15.51 25.24 17.41 23.33 19.38C25.15 21.26 26.88 23.15 28.31 24.84C27.24 26.34 25.93 27.69 24.32 28.83C22.75 27.49 20.85 25.74 18.88 23.83C16.94 25.7 15.05 27.45 13.44 28.83C11.87 27.74 10.57 26.38 9.45002 24.84C10.7 23.37 12.45 21.44 14.43 19.39C12.56 17.45 10.81 15.56 9.43002 13.95C10.52 12.38 11.88 11.08 13.42 9.96C14.89 11.21 16.82 12.96 18.87 14.94C20.75 13.12 22.64 11.39 24.33 9.96L24.34 9.95Z" fill="#BE1622"/>
</g>
<path fill-rule="evenodd" clip-rule="evenodd" d="M24.34 9.42999C25.84 10.5 27.19 11.81 28.33 13.42C26.99 14.99 25.24 16.89 23.33 18.86C25.15 20.74 26.88 22.63 28.31 24.32C27.24 25.82 25.93 27.17 24.32 28.31C22.75 26.97 20.85 25.22 18.88 23.31C16.94 25.18 15.05 26.93 13.44 28.31C11.87 27.22 10.57 25.86 9.45002 24.32C10.7 22.85 12.45 20.92 14.43 18.87C12.56 16.93 10.81 15.04 9.43002 13.43C10.52 11.86 11.88 10.56 13.42 9.43999C14.89 10.68 16.82 12.44 18.87 14.42C20.75 12.6 22.64 10.87 24.33 9.43999L24.34 9.42999Z" fill="url(#paint15_linear_4_5)"/>
<path style="mix-blend-mode:multiply" fill-rule="evenodd" clip-rule="evenodd" d="M33.65 17.13C34.22 26 25.71 33.81 16.96 33.82C8.21001 33.84 0.440009 27.22 0.270009 17.13C0.250009 16.15 0.310009 15.2 0.440009 14.28C0.120009 15.72 -0.0199914 17.26 8.57317e-06 18.87C0.200009 30.28 8.97001 37.76 18.87 37.74C28.76 37.72 38.39 28.9 37.74 18.87C37.09 8.84 29.29 0 18.87 0C16.73 0 14.66 0.31 12.74 0.91C14.09 0.59 15.51 0.43 16.96 0.43C26.18 0.43 33.08 8.25 33.65 17.12V17.13Z" fill="url(#paint16_radial_4_5)"/>
<path style="mix-blend-mode:screen" fill-rule="evenodd" clip-rule="evenodd" d="M2.20002 10.61C0.840022 13.3 0.070022 18.88 1.43002 22.49C2.00002 24 4.45002 26.8 6.10002 25.77C10.44 23.05 13.28 18.2 19.48 15.03C21.63 13.93 24.62 12.97 26.92 12.34C29.46 11.64 30.06 9.95001 28.71 7.30001C26.75 3.46001 22.79 1 17.15 0.780005C10.6 0.530005 5.05002 4.97 2.20002 10.61Z" fill="url(#paint17_radial_4_5)"/>
<path style="mix-blend-mode:screen" fill-rule="evenodd" clip-rule="evenodd" d="M13.57 2.27C10.16 2.95 7.13002 5.02 5.25002 8.1C4.80002 8.83 4.70002 9.55 4.95002 9.85C5.19002 10.13 5.75002 10.01 6.57002 9.57C7.77002 8.94 9.65002 7.81 11.39 6.93C12.89 6.17 14.27 5.66 15.01 5.46C18.37 4.55 18.54 1.28 13.57 2.28V2.27ZM2.08002 13.43C1.70002 14.76 2.12002 17.25 3.50002 15.41C4.02002 14.72 4.45002 13.95 4.81002 13.17C5.10002 12.55 5.08002 11.54 4.49002 11.24C3.21002 10.59 2.34002 12.5 2.07002 13.43H2.08002Z" fill="url(#paint18_radial_4_5)"/>
<path style="mix-blend-mode:screen" fill-rule="evenodd" clip-rule="evenodd" d="M21.96 32.19C25.37 31.34 28.42 29.08 30.3 25.91C30.62 25.37 30.81 24.78 30.58 24.69C30.44 24.63 30.3 24.59 29.37 25.27C26.74 27.18 24.2 28.86 20.93 29.9C19.38 30.39 18.4 30.97 18.31 31.56C18.2 32.24 19.29 32.86 21.97 32.19H21.96Z" fill="url(#paint19_radial_4_5)"/>
<defs>
<radialGradient id="paint0_radial_4_5" cx="0" cy="0" r="1" gradientUnits="userSpaceOnUse" gradientTransform="translate(12.07 9.64) scale(33.45)">
<stop stop-color="#FF6B6B"/>
<stop offset="0.93" stop-color="#B30000"/>
</radialGradient>
<radialGradient id="paint1_radial_4_5" cx="0" cy="0" r="1" gradientUnits="userSpaceOnUse" gradientTransform="translate(31.71 17.76) scale(4.41 4.41)">
<stop stop-color="#FFA5A1"/>
<stop offset="0.93" stop-color="#E6332A"/>
</radialGradient>
<radialGradient id="paint2_radial_4_5" cx="0" cy="0" r="1" gradientUnits="userSpaceOnUse" gradientTransform="translate(15.87 26.81) scale(3.73 3.73)">
<stop stop-color="#FFA5A1"/>
<stop offset="0.93" stop-color="#E6332A"/>
</radialGradient>
<radialGradient id="paint3_radial_4_5" cx="0" cy="0" r="1" gradientUnits="userSpaceOnUse" gradientTransform="translate(12.61 30.74) scale(4.07 4.07001)">
<stop stop-color="#FFA5A1"/>
<stop offset="0.93" stop-color="#E6332A"/>
</radialGradient>
<radialGradient id="paint4_radial_4_5" cx="0" cy="0" r="1" gradientUnits="userSpaceOnUse" gradientTransform="translate(5.91001 9.44) scale(5.85)">
<stop stop-color="#FFA5A1"/>
<stop offset="0.93" stop-color="#E6332A"/>
</radialGradient>
<radialGradient id="paint5_radial_4_5" cx="0" cy="0" r="1" gradientUnits="userSpaceOnUse" gradientTransform="translate(29.58 11.76) scale(2.26)">
<stop stop-color="#FFA5A1"/>
<stop offset="0.93" stop-color="#E6332A"/>
</radialGradient>
<radialGradient id="paint6_radial_4_5" cx="0" cy="0" r="1" gradientUnits="userSpaceOnUse" gradientTransform="translate(2.86001 20.76) scale(3.24)">
<stop stop-color="#FFA5A1"/>
<stop offset="0.93" stop-color="#E6332A"/>
</radialGradient>
<radialGradient id="paint7_radial_4_5" cx="0" cy="0" r="1" gradientUnits="userSpaceOnUse" gradientTransform="translate(8.68002 28.54) scale(3.28)">
<stop stop-color="#FFA5A1"/>
<stop offset="0.93" stop-color="#E6332A"/>
</radialGradient>
<radialGradient id="paint8_radial_4_5" cx="0" cy="0" r="1" gradientUnits="userSpaceOnUse" gradientTransform="translate(21.08 1.15) scale(2.5)">
<stop stop-color="#FFA5A1"/>
<stop offset="0.93" stop-color="#E6332A"/>
</radialGradient>
<radialGradient id="paint9_radial_4_5" cx="0" cy="0" r="1" gradientUnits="userSpaceOnUse" gradientTransform="translate(25.71 27.83) scale(2.33)">
<stop stop-color="#FFA5A1"/>
<stop offset="0.93" stop-color="#E6332A"/>
</radialGradient>
<radialGradient id="paint10_radial_4_5" cx="0" cy="0" r="1" gradientUnits="userSpaceOnUse" gradientTransform="translate(16.78 2.62) scale(3.37 3.37)">
<stop stop-color="#FFA5A1"/>
<stop offset="0.93" stop-color="#E6332A"/>
</radialGradient>
<radialGradient id="paint11_radial_4_5" cx="0" cy="0" r="1" gradientUnits="userSpaceOnUse" gradientTransform="translate(16.94 8.05) scale(2.4)">
<stop stop-color="#FFA5A1"/>
<stop offset="0.93" stop-color="#E6332A"/>
</radialGradient>
<radialGradient id="paint12_radial_4_5" cx="0" cy="0" r="1" gradientUnits="userSpaceOnUse" gradientTransform="translate(32.69 14.44) scale(4.5)">
<stop stop-color="#FFA5A1"/>
<stop offset="0.93" stop-color="#E6332A"/>
</radialGradient>
<radialGradient id="paint13_radial_4_5" cx="0" cy="0" r="1" gradientUnits="userSpaceOnUse" gradientTransform="translate(5.26002 13.11) scale(3.34)">
<stop stop-color="#FFA5A1"/>
<stop offset="0.93" stop-color="#E6332A"/>
</radialGradient>
<radialGradient id="paint14_radial_4_5" cx="0" cy="0" r="1" gradientUnits="userSpaceOnUse" gradientTransform="translate(23.17 2.68999) scale(4.61 4.61)">
<stop stop-color="#FFA5A1"/>
<stop offset="0.93" stop-color="#E6332A"/>
</radialGradient>
<linearGradient id="paint15_linear_4_5" x1="18.88" y1="28.31" x2="18.88" y2="9.42999" gradientUnits="userSpaceOnUse">
<stop stop-color="#FFEBEB"/>
<stop offset="1" stop-color="white"/>
</linearGradient>
<radialGradient id="paint16_radial_4_5" cx="0" cy="0" r="1" gradientUnits="userSpaceOnUse" gradientTransform="translate(17.01 15.54) scale(27.74 27.74)">
<stop offset="0.53" stop-color="white"/>
<stop offset="0.65" stop-color="#EEC2E0"/>
<stop offset="0.92" stop-color="#C42C93"/>
<stop offset="1" stop-color="#B8007D"/>
</radialGradient>
<radialGradient id="paint17_radial_4_5" cx="0" cy="0" r="1" gradientUnits="userSpaceOnUse" gradientTransform="translate(6.94002 2.83001) scale(30.96)">
<stop stop-color="#D42600"/>
<stop offset="1"/>
</radialGradient>
<radialGradient id="paint18_radial_4_5" cx="0" cy="0" r="1" gradientUnits="userSpaceOnUse" gradientTransform="translate(10.08 3.22) scale(23.12 23.12)">
<stop stop-color="#FFDEDE"/>
<stop offset="1"/>
</radialGradient>
<radialGradient id="paint19_radial_4_5" cx="0" cy="0" r="1" gradientUnits="userSpaceOnUse" gradientTransform="translate(22.33 22.17) scale(14.37 14.37)">
<stop stop-color="#FF7152"/>
<stop offset="1"/>
</radialGradient>
</defs>
</svg>
