<svg width="37" height="39" viewBox="0 0 37 39" fill="none" xmlns="http://www.w3.org/2000/svg">
<g clip-path="url(#clip0_5_403)">
<path fill-rule="evenodd" clip-rule="evenodd" d="M31.4291 5.16538C37.6656 9.91062 38.8734 19.9696 33.968 28.5209C29.0626 37.0722 19.7695 41.0513 12.547 37.9867C10.6736 37.1958 8.99734 36.3555 7.00067 35.1939L16.6389 18.462L26.2525 1.75473C28.2492 2.91633 29.8268 3.95435 31.4291 5.19009V5.16538Z" fill="url(#paint0_linear_5_403)"/>
<path style="mix-blend-mode:screen" fill-rule="evenodd" clip-rule="evenodd" d="M31.2318 7.43916C35.5456 10.7262 37 18.0171 34.4364 24.3935C31.8728 30.7452 26.2032 33.9335 21.3964 31.9316C20.1392 31.4125 19.0053 30.8441 17.6496 30.0532L22.6536 17.5722L27.6576 5.09125C29.0133 5.88212 30.0979 6.57414 31.2072 7.43916H31.2318Z" fill="url(#paint1_radial_5_403)"/>
<path style="mix-blend-mode:multiply" fill-rule="evenodd" clip-rule="evenodd" d="M31.8481 7.09314C37.1726 11.1464 38.3311 19.8954 34.3378 27.4087C30.6156 34.3783 23.6642 37.962 17.7975 36.3802C14.0753 37.4182 10.2545 37.1217 6.97602 35.2186C8.97269 36.3802 10.6489 37.2205 12.5223 38.0114C19.7448 41.0513 29.038 37.0722 33.9434 28.5456C38.8488 20.019 37.6409 9.96006 31.4044 5.1901C29.8021 3.95435 28.2245 2.91633 26.2525 1.77945C28.2245 2.91633 29.7775 4.5228 30.936 6.42584C31.2318 6.64827 31.5277 6.8707 31.8481 7.09314Z" fill="url(#paint2_radial_5_403)"/>
<g style="mix-blend-mode:screen">
<path fill-rule="evenodd" clip-rule="evenodd" d="M27.3371 2.52091C34.4117 6.62357 35.9893 17.1768 30.8374 26.1236C25.6855 35.0703 15.7762 39 8.70154 34.8973C1.60227 30.8194 0.0493033 20.2414 5.2012 11.2947C10.3531 2.34791 20.2625 -1.58175 27.3371 2.52091Z" fill="#FCCE3A"/>
</g>
<path fill-rule="evenodd" clip-rule="evenodd" d="M26.2525 1.75474C33.7462 6.07984 35.4963 17.0779 30.1719 26.3213C24.8474 35.5646 14.4697 39.5437 7.00067 35.2186C-0.493001 30.8688 -2.24317 19.8707 3.08128 10.6274C8.40573 1.40874 18.7835 -2.57035 26.2525 1.75474Z" fill="url(#paint3_radial_5_403)"/>
<g style="mix-blend-mode:screen">
<path fill-rule="evenodd" clip-rule="evenodd" d="M18.537 31.981C18.4384 32.4011 18.044 32.7719 17.5263 32.9201C17.0826 33.0437 16.6143 32.9696 16.3185 32.7224C14.0753 33.2414 11.8075 33.0932 9.76149 32.1293C3.82079 29.3612 1.89807 20.884 5.4477 13.2471C7.39507 9.07034 10.575 5.98098 14.026 4.49809C14.0506 4.0038 14.4697 3.53421 15.0859 3.36121C15.6529 3.21292 16.1952 3.36121 16.491 3.70722C17.2798 3.55893 18.0933 3.48478 18.8821 3.5095C19.0546 3.23764 19.449 3.08935 19.8434 3.16349C20.1885 3.23764 20.435 3.43535 20.5583 3.70722C21.2732 3.85551 21.988 4.07794 22.6782 4.39923C28.6189 7.16729 30.5416 15.6445 26.992 23.2814C25.0693 27.4087 21.9634 30.4487 18.5616 31.9563L18.537 31.981Z" fill="#FFFCE4"/>
</g>
<path fill-rule="evenodd" clip-rule="evenodd" d="M23.6889 5.1654C29.2845 8.40305 30.443 16.8802 26.3018 24.097C22.1359 31.3137 14.2478 34.5266 8.65223 31.289C3.05663 28.0513 1.89807 19.5742 6.03931 12.3574C10.2052 5.14069 18.0933 1.92776 23.6889 5.1654Z" fill="url(#paint4_radial_5_403)"/>
<path style="mix-blend-mode:multiply" opacity="0.5" fill-rule="evenodd" clip-rule="evenodd" d="M9.09594 15.2243C13.04 8.40303 20.509 5.33839 25.8088 8.40303C26.573 8.8479 27.2385 9.39162 27.8301 10.0095C26.992 7.95816 25.5869 6.25284 23.6889 5.16539C18.0933 1.92775 10.1805 5.16539 6.03931 12.3574C1.87342 19.5741 3.05663 28.0513 8.65223 31.289C9.04664 31.5114 9.46569 31.7338 9.9094 31.8821C6.08861 28.2243 5.62026 21.2547 9.09594 15.1996V15.2243Z" fill="url(#paint5_radial_5_403)"/>
<path fill-rule="evenodd" clip-rule="evenodd" d="M7.88808 13.4201C11.6842 6.82128 18.6356 3.55892 24.0833 5.53611C24.2558 5.61025 24.4284 5.65968 24.6009 5.73382C24.453 5.63497 24.3051 5.51139 24.1572 5.41253C24.0093 5.31367 23.8614 5.23953 23.7135 5.14067C18.1179 1.90303 10.2052 5.14067 6.06396 12.3327C1.89807 19.5494 3.08128 28.0266 8.67689 31.2642C8.82479 31.3631 8.97269 31.4372 9.12059 31.5114C9.29314 31.5855 9.44104 31.6844 9.61359 31.7338C9.46569 31.635 9.31779 31.5114 9.16989 31.3878C4.73285 27.6559 4.09194 19.9943 7.88808 13.3954V13.4201Z" fill="url(#paint6_linear_5_403)"/>
<path style="mix-blend-mode:multiply" fill-rule="evenodd" clip-rule="evenodd" d="M20.1639 4.99238C21.5197 4.91824 22.8261 5.09124 24.0833 5.56083C24.2558 5.63497 24.4284 5.6844 24.6009 5.75854C24.453 5.65968 24.3051 5.53611 24.1572 5.43725C24.0093 5.33839 23.8614 5.26425 23.7135 5.16539C18.1179 1.92775 10.2052 5.16539 6.06396 12.3574C1.89807 19.5741 3.08128 28.0513 8.67689 31.289C8.82479 31.3878 8.97269 31.462 9.12059 31.5361C9.29314 31.6103 9.44104 31.7091 9.61359 31.7585C9.46569 31.6597 9.31779 31.5361 9.16989 31.4125C8.47968 30.8441 7.88808 30.1768 7.39507 29.4353C3.27848 25.9753 2.58828 18.808 6.03931 12.6293C9.31779 6.74714 15.2585 3.6825 20.1639 4.99238Z" fill="url(#paint7_radial_5_403)"/>
<path style="mix-blend-mode:screen" fill-rule="evenodd" clip-rule="evenodd" d="M24.946 8.30416C15.0366 3.78135 5.76816 16.7319 7.12392 25.0855C12.6209 23.0342 21.7415 18.5361 24.946 8.27945V8.30416Z" fill="url(#paint8_radial_5_403)"/>
</g>
<g filter="url(#filter0_i_5_403)">
<path d="M14.9384 24V13.0909H22.3852V15.2322H17.5752V17.4695H21.9111V19.6161H17.5752V24H14.9384Z" fill="#E14400"/>
<path d="M14.1128 19.0888H22.8805V20.1115H14.1128V19.0888Z" fill="#E14400"/>
</g>
<defs>
<filter id="filter0_i_5_403" x="14.9384" y="13.0909" width="7.44673" height="11.9091" filterUnits="userSpaceOnUse" color-interpolation-filters="sRGB">
<feFlood flood-opacity="0" result="BackgroundImageFix"/>
<feBlend mode="normal" in="SourceGraphic" in2="BackgroundImageFix" result="shape"/>
<feColorMatrix in="SourceAlpha" type="matrix" values="0 0 0 0 0 0 0 0 0 0 0 0 0 0 0 0 0 0 127 0" result="hardAlpha"/>
<feOffset dy="1"/>
<feGaussianBlur stdDeviation="0.5"/>
<feComposite in2="hardAlpha" operator="arithmetic" k2="-1" k3="1"/>
<feColorMatrix type="matrix" values="0 0 0 0 0 0 0 0 0 0 0 0 0 0 0 0 0 0 0.2 0"/>
<feBlend mode="normal" in2="shape" result="effect1_innerShadow_5_403"/>
</filter>
<linearGradient id="paint0_linear_5_403" x1="15.6529" y1="40.2357" x2="35.0051" y2="6.81571" gradientUnits="userSpaceOnUse">
<stop stop-color="#E86F0C"/>
<stop offset="0.69" stop-color="#FC940D"/>
<stop offset="1" stop-color="#E86F0C"/>
</linearGradient>
<radialGradient id="paint1_radial_5_403" cx="0" cy="0" r="1" gradientUnits="userSpaceOnUse" gradientTransform="translate(22.7275 17.8935) scale(18.0933 18.1407)">
<stop stop-color="#FFF369"/>
<stop offset="0.11" stop-color="#FAEE67"/>
<stop offset="0.23" stop-color="#ECE161"/>
<stop offset="0.36" stop-color="#D6CC58"/>
<stop offset="0.5" stop-color="#B6AE4B"/>
<stop offset="0.64" stop-color="#8E873A"/>
<stop offset="0.78" stop-color="#5C5826"/>
<stop offset="0.92" stop-color="#22210E"/>
<stop offset="1"/>
</radialGradient>
<radialGradient id="paint2_radial_5_403" cx="0" cy="0" r="1" gradientUnits="userSpaceOnUse" gradientTransform="translate(13.2372 16.6578) scale(26.2525 26.3213)">
<stop offset="0.51" stop-color="white"/>
<stop offset="0.68" stop-color="#E5DCC2"/>
<stop offset="1" stop-color="#B09444"/>
</radialGradient>
<radialGradient id="paint3_radial_5_403" cx="0" cy="0" r="1" gradientUnits="userSpaceOnUse" gradientTransform="translate(9.71219 1.06273) scale(33.6722 33.7605)">
<stop stop-color="#FCF80D"/>
<stop offset="1" stop-color="#FC9C0D"/>
</radialGradient>
<radialGradient id="paint4_radial_5_403" cx="0" cy="0" r="1" gradientUnits="userSpaceOnUse" gradientTransform="translate(0.02465 -2.27376) scale(41.1412 41.249)">
<stop stop-color="#FCF80D"/>
<stop offset="1" stop-color="#F78A0C"/>
</radialGradient>
<radialGradient id="paint5_radial_5_403" cx="0" cy="0" r="1" gradientUnits="userSpaceOnUse" gradientTransform="translate(22.974 21.3536) scale(23.7628 23.8251)">
<stop offset="0.51" stop-color="white"/>
<stop offset="0.69" stop-color="#FFE1C2"/>
<stop offset="1" stop-color="#FFA84B"/>
</radialGradient>
<linearGradient id="paint6_linear_5_403" x1="4.04264" y1="28.6198" x2="18.9157" y2="2.92533" gradientUnits="userSpaceOnUse">
<stop stop-color="#FC940D"/>
<stop offset="1" stop-color="#E86F0C"/>
</linearGradient>
<radialGradient id="paint7_radial_5_403" cx="0" cy="0" r="1" gradientUnits="userSpaceOnUse" gradientTransform="translate(23.3931 22.3669) scale(23.048 23.1084)">
<stop offset="0.51" stop-color="white"/>
<stop offset="0.68" stop-color="#E5DCC2"/>
<stop offset="1" stop-color="#B09444"/>
</radialGradient>
<radialGradient id="paint8_radial_5_403" cx="0" cy="0" r="1" gradientUnits="userSpaceOnUse" gradientTransform="translate(-0.764153 -1.8042) scale(30.6402 30.7205)">
<stop stop-color="#FFF369"/>
<stop offset="0.11" stop-color="#FAEE67"/>
<stop offset="0.23" stop-color="#ECE161"/>
<stop offset="0.36" stop-color="#D6CC58"/>
<stop offset="0.5" stop-color="#B6AE4B"/>
<stop offset="0.64" stop-color="#8E873A"/>
<stop offset="0.78" stop-color="#5C5826"/>
<stop offset="0.92" stop-color="#22210E"/>
<stop offset="1"/>
</radialGradient>
<clipPath id="clip0_5_403">
<rect width="37" height="39" fill="white"/>
</clipPath>
</defs>
</svg>
