<svg width="120" height="112" viewBox="0 0 120 112" fill="none" xmlns="http://www.w3.org/2000/svg">
<path d="M119.467 34.7688C119.467 34.7688 99.9569 67.3146 91.9623 76.7132C89.6404 79.4555 86.6672 82.1081 83.2179 84.475C71.9783 92.2089 55.6727 96.9171 39.8285 91.7046C39.2021 91.5194 38.5942 91.3149 37.9852 91.0838L40.388 90.0527L70.7925 76.9759L100.656 39.5368L119.467 34.7688Z" fill="url(#paint0_linear_7_2138)"/>
<path d="M49.0536 19.9653L67.4317 17.317C67.4317 17.317 54.5968 46.0421 52.9908 57.4979C52.062 64.0904 55.2111 72.9659 73.2752 62.0849L48.3512 86.6288L28.794 65.618L49.0394 19.973L49.0536 19.9653Z" fill="url(#paint1_linear_7_2138)"/>
<path d="M100.641 39.5446L83.0015 71.2773C80.051 76.5643 76.2859 80.9776 72.0257 84.4153C72.0257 84.4153 72.0257 84.4153 71.9887 84.4537C68.5136 87.2441 64.7216 89.389 60.7894 90.8375C53.225 93.625 45.1666 93.8356 37.9667 91.103C36.9255 90.7078 35.9061 90.2553 34.9325 89.7414C21.2647 82.7028 13.2852 65.2066 17.3972 46.4965C17.419 46.4391 17.408 46.4087 17.408 46.4087L25.2635 10.9362L49.0536 19.9653L38.1127 54.2406C36.1079 60.5298 38.0123 66.911 42.3236 70.2671C43.2079 70.9572 44.1837 71.5245 45.2445 71.9272C51.5309 74.3131 59.0991 70.6867 62.3154 63.4263L76.8709 30.5229L100.651 39.5483L100.641 39.5446Z" fill="url(#paint2_linear_7_2138)"/>
<path d="M76.8709 30.5229L94.8457 25.621L119.467 34.7687L100.641 39.5445L76.8709 30.5229Z" fill="url(#paint3_linear_7_2138)"/>
<path d="M100.641 39.5446L83.0015 71.2774C72.9962 89.2605 53.4808 96.978 37.971 91.0915C36.9299 90.6964 35.9104 90.2439 34.9368 89.7299L42.3192 70.2786C43.2035 70.9687 44.1794 71.536 45.2402 71.9387C51.5266 74.3245 59.0947 70.6982 62.311 63.4378L76.8666 30.5344L100.647 39.5598L100.641 39.5446Z" fill="url(#paint4_linear_7_2138)"/>
<path d="M67.436 17.3056L63.4246 17.8969L49.0536 19.9653L25.2635 10.9362C25.2635 10.9362 25.3115 10.9282 25.4032 10.9236L25.7981 10.8897L28.3216 10.6658C28.5049 10.6566 28.6969 10.6244 28.8998 10.6227L42.7434 9.35183L67.4415 17.3208L67.436 17.3056Z" fill="url(#paint5_linear_7_2138)"/>
<path d="M76.8709 30.5229L71.5471 42.5369L93.0014 53.279L100.641 39.5446L76.8709 30.5229Z" fill="url(#paint6_linear_7_2138)"/>
<path d="M119.467 34.7688L110.945 48.4308L93.0014 53.279L100.641 39.5445L119.467 34.7688Z" fill="url(#paint7_linear_7_2138)"/>
<path d="M45.2866 31.7562L22.2279 24.6195L25.2635 10.9362L49.0536 19.9653L45.2866 31.7562Z" fill="url(#paint8_linear_7_2138)"/>
<path d="M67.436 17.3056L66.0367 20.7262L61.3953 32.0671L45.2865 31.7562L49.0536 19.9653L63.4246 17.8969L67.436 17.3056Z" fill="url(#paint9_linear_7_2138)"/>
<path d="M42.3137 70.2634L55.4163 65.9412C55.4163 65.9412 58.0404 67.436 60.0259 67.1787C60.0259 67.1787 53.2591 77.0433 42.3235 70.2672L42.3137 70.2634Z" fill="url(#paint10_linear_7_2138)"/>
<g style="mix-blend-mode:multiply" opacity="0.5">
<path d="M102.007 40.0628C99.4092 40.4817 78.3662 79.1677 78.0334 81.9691C77.7006 84.7705 87.839 79.3757 94.4014 71.7967C100.964 64.2176 116.53 39.3389 116.753 37.362C116.975 35.3851 102.021 40.055 102.021 40.055L102.007 40.0628Z" fill="#912790"/>
</g>
<g style="mix-blend-mode:multiply" opacity="0.5">
<path d="M50.5663 20.5394C47.8161 21.1236 39.6466 54.0481 39.5353 58.2202C39.4239 62.3922 47.6752 60.3117 50.4568 58.1641C53.2385 56.0164 63.6723 24.8834 65.5977 20.2839C67.5188 15.6959 50.5663 20.5394 50.5663 20.5394Z" fill="#912790"/>
</g>
<g style="mix-blend-mode:soft-light" opacity="0.5">
<path d="M75.0133 38.1415C80.0754 33.3014 96.0501 40.9529 96.5359 42.634C97.0173 44.3265 82.6896 72.8394 75.4853 79.978C68.2713 87.1128 57.24 90.5669 52.4127 87.2381C47.5854 83.9094 59.3651 71.8511 63.7128 63.2083C68.0606 54.5656 74.1912 38.9454 75.0187 38.1567L75.0133 38.1415Z" fill="white"/>
</g>
<g style="mix-blend-mode:soft-light" opacity="0.5">
<path d="M26.2277 17.6039C31.8151 13.4227 46.5298 19.7164 46.4812 23.1902C46.4326 26.664 34.7699 51.7378 35.8644 61.7633C36.9589 71.7889 34.9634 84.5672 32.0212 85.1836C29.0791 85.7999 16.8242 67.4293 18.1577 52.2204C19.4912 37.0115 26.2277 17.6039 26.2277 17.6039Z" fill="white"/>
</g>
<g style="mix-blend-mode:multiply" opacity="0.5">
<path d="M39.8143 91.7124C39.1879 91.5271 38.58 91.3227 37.971 91.0916C36.9298 90.6964 35.9104 90.2438 34.9368 89.7299C21.269 82.6914 13.2896 65.1951 17.4015 46.485C17.1792 48.2256 13.8863 76.3841 35.2113 87.7335C36.9861 88.6828 38.7051 89.4534 40.3837 90.0642C48.5428 93.0821 55.5077 92.4958 60.8036 90.8297C67.5306 88.709 71.5711 84.8729 72.0028 84.446C72.0159 84.4116 72.0399 84.4075 72.0399 84.4075C72.0399 84.4075 72.439 89.6923 83.2179 84.4751C71.9826 92.1974 55.6726 96.9171 39.8285 91.7046L39.8143 91.7124Z" fill="#912774"/>
</g>
<g style="mix-blend-mode:multiply" opacity="0.5">
<path d="M49.1973 22.3699C47.3613 25.5198 44.0717 39.6056 45.6352 42.444C47.1988 45.2824 62.9189 25.5952 64.0244 21.6167C65.1298 17.6381 51.2142 18.921 49.1973 22.3699Z" fill="#912790"/>
</g>
<g style="mix-blend-mode:soft-light" opacity="0.8">
<path d="M38.8113 65.9014C36.8088 59.7192 57.032 68.5236 57.7187 69.1125C58.4011 69.7128 45.5177 78.1357 38.8113 65.9014Z" fill="white"/>
</g>
<g style="mix-blend-mode:multiply" opacity="0.5">
<path d="M24.6718 54.1544C22.1078 52.7087 18.8621 48.8248 19.5604 45.9784C19.5919 45.8065 19.6485 45.6573 19.7051 45.5082C21.5369 41.0963 25.9807 38.1222 29.1508 37.5267C32.1389 36.9672 32.0767 42.6677 30.2361 48.376L30.2231 48.4104C30.1251 48.7277 30.013 49.0527 29.891 49.374C27.7157 55.4016 27.3745 55.6791 24.686 54.1467L24.6718 54.1544Z" fill="#A34AA2"/>
</g>
<g style="mix-blend-mode:multiply" opacity="0.5">
<path d="M30.6969 55.8373C30.4704 56.434 30.1402 56.9783 29.7814 57.1834C29.1729 57.5433 28.7618 56.4945 28.5365 55.7263C28.5365 55.7263 28.5365 55.7263 28.5408 55.7148C28.5408 55.7148 28.5342 55.6729 28.5233 55.6425C28.4259 55.2773 28.3755 54.9956 28.3755 54.9956C28.3733 53.5506 30.4497 53.6166 30.932 53.7078C31.2343 53.77 31.0769 54.8656 30.6969 55.8373Z" fill="#A34AA2"/>
</g>
<g style="mix-blend-mode:multiply" opacity="0.5">
<path d="M30.222 48.3837C30.4869 46.7381 31.6459 38.5918 28.2829 38.2739C24.6581 37.9353 19.8021 46.7922 19.5604 45.9784C19.5919 45.8065 19.6485 45.6573 19.7051 45.5082C21.5369 41.0963 25.9807 38.1222 29.1508 37.5267C32.1389 36.9672 32.0767 42.6677 30.2361 48.376L30.222 48.3837Z" fill="#912790"/>
</g>
<g style="mix-blend-mode:multiply" opacity="0.5">
<path d="M30.6969 55.8372C30.7034 55.7609 30.8486 54.49 30.7949 54.2465C30.7314 53.9992 30.1137 53.6728 29.1288 54.1655C28.3664 54.5458 28.4685 55.3722 28.5135 55.6387C28.4161 55.2735 28.3657 54.9918 28.3657 54.9918C28.3635 53.5469 30.4398 53.6128 30.9222 53.704C31.2244 53.7662 31.0671 54.8618 30.687 55.8335L30.6969 55.8372Z" fill="#912790"/>
</g>
<g style="mix-blend-mode:soft-light">
<path d="M37.6226 62.4307C37.6226 62.4307 37.4813 67.274 42.4721 71.8596C47.4629 76.4451 55.959 70.729 55.959 70.729C55.959 70.729 50.1631 74.7786 42.9947 70.4825C38.087 67.5433 37.6226 62.4307 37.6226 62.4307Z" fill="white"/>
</g>
<defs>
<linearGradient id="paint0_linear_7_2138" x1="64.2462" y1="101.064" x2="93.1921" y2="24.7965" gradientUnits="userSpaceOnUse">
<stop stop-color="#DE0057"/>
<stop offset="1" stop-color="#83003B"/>
</linearGradient>
<linearGradient id="paint1_linear_7_2138" x1="43.1497" y1="84.6415" x2="68.5416" y2="17.7383" gradientUnits="userSpaceOnUse">
<stop stop-color="#3D069A"/>
<stop offset="1" stop-color="#6509BA"/>
</linearGradient>
<linearGradient id="paint2_linear_7_2138" x1="37.9612" y1="91.0878" x2="62.9525" y2="25.2404" gradientUnits="userSpaceOnUse">
<stop stop-color="#512EFF"/>
<stop offset="1" stop-color="#7C1ACC"/>
</linearGradient>
<linearGradient id="paint3_linear_7_2138" x1="96.1918" y1="37.8558" x2="100.146" y2="27.4359" gradientUnits="userSpaceOnUse">
<stop stop-color="#F8E1F2"/>
<stop offset="1" stop-color="#E5EAFF"/>
</linearGradient>
<linearGradient id="paint4_linear_7_2138" x1="55.2586" y1="97.6528" x2="80.2499" y2="31.8053" gradientUnits="userSpaceOnUse">
<stop stop-color="#DE0086"/>
<stop offset="1" stop-color="#FF003B"/>
</linearGradient>
<linearGradient id="paint5_linear_7_2138" x1="48.7061" y1="7.91256" x2="47.9482" y2="9.90933" gradientUnits="userSpaceOnUse">
<stop stop-color="#F8E1F2"/>
<stop offset="1" stop-color="#E5EAFF"/>
</linearGradient>
<linearGradient id="paint6_linear_7_2138" x1="73.4417" y1="37.545" x2="97.88" y2="46.8201" gradientUnits="userSpaceOnUse">
<stop stop-color="#F2C6E6"/>
<stop offset="1" stop-color="#E3C2D6"/>
</linearGradient>
<linearGradient id="paint7_linear_7_2138" x1="110.781" y1="31.6296" x2="101.789" y2="56.4547" gradientUnits="userSpaceOnUse">
<stop stop-color="#BD9BB5"/>
<stop offset="1" stop-color="#9F819E"/>
</linearGradient>
<linearGradient id="paint8_linear_7_2138" x1="22.8028" y1="17.42" x2="47.2117" y2="26.6839" gradientUnits="userSpaceOnUse">
<stop stop-color="#F2C6E6"/>
<stop offset="1" stop-color="#E3C2D6"/>
</linearGradient>
<linearGradient id="paint9_linear_7_2138" x1="59.7462" y1="14.5315" x2="52.5638" y2="34.3854" gradientUnits="userSpaceOnUse">
<stop stop-color="#BD9BB5"/>
<stop offset="1" stop-color="#9F819E"/>
</linearGradient>
<linearGradient id="paint10_linear_7_2138" x1="49.4211" y1="73.3285" x2="52.7966" y2="64.4349" gradientUnits="userSpaceOnUse">
<stop stop-color="#A10048"/>
<stop offset="1" stop-color="#83003B"/>
</linearGradient>
</defs>
</svg>
