<svg width="18" height="18" viewBox="0 0 18 18" fill="none" xmlns="http://www.w3.org/2000/svg">
<path fill-rule="evenodd" clip-rule="evenodd" d="M8.99415 18C13.7068 17.9943 18.2947 13.7824 17.9885 8.99716C17.6766 4.2176 13.962 0 8.99415 0C4.02628 0 -0.0965898 3.55913 -0.000181459 9.00284C0.0962269 14.4465 4.27581 18.0114 8.99415 18.0057V18Z" fill="url(#paint0_radial_5_372)"/>
<path style="mix-blend-mode:screen" fill-rule="evenodd" clip-rule="evenodd" d="M15.4197 9.33775C15.6975 9.33775 15.9981 9.58184 15.9981 9.85999C15.9981 10.1381 15.7316 10.3595 15.4594 10.3595C15.1871 10.3595 14.9433 10.1268 14.9603 9.85999C14.9773 9.59319 15.1474 9.33775 15.4197 9.33775ZM15.397 9.37181C15.6238 9.37181 15.8733 9.57616 15.8733 9.80322C15.8733 10.0303 15.6522 10.2176 15.4253 10.2176C15.1985 10.2176 15 10.0246 15.0113 9.80322C15.0227 9.58184 15.1645 9.37181 15.3913 9.37181H15.397ZM15.5104 9.46831C15.5898 9.54778 15.5501 9.67266 15.4367 9.78052C15.3232 9.88837 15.1928 9.94513 15.1134 9.86566C15.034 9.78619 15.0567 9.61022 15.1701 9.50237C15.2779 9.39452 15.431 9.38884 15.5104 9.46831ZM15.811 9.72375C15.8507 9.7351 15.8677 9.91107 15.7486 10.0473C15.6295 10.1835 15.4367 10.1779 15.431 10.1268C15.431 10.0757 15.5728 10.0814 15.6749 9.97919C15.7826 9.87134 15.7713 9.71807 15.811 9.72375Z" fill="url(#paint1_radial_5_372)"/>
<path style="mix-blend-mode:screen" opacity="0.7" fill-rule="evenodd" clip-rule="evenodd" d="M7.73535 13.5213C7.96786 13.5213 8.22306 13.7257 8.22306 13.9584C8.22306 14.1911 8.00189 14.3784 7.76938 14.3784C7.53686 14.3784 7.3327 14.1854 7.34972 13.9584C7.36106 13.7313 7.50851 13.5213 7.74102 13.5213H7.73535ZM7.71834 13.5497C7.91115 13.5497 8.12098 13.72 8.12098 13.913C8.12098 14.106 7.93384 14.2592 7.74102 14.2592C7.5482 14.2592 7.38374 14.0946 7.39509 13.913C7.40643 13.7257 7.52552 13.5497 7.71834 13.5497ZM7.81475 13.6292C7.8828 13.6973 7.84877 13.7994 7.75236 13.8959C7.65596 13.9924 7.5482 14.0322 7.48015 13.9641C7.4121 13.8959 7.43478 13.7484 7.52552 13.6575C7.61626 13.5667 7.74669 13.561 7.81475 13.6292ZM8.06994 13.8449C8.10397 13.8505 8.12098 14.0038 8.01323 14.1173C7.91115 14.2309 7.74669 14.2309 7.74669 14.1854C7.74669 14.14 7.86579 14.1457 7.95652 14.0606C8.04726 13.9754 8.03592 13.8392 8.06994 13.8449Z" fill="url(#paint2_radial_5_372)"/>
<path style="mix-blend-mode:screen" opacity="0.6" fill-rule="evenodd" clip-rule="evenodd" d="M6.24386 15.4683C6.49905 15.4683 6.77694 15.6954 6.77694 15.9451C6.77694 16.1949 6.53308 16.4049 6.27788 16.4049C6.02268 16.4049 5.80151 16.1892 5.81853 15.9451C5.83554 15.701 5.98866 15.4683 6.24386 15.4683ZM6.22117 15.4967C6.431 15.4967 6.66352 15.684 6.66352 15.894C6.66352 16.1041 6.45936 16.2744 6.24953 16.2744C6.0397 16.2744 5.85822 16.0984 5.86956 15.894C5.88091 15.6897 6.01134 15.4967 6.22117 15.4967ZM6.32325 15.5875C6.39697 15.6613 6.35728 15.7748 6.2552 15.877C6.15312 15.9792 6.02835 16.0303 5.95463 15.9565C5.88091 15.8827 5.90359 15.7237 6.00567 15.6216C6.10775 15.5194 6.24386 15.5137 6.32325 15.5932V15.5875ZM6.60113 15.8259C6.63516 15.8316 6.65217 16.0019 6.54442 16.1268C6.43667 16.2517 6.2552 16.246 6.24953 16.2006C6.24953 16.1552 6.37996 16.1608 6.47637 16.0643C6.57278 15.9678 6.56711 15.8202 6.60113 15.8316V15.8259Z" fill="url(#paint3_radial_5_372)"/>
<path style="mix-blend-mode:screen" fill-rule="evenodd" clip-rule="evenodd" d="M3.40264 5.64807C3.76559 5.64807 4.16824 5.97163 4.16824 6.33492C4.16824 6.69821 3.81663 6.99339 3.45368 6.99339C3.09073 6.99339 2.77315 6.68686 2.79584 6.33492C2.81852 5.98298 3.03969 5.64807 3.40831 5.64807H3.40264ZM3.37429 5.69348C3.67486 5.69348 4.00945 5.96028 4.00945 6.26113C4.00945 6.56198 3.72022 6.80607 3.41966 6.80607C3.11909 6.80607 2.85822 6.55063 2.87523 6.26113C2.89225 5.96595 3.07939 5.69348 3.37996 5.69348H3.37429ZM3.52741 5.81836C3.63516 5.92622 3.57845 6.08516 3.431 6.23274C3.28355 6.38033 3.10775 6.44845 3 6.34627C2.89225 6.23842 2.92627 6.01136 3.07372 5.86378C3.22117 5.71619 3.41966 5.71051 3.52741 5.81836ZM3.92438 6.15895C3.97542 6.1703 3.99811 6.40871 3.83932 6.59036C3.68053 6.76633 3.42533 6.76633 3.41966 6.69821C3.41399 6.6301 3.6068 6.64145 3.74291 6.49954C3.87901 6.35763 3.87334 6.15327 3.92438 6.16463V6.15895Z" fill="url(#paint4_radial_5_372)"/>
<path style="mix-blend-mode:screen" opacity="0.6" fill-rule="evenodd" clip-rule="evenodd" d="M13.7637 5.78998C13.9962 5.77862 14.172 5.93189 14.172 6.13056C14.172 6.32924 13.9792 6.49385 13.7694 6.48818C13.5595 6.47682 13.4008 6.32924 13.4121 6.13056C13.4234 5.93189 13.5369 5.807 13.7694 5.79565L13.7637 5.78998ZM13.7297 5.82403C13.9225 5.81268 14.0643 5.93756 14.0643 6.10218C14.0643 6.2668 13.9055 6.40303 13.7354 6.39168C13.5652 6.38033 13.4348 6.26112 13.4405 6.0965C13.4461 5.93189 13.5425 5.82971 13.7297 5.82403ZM13.7921 5.88647C13.8488 5.94324 13.8204 6.04542 13.741 6.12489C13.6616 6.20436 13.5652 6.23274 13.5085 6.17597C13.4518 6.11921 13.4688 6.00568 13.5312 5.93756C13.5879 5.86945 13.7354 5.83539 13.7977 5.89215L13.7921 5.88647ZM14.0132 6.02839C14.0416 6.03406 14.0586 6.1703 13.9622 6.27247C13.8715 6.37465 13.7297 6.36897 13.724 6.33491C13.7183 6.30086 13.8318 6.30086 13.9112 6.22138C13.9906 6.14191 13.9849 6.02271 14.0132 6.02839Z" fill="url(#paint5_radial_5_372)"/>
<path style="mix-blend-mode:screen" opacity="0.6" fill-rule="evenodd" clip-rule="evenodd" d="M1.12287 10.1665C1.45747 10.1495 1.70699 10.3652 1.70699 10.6547C1.70699 10.9442 1.42911 11.1769 1.12854 11.1656C0.827976 11.1485 0.601133 10.9328 0.612476 10.649C0.629489 10.3652 0.788279 10.1892 1.12287 10.1665ZM1.0775 10.2119C1.34972 10.1949 1.55387 10.3765 1.55387 10.6093C1.55387 10.842 1.32703 11.0407 1.0775 11.0293C0.833647 11.018 0.646502 10.842 0.657844 10.6093C0.669186 10.3765 0.805292 10.229 1.0775 10.2176V10.2119ZM1.16824 10.3028C1.25331 10.3879 1.20794 10.5298 1.09452 10.6433C0.981095 10.7569 0.839319 10.7966 0.759924 10.7115C0.674857 10.6263 0.708884 10.4617 0.788279 10.3652C0.873345 10.2687 1.08317 10.2176 1.16824 10.3028ZM1.48582 10.5071C1.52552 10.5185 1.5482 10.7115 1.41777 10.8534C1.28733 10.9953 1.08317 10.9953 1.0775 10.9385C1.07183 10.8817 1.23062 10.8931 1.34404 10.7796C1.45747 10.666 1.44612 10.4957 1.49149 10.5071H1.48582Z" fill="url(#paint6_radial_5_372)"/>
<path style="mix-blend-mode:screen" opacity="0.4" fill-rule="evenodd" clip-rule="evenodd" d="M3.9017 13.8789C4.23629 13.8619 4.49149 14.0833 4.49149 14.3728C4.49149 14.6623 4.20794 14.9007 3.90737 14.8893C3.6068 14.8723 3.37429 14.6566 3.38563 14.3671C3.39697 14.0776 3.5671 13.9016 3.9017 13.8789ZM3.85633 13.9243C4.13421 13.9073 4.33837 14.0889 4.33837 14.3273C4.33837 14.5658 4.10586 14.7644 3.85633 14.7531C3.6068 14.7417 3.41966 14.5601 3.431 14.3273C3.44234 14.0889 3.57845 13.947 3.85633 13.93V13.9243ZM3.95274 14.0151C4.0378 14.1003 3.99243 14.2422 3.87901 14.3557C3.76559 14.4693 3.62381 14.509 3.53875 14.4295C3.45368 14.3444 3.48204 14.1798 3.5671 14.0776C3.65217 13.9754 3.86767 13.93 3.94707 14.0151H3.95274ZM4.27599 14.2252C4.32136 14.2365 4.33837 14.4295 4.20794 14.5771C4.0775 14.7247 3.86767 14.719 3.862 14.6623C3.862 14.6055 4.01512 14.6112 4.12854 14.4976C4.24196 14.3841 4.23629 14.2081 4.27599 14.2195V14.2252Z" fill="url(#paint7_radial_5_372)"/>
<path style="mix-blend-mode:screen" opacity="0.4" fill-rule="evenodd" clip-rule="evenodd" d="M9.73724 0.749297C9.99244 0.732268 10.1853 0.902561 10.1853 1.12394C10.1853 1.34532 9.96975 1.52697 9.74291 1.51562C9.51607 1.50426 9.33459 1.33965 9.34593 1.11827C9.35727 0.896885 9.48204 0.76065 9.73724 0.749297ZM9.70321 0.783356C9.91304 0.772003 10.0718 0.908238 10.0718 1.08988C10.0718 1.27153 9.89603 1.41912 9.70888 1.41344C9.52174 1.40776 9.37429 1.26585 9.38563 1.08988C9.39697 0.908238 9.49905 0.800385 9.70888 0.783356H9.70321ZM9.77693 0.851473C9.83932 0.913914 9.80529 1.02744 9.72022 1.11259C9.63516 1.19774 9.52741 1.23179 9.45935 1.16935C9.39697 1.10691 9.41966 0.976355 9.48204 0.902561C9.54442 0.828768 9.70888 0.789032 9.77126 0.851473H9.77693ZM10.0208 1.01041C10.0548 1.01609 10.0662 1.16935 9.96975 1.27721C9.86767 1.39074 9.70888 1.38506 9.70888 1.34532C9.70888 1.29991 9.82797 1.31127 9.91304 1.22044C9.99811 1.1353 9.99244 1.00474 10.0265 1.01041H10.0208Z" fill="url(#paint8_radial_5_372)"/>
<path style="mix-blend-mode:screen" opacity="0.4" fill-rule="evenodd" clip-rule="evenodd" d="M11.9263 13.4645C12.1645 13.4532 12.3459 13.6064 12.3459 13.8108C12.3459 14.0152 12.1474 14.1854 11.9319 14.1798C11.7164 14.1684 11.552 14.0152 11.5633 13.8108C11.5747 13.6064 11.6881 13.4816 11.9319 13.4645H11.9263ZM11.8923 13.4986C12.0907 13.4872 12.2382 13.6178 12.2382 13.7824C12.2382 13.947 12.0737 14.0889 11.8979 14.0833C11.7221 14.0719 11.586 13.947 11.5974 13.7824C11.6087 13.6121 11.6994 13.5099 11.8979 13.4986H11.8923ZM11.9603 13.5667C12.0227 13.6292 11.9887 13.7313 11.9093 13.8108C11.8299 13.8903 11.7278 13.9187 11.6654 13.8619C11.603 13.7994 11.6257 13.6859 11.6881 13.6121C11.7505 13.544 11.8979 13.5043 11.9603 13.5667ZM12.1871 13.7143C12.2155 13.72 12.2325 13.8619 12.1361 13.9641C12.0397 14.0662 11.8923 14.0662 11.8923 14.0265C11.8923 13.9868 12 13.9924 12.0851 13.913C12.1645 13.8335 12.1588 13.7086 12.1928 13.7143H12.1871Z" fill="url(#paint9_radial_5_372)"/>
<path style="mix-blend-mode:screen" fill-rule="evenodd" clip-rule="evenodd" d="M7.76937 1.52129C8.11531 1.49859 8.37618 1.73132 8.37618 2.02649C8.37618 2.32167 8.08695 2.57143 7.77504 2.5544C7.46313 2.53737 7.22495 2.31599 7.24196 2.02082C7.25897 1.72564 7.42344 1.544 7.76937 1.52129ZM7.724 1.5667C8.00756 1.54967 8.22306 1.737 8.22306 1.98108C8.22306 2.22517 7.98487 2.42952 7.72967 2.41817C7.47448 2.40682 7.27599 2.21949 7.293 1.98108C7.30434 1.737 7.44612 1.58941 7.72967 1.57238L7.724 1.5667ZM7.82041 1.6632C7.90548 1.74835 7.86011 1.89594 7.74669 2.01514C7.63327 2.13435 7.48582 2.17408 7.39508 2.08894C7.31001 2.00379 7.33837 1.8335 7.42911 1.73132C7.51417 1.62914 7.73535 1.57806 7.82041 1.6632ZM8.14933 1.87891C8.1947 1.89026 8.21172 2.08894 8.07561 2.2422C7.9395 2.38979 7.724 2.38979 7.71833 2.33302C7.71266 2.27626 7.87712 2.28193 7.99621 2.16273C8.11531 2.04352 8.10397 1.86755 8.14933 1.87891Z" fill="url(#paint10_radial_5_372)"/>
<path style="mix-blend-mode:screen" opacity="0.4" fill-rule="evenodd" clip-rule="evenodd" d="M7.75236 4.03028C7.99622 4.01325 8.18336 4.17787 8.18336 4.3879C8.18336 4.59792 7.97921 4.77957 7.75236 4.76822C7.53119 4.75686 7.36106 4.59792 7.3724 4.3879C7.38374 4.17787 7.50283 4.04731 7.75236 4.03028ZM7.71834 4.06434C7.92249 4.05299 8.06994 4.18922 8.06994 4.35951C8.06994 4.52981 7.89981 4.67739 7.71834 4.67172C7.53686 4.66604 7.39508 4.52981 7.40643 4.35951C7.41777 4.18922 7.51418 4.08137 7.71834 4.06434ZM7.78639 4.13246C7.84877 4.1949 7.81474 4.29707 7.73535 4.38222C7.65028 4.46737 7.5482 4.49575 7.48582 4.43331C7.42344 4.37087 7.44612 4.25166 7.50851 4.17787C7.57089 4.10407 7.72968 4.07002 7.78639 4.13246ZM8.02457 4.28572C8.0586 4.2914 8.06994 4.43898 7.97353 4.54684C7.87713 4.65469 7.72401 4.65469 7.71834 4.60928C7.71834 4.56954 7.83176 4.57522 7.91682 4.49007C8.00189 4.40492 7.99622 4.28004 8.02457 4.28572Z" fill="url(#paint11_radial_5_372)"/>
<path style="mix-blend-mode:screen" opacity="0.6" fill-rule="evenodd" clip-rule="evenodd" d="M15.3346 7.25451C15.6805 7.26018 16.0038 7.60077 16.0038 7.98109C16.0038 8.36141 15.7486 8.53171 15.363 8.53171C14.9773 8.53171 14.6711 8.37277 14.6711 7.98677C14.6711 7.60077 14.9887 7.24315 15.3403 7.24883L15.3346 7.25451ZM15.2836 7.31695C15.5728 7.31695 15.8337 7.60077 15.8337 7.91865C15.8337 8.23653 15.6182 8.37277 15.3006 8.37277C14.983 8.37277 14.7278 8.24221 14.7278 7.92433C14.7278 7.60645 14.9943 7.31127 15.2779 7.31695H15.2836ZM15.4197 7.43048C15.5274 7.53833 15.482 7.75403 15.3403 7.90162C15.1928 8.04921 14.9943 8.07759 14.8866 7.96974C14.7788 7.86189 14.8185 7.6405 14.9603 7.49292C15.1078 7.34533 15.3119 7.32262 15.4197 7.43048ZM15.7316 7.74836C15.7826 7.75971 15.845 8.0265 15.6862 8.1968C15.5274 8.37277 15.2439 8.33871 15.2382 8.27059C15.2325 8.20247 15.4594 8.24221 15.5955 8.10597C15.7316 7.96974 15.6805 7.737 15.7316 7.74836Z" fill="url(#paint12_radial_5_372)"/>
<path style="mix-blend-mode:screen" fill-rule="evenodd" clip-rule="evenodd" d="M2.18336 6.52224C2.44423 6.52224 2.67675 6.77768 2.67675 7.06151C2.67675 7.34533 2.48393 7.47021 2.20038 7.47021C1.91682 7.47021 1.68998 7.35101 1.68998 7.06718C1.68998 6.78336 1.92816 6.51657 2.18336 6.52224ZM2.14367 6.56766C2.35917 6.56766 2.55198 6.77768 2.55198 7.0161C2.55198 7.25451 2.39319 7.35668 2.15501 7.35668C1.91682 7.35668 1.72968 7.26018 1.72968 7.02177C1.72968 6.78336 1.92816 6.56766 2.13799 6.56766H2.14367ZM2.24575 6.6528C2.32514 6.73227 2.29111 6.89121 2.18336 6.99907C2.07561 7.10692 1.92816 7.12962 1.84877 7.05015C1.76937 6.97068 1.79773 6.80607 1.90548 6.69821C2.01323 6.59036 2.16635 6.57333 2.24575 6.6528ZM2.47826 6.88554C2.51796 6.89689 2.56333 7.08989 2.44423 7.22045C2.32514 7.35101 2.11531 7.3283 2.10964 7.27721C2.10397 7.22612 2.2741 7.25451 2.37618 7.15233C2.47826 7.05015 2.43856 6.87418 2.47826 6.88554Z" fill="url(#paint13_radial_5_372)"/>
<path style="mix-blend-mode:screen" fill-rule="evenodd" clip-rule="evenodd" d="M10.8034 1.65754C11.1607 1.66321 11.4839 2.00947 11.4839 2.40683C11.4839 2.80418 11.2231 2.96879 10.8261 2.96879C10.4291 2.96879 10.1172 2.80418 10.1172 2.4125C10.1172 2.02083 10.4461 1.65186 10.7977 1.65754H10.8034ZM10.7524 1.71998C11.0473 1.71998 11.3195 2.00947 11.3195 2.33871C11.3195 2.66794 11.104 2.80418 10.775 2.80418C10.4461 2.80418 10.1853 2.66794 10.1853 2.34439C10.1853 2.02083 10.4575 1.7143 10.7524 1.71998ZM10.8885 1.83351C10.9962 1.94136 10.9565 2.16274 10.8034 2.316C10.656 2.46359 10.4461 2.49765 10.3384 2.38412C10.2306 2.27059 10.2647 2.04921 10.4178 1.89595C10.5652 1.74836 10.7807 1.71998 10.8885 1.83351ZM11.2117 2.15706C11.2628 2.16842 11.3251 2.44088 11.1664 2.61685C11.0019 2.79282 10.7127 2.76444 10.707 2.69632C10.7013 2.62821 10.9338 2.66794 11.0756 2.52603C11.2174 2.38412 11.1664 2.14571 11.2174 2.15706H11.2117Z" fill="url(#paint14_radial_5_372)"/>
<path style="mix-blend-mode:multiply" fill-rule="evenodd" clip-rule="evenodd" d="M16.0377 8.1684C16.3099 12.403 12.2551 16.1268 8.08115 16.1325C3.90724 16.1381 0.209695 12.9877 0.124629 8.1684C0.118957 7.69726 0.141642 7.24314 0.204024 6.81173C0.0565756 7.49858 -0.0114773 8.23084 -0.000135172 9.00284C0.0962732 14.4465 4.27586 18.0114 8.99419 18.0057C13.7069 18 18.2948 13.7881 17.9885 9.00284C17.6766 4.2176 13.9621 0 8.99419 0C7.9734 0 6.9923 0.147588 6.06792 0.437086C6.71442 0.283822 7.38928 0.210028 8.08115 0.210028C12.4762 0.210028 15.7655 3.93945 16.0377 8.17408V8.1684Z" fill="url(#paint15_radial_5_372)"/>
<path style="mix-blend-mode:screen" fill-rule="evenodd" clip-rule="evenodd" d="M1.04915 5.06338C0.40265 6.34626 0.0340303 9.00851 0.680533 10.7285C0.952745 11.4494 2.12099 12.7833 2.9036 12.2952C4.97354 11.0009 6.32893 8.68495 9.28356 7.16934C10.3044 6.64711 11.7335 6.18732 12.828 5.88647C14.0416 5.55156 14.3251 4.7455 13.6786 3.47965C12.7429 1.64616 10.8601 0.471139 8.17203 0.37464C5.05293 0.255434 2.40454 2.37275 1.04915 5.06338Z" fill="url(#paint16_radial_5_372)"/>
<path style="mix-blend-mode:screen" fill-rule="evenodd" clip-rule="evenodd" d="M6.47071 1.0842C4.84878 1.40776 3.40265 2.39546 2.50662 3.86566C2.29112 4.21193 2.24575 4.55819 2.36485 4.7001C2.47827 4.83633 2.74481 4.77389 3.13611 4.56954C3.70889 4.26869 4.60492 3.72943 5.4329 3.30937C6.14745 2.94608 6.8053 2.70199 7.16258 2.60549C8.76182 2.17408 8.84689 0.61306 6.47638 1.0842H6.47071ZM0.992445 6.40871C0.810971 7.04447 1.00946 8.23085 1.6673 7.351C1.91116 7.02176 2.12099 6.6528 2.29112 6.28383C2.42723 5.98865 2.41589 5.50615 2.138 5.36424C1.5312 5.05204 1.11154 5.96595 0.986774 6.40871H0.992445Z" fill="url(#paint17_radial_5_372)"/>
<path style="mix-blend-mode:screen" fill-rule="evenodd" clip-rule="evenodd" d="M10.4688 15.3605C12.0907 14.9574 13.5482 13.8789 14.4442 12.369C14.5974 12.1079 14.6881 11.8297 14.5803 11.7843C14.5123 11.7559 14.4442 11.7389 14.0019 12.0568C12.7486 12.965 11.5406 13.771 9.9811 14.2649C9.24386 14.5033 8.77316 14.7758 8.72779 15.0539C8.67675 15.3775 9.19282 15.6727 10.4688 15.3548V15.3605Z" fill="url(#paint18_radial_5_372)"/>
<g style="mix-blend-mode:multiply">
<path fill-rule="evenodd" clip-rule="evenodd" d="M9.34594 13.544C10.8715 11.1542 12.3119 8.69064 13.6276 6.12488C13.0151 5.64806 12.2098 5.17124 11.501 4.89877C10.5539 6.193 9.20416 8.50331 8.28545 10.4787C7.76938 9.3491 7.17392 8.32167 6.49906 7.38506C5.72212 7.64617 4.91683 8.15138 4.37241 8.61117C5.13233 10.3595 6.63517 12.8855 7.21929 13.5497C7.88847 13.6291 8.67108 13.6405 9.34594 13.5497V13.544Z" fill="#95C11F"/>
</g>
<path fill-rule="evenodd" clip-rule="evenodd" d="M9.34594 13.2942C10.8715 10.9044 12.3119 8.44087 13.6276 5.87511C13.0151 5.39829 12.2098 4.92147 11.501 4.649C10.5539 5.94323 9.20416 8.25354 8.28545 10.2289C7.76938 9.09933 7.17392 8.0719 6.49906 7.13528C5.72212 7.3964 4.91683 7.9016 4.37241 8.3614C5.13233 10.1097 6.63517 12.6358 7.21929 13.2999C7.88847 13.3794 8.67108 13.3907 9.34594 13.2999V13.2942Z" fill="url(#paint19_linear_5_372)"/>
<defs>
<radialGradient id="paint0_radial_5_372" cx="0" cy="0" r="1" gradientUnits="userSpaceOnUse" gradientTransform="translate(5.75029 4.59792) scale(15.9471 15.9622)">
<stop stop-color="#B0FF6B"/>
<stop offset="0.93" stop-color="#08A319"/>
</radialGradient>
<radialGradient id="paint1_radial_5_372" cx="0" cy="0" r="1" gradientUnits="userSpaceOnUse" gradientTransform="translate(14.5577 8.47493) scale(2.10397 2.10596)">
<stop stop-color="#95C11F"/>
<stop offset="0.93" stop-color="#3AAA35"/>
</radialGradient>
<radialGradient id="paint2_radial_5_372" cx="0" cy="0" r="1" gradientUnits="userSpaceOnUse" gradientTransform="translate(7.00378 12.789) scale(1.77505 1.77673)">
<stop stop-color="#95C11F"/>
<stop offset="0.93" stop-color="#3AAA35"/>
</radialGradient>
<radialGradient id="paint3_radial_5_372" cx="0" cy="0" r="1" gradientUnits="userSpaceOnUse" gradientTransform="translate(5.44991 14.6679) scale(1.93951 1.94134)">
<stop stop-color="#95C11F"/>
<stop offset="0.93" stop-color="#3AAA35"/>
</radialGradient>
<radialGradient id="paint4_radial_5_372" cx="0" cy="0" r="1" gradientUnits="userSpaceOnUse" gradientTransform="translate(2.25709 4.50143) scale(2.7845 2.78713)">
<stop stop-color="#95C11F"/>
<stop offset="0.93" stop-color="#3AAA35"/>
</radialGradient>
<radialGradient id="paint5_radial_5_372" cx="0" cy="0" r="1" gradientUnits="userSpaceOnUse" gradientTransform="translate(13.5425 5.60833) scale(1.0775 1.07852)">
<stop stop-color="#95C11F"/>
<stop offset="0.93" stop-color="#3AAA35"/>
</radialGradient>
<radialGradient id="paint6_radial_5_372" cx="0" cy="0" r="1" gradientUnits="userSpaceOnUse" gradientTransform="translate(0.805292 9.9054) scale(1.54253 1.54399)">
<stop stop-color="#95C11F"/>
<stop offset="0.93" stop-color="#3AAA35"/>
</radialGradient>
<radialGradient id="paint7_radial_5_372" cx="0" cy="0" r="1" gradientUnits="userSpaceOnUse" gradientTransform="translate(3.57845 13.6178) scale(1.55955 1.56102)">
<stop stop-color="#95C11F"/>
<stop offset="0.93" stop-color="#3AAA35"/>
</radialGradient>
<radialGradient id="paint8_radial_5_372" cx="0" cy="0" r="1" gradientUnits="userSpaceOnUse" gradientTransform="translate(9.49338 0.550622) scale(1.19093 1.19205)">
<stop stop-color="#95C11F"/>
<stop offset="0.93" stop-color="#3AAA35"/>
</radialGradient>
<radialGradient id="paint9_radial_5_372" cx="0" cy="0" r="1" gradientUnits="userSpaceOnUse" gradientTransform="translate(11.6938 13.2772) scale(1.11153 1.11258)">
<stop stop-color="#95C11F"/>
<stop offset="0.93" stop-color="#3AAA35"/>
</radialGradient>
<radialGradient id="paint10_radial_5_372" cx="0" cy="0" r="1" gradientUnits="userSpaceOnUse" gradientTransform="translate(7.44045 1.24882) scale(1.60491 1.60643)">
<stop stop-color="#95C11F"/>
<stop offset="0.93" stop-color="#3AAA35"/>
</radialGradient>
<radialGradient id="paint11_radial_5_372" cx="0" cy="0" r="1" gradientUnits="userSpaceOnUse" gradientTransform="translate(7.51418 3.83728) scale(1.14556 1.14664)">
<stop stop-color="#95C11F"/>
<stop offset="0.93" stop-color="#3AAA35"/>
</radialGradient>
<radialGradient id="paint12_radial_5_372" cx="0" cy="0" r="1" gradientUnits="userSpaceOnUse" gradientTransform="translate(15.0227 6.89121) scale(2.14367 2.14569)">
<stop stop-color="#95C11F"/>
<stop offset="0.93" stop-color="#3AAA35"/>
</radialGradient>
<radialGradient id="paint13_radial_5_372" cx="0" cy="0" r="1" gradientUnits="userSpaceOnUse" gradientTransform="translate(1.95085 6.25545) scale(1.59357 1.59508)">
<stop stop-color="#95C11F"/>
<stop offset="0.93" stop-color="#3AAA35"/>
</radialGradient>
<radialGradient id="paint14_radial_5_372" cx="0" cy="0" r="1" gradientUnits="userSpaceOnUse" gradientTransform="translate(10.4858 1.28289) scale(2.19471 2.19678)">
<stop stop-color="#95C11F"/>
<stop offset="0.93" stop-color="#3AAA35"/>
</radialGradient>
<radialGradient id="paint15_radial_5_372" cx="0" cy="0" r="1" gradientUnits="userSpaceOnUse" gradientTransform="translate(8.10384 7.41343) scale(13.2193 13.2318)">
<stop offset="0.53" stop-color="#FFFF6B"/>
<stop offset="0.81" stop-color="#C3CA6B"/>
<stop offset="1" stop-color="#97A36B"/>
</radialGradient>
<radialGradient id="paint16_radial_5_372" cx="0" cy="0" r="1" gradientUnits="userSpaceOnUse" gradientTransform="translate(3.30624 1.35099) scale(14.7561 14.7701)">
<stop stop-color="#62C706"/>
<stop offset="1"/>
</radialGradient>
<radialGradient id="paint17_radial_5_372" cx="0" cy="0" r="1" gradientUnits="userSpaceOnUse" gradientTransform="translate(4.00946 1.9527) scale(16.5255 16.5412)">
<stop stop-color="white"/>
<stop offset="1"/>
</radialGradient>
<radialGradient id="paint18_radial_5_372" cx="0" cy="0" r="1" gradientUnits="userSpaceOnUse" gradientTransform="translate(10.6446 10.5752) scale(6.85066 6.85714)">
<stop stop-color="#CCFF6B"/>
<stop offset="1" stop-color="#171F00"/>
</radialGradient>
<linearGradient id="paint19_linear_5_372" x1="9.00001" y1="13.3567" x2="9.00001" y2="4.64333" gradientUnits="userSpaceOnUse">
<stop stop-color="#DDFFCF"/>
<stop offset="1" stop-color="white"/>
</linearGradient>
</defs>
</svg>
