<svg width="36" height="40" viewBox="0 0 36 40" fill="none" xmlns="http://www.w3.org/2000/svg">
<g filter="url(#filter0_ii_1_8)">
<path d="M33.5192 16.6434C35.9551 18.0497 35.9551 21.5657 33.5192 22.972L6.11538 38.7936C3.67948 40.2 0.634611 38.442 0.634611 35.6293L0.634613 3.98608C0.634613 1.17335 3.67949 -0.584612 6.11538 0.821754L33.5192 16.6434Z" fill="url(#paint0_linear_1_8)"/>
</g>
<path d="M32.9712 17.5927C34.6763 18.5771 34.6763 21.0383 32.9712 22.0227L5.5673 37.8443C3.86218 38.8288 1.73076 37.5982 1.73076 35.6293L1.73077 3.98608C1.73077 2.01717 3.86218 0.786595 5.56731 1.77105L32.9712 17.5927Z" stroke="#588300" stroke-width="2.19231"/>
<defs>
<filter id="filter0_ii_1_8" x="0.634613" y="-1.13476" width="35.4423" height="45.5387" filterUnits="userSpaceOnUse" color-interpolation-filters="sRGB">
<feFlood flood-opacity="0" result="BackgroundImageFix"/>
<feBlend mode="normal" in="SourceGraphic" in2="BackgroundImageFix" result="shape"/>
<feColorMatrix in="SourceAlpha" type="matrix" values="0 0 0 0 0 0 0 0 0 0 0 0 0 0 0 0 0 0 127 0" result="hardAlpha"/>
<feOffset dx="0.730769" dy="-3.65385"/>
<feGaussianBlur stdDeviation="0.730769"/>
<feComposite in2="hardAlpha" operator="arithmetic" k2="-1" k3="1"/>
<feColorMatrix type="matrix" values="0 0 0 0 0.9384 0 0 0 0 1 0 0 0 0 0.86 0 0 0 0.44 0"/>
<feBlend mode="normal" in2="shape" result="effect1_innerShadow_1_8"/>
<feColorMatrix in="SourceAlpha" type="matrix" values="0 0 0 0 0 0 0 0 0 0 0 0 0 0 0 0 0 0 127 0" result="hardAlpha"/>
<feOffset dy="5.11538"/>
<feGaussianBlur stdDeviation="2.55769"/>
<feComposite in2="hardAlpha" operator="arithmetic" k2="-1" k3="1"/>
<feColorMatrix type="matrix" values="0 0 0 0 0.439216 0 0 0 0 0.611765 0 0 0 0 0.054902 0 0 0 1 0"/>
<feBlend mode="normal" in2="effect1_innerShadow_1_8" result="effect2_innerShadow_1_8"/>
</filter>
<linearGradient id="paint0_linear_1_8" x1="6.48077" y1="39.9039" x2="13.4231" y2="-3.57692" gradientUnits="userSpaceOnUse">
<stop stop-color="#CEDD00"/>
<stop offset="1" stop-color="#9EBF05"/>
</linearGradient>
</defs>
</svg>
