<svg width="50" height="50" viewBox="0 0 50 50" fill="none" xmlns="http://www.w3.org/2000/svg">
<g clip-path="url(#clip0_4_53)">
<path fill-rule="evenodd" clip-rule="evenodd" d="M3.64366 0.754172C6.66131 0.513479 10.016 0.33697 13.5955 0.208601C17.175 0.0802311 21.0112 0 25.008 0C29.0048 0 32.809 0.0802311 36.3884 0.208601C39.9679 0.33697 43.3226 0.529525 46.3403 0.754172C48.1701 0.898588 49.5666 2.35879 49.6629 4.22015C49.8234 7.28498 49.9358 10.6707 49.9839 14.2811C50.0321 17.8434 50.0321 21.6463 49.9358 25.5616C49.8555 29.4448 49.695 33.1675 49.5024 36.6335C49.3098 40.0674 49.069 43.2766 48.7801 46.1329C48.6035 47.8498 47.2231 49.1977 45.4575 49.3261C42.5682 49.5507 39.3579 49.7272 35.923 49.8395C32.488 49.9519 28.8122 50.016 25.0241 50.016C21.236 50.016 17.5281 49.9519 14.1091 49.8395C10.6742 49.7272 7.44783 49.5507 4.55858 49.3421C2.80899 49.2137 1.41252 47.8659 1.252 46.1489C0.97913 43.2927 0.722308 40.0995 0.529691 36.6496C0.337075 33.1836 0.192613 29.4608 0.112356 25.5616C-3.55281e-06 21.6463 -0.0160549 17.8434 0.0160478 14.2651C0.0642019 10.6707 0.176561 7.26893 0.337075 4.22015C0.433383 2.35879 1.82985 0.898588 3.64366 0.754172Z" fill="url(#paint0_radial_4_53)"/>
<path style="mix-blend-mode:screen" fill-rule="evenodd" clip-rule="evenodd" d="M37.1429 2.5353C31.9101 -5.33432e-06 12.2793 0.978814 6.03531 1.55648C2.55216 1.8774 1.26805 2.55134 1.1878 6.29011C1.02728 14.2811 -0.0160557 26.4442 1.76565 34.1463C2.60032 37.7728 5.82664 36.4891 6.5008 35.5263C16.0995 21.9673 27.6565 13.0135 37.4318 7.55776C39.5345 6.38639 41.252 4.52503 37.1429 2.5353Z" fill="url(#paint1_radial_4_53)"/>
<path style="mix-blend-mode:screen" fill-rule="evenodd" clip-rule="evenodd" d="M22.4398 1.58858C19.3419 1.23556 16.1958 1.58858 13.0819 1.78113C10.626 1.94159 8.17014 2.15019 5.79454 2.71181C3.14607 3.33761 2.64847 4.28434 2.24719 6.85173C1.86196 9.24262 1.89406 11.6496 1.87801 14.0886C1.87801 16.1264 3.83628 15.8216 4.25361 14.6823C5.12038 12.2272 4.86356 9.16239 6.62921 7.09243C9.00481 4.28434 18.1059 3.99551 22.2151 3.41785C23.74 3.1932 23.8363 1.73299 22.4559 1.57253L22.4398 1.58858ZM1.63724 17.9718C1.49278 19.2555 1.49278 20.5552 1.68539 21.8389C1.94221 23.4596 3.64366 23.9089 3.99679 22.0475C4.25361 20.6836 4.34992 19.2555 4.25361 17.8755C4.18941 16.8646 1.87801 15.9499 1.65329 17.9878L1.63724 17.9718Z" fill="url(#paint2_radial_4_53)"/>
<path style="mix-blend-mode:screen" fill-rule="evenodd" clip-rule="evenodd" d="M28.9567 45.0096C28.6356 45.0738 28.122 45.3947 28.2504 45.6996C28.3949 46.0847 28.9888 46.165 29.4061 46.181C32.9053 46.2291 40.1605 45.6033 42.2953 43.2606C44.6388 40.6772 45.7945 31.6271 45.8106 28.4981C45.8106 28.2253 45.634 27.776 45.3612 27.776C45.0401 27.776 44.8315 28.2093 44.7512 28.5141C43.6758 32.9429 41.8138 37.6926 39.6308 40.4044C37.7849 42.6829 33.2905 44.1431 28.9567 44.9936V45.0096Z" fill="url(#paint3_radial_4_53)"/>
<path style="mix-blend-mode:screen" fill-rule="evenodd" clip-rule="evenodd" d="M3.64366 0.754172C6.66131 0.513479 10.016 0.33697 13.5955 0.208601C17.175 0.0802311 21.0112 0 25.008 0C29.0048 0 32.809 0.0802311 36.3884 0.208601C39.9679 0.33697 43.3226 0.529525 46.3403 0.754172C48.1701 0.898588 49.5666 2.35879 49.6629 4.22015C49.8234 7.28498 49.9358 10.6707 49.9839 14.2811C50.0321 17.8434 50.0321 21.6463 49.9358 25.5616C49.8555 29.4448 49.695 33.1675 49.5024 36.6335C49.3098 40.0674 49.069 43.2766 48.7801 46.1329C48.6035 47.8498 47.2231 49.1977 45.4575 49.3261C42.5682 49.5507 39.3579 49.7272 35.923 49.8395C32.488 49.9519 28.8122 50.016 25.0241 50.016C21.236 50.016 17.5281 49.9519 14.1091 49.8395C10.6742 49.7272 7.44783 49.5507 4.55858 49.3421C2.80899 49.2137 1.41252 47.8659 1.252 46.1489C0.97913 43.2927 0.722308 40.0995 0.529691 36.6496C0.337075 33.1836 0.192613 29.4608 0.112356 25.5616C-3.55281e-06 21.6463 -0.0160549 17.8434 0.0160478 14.2651C0.0642019 10.6707 0.176561 7.26893 0.337075 4.22015C0.433383 2.35879 1.82985 0.898588 3.64366 0.754172Z" fill="url(#paint4_radial_4_53)"/>
<g opacity="0.75">
<path style="mix-blend-mode:screen" opacity="0.75" fill-rule="evenodd" clip-rule="evenodd" d="M36.6774 27.0539C37.4639 27.0539 38.3146 27.7439 38.3146 28.5302C38.3146 29.3164 37.5602 29.9422 36.7897 29.9422C36.0192 29.9422 35.329 29.2843 35.3772 28.5302C35.4253 27.776 35.9069 27.0539 36.6774 27.0539ZM36.6131 27.1502C37.2552 27.1502 37.9615 27.7279 37.9615 28.3697C37.9615 29.0116 37.3355 29.5411 36.6934 29.5411C36.0514 29.5411 35.4896 28.9955 35.5217 28.3697C35.5538 27.7439 35.955 27.1502 36.5971 27.1502H36.6131ZM36.9342 27.423C37.1589 27.6476 37.0465 28.0006 36.7416 28.3055C36.4366 28.6104 36.0514 28.7709 35.8266 28.5462C35.6019 28.3216 35.6661 27.8241 35.9871 27.5193C36.3082 27.2144 36.7255 27.1983 36.9502 27.423H36.9342ZM37.7849 28.1451C37.8973 28.1772 37.9454 28.6746 37.6083 29.0597C37.2713 29.4448 36.7255 29.4288 36.7095 29.2843C36.7095 29.1399 37.1107 29.156 37.3997 28.8671C37.6886 28.5783 37.6725 28.129 37.7849 28.1451Z" fill="url(#paint5_radial_4_53)"/>
<path style="mix-blend-mode:screen" opacity="0.75" fill-rule="evenodd" clip-rule="evenodd" d="M5.79454 13.9763C6.58105 13.9763 7.43178 14.6662 7.43178 15.4525C7.43178 16.2388 6.67736 16.8646 5.9069 16.8646C5.13643 16.8646 4.44622 16.2067 4.49438 15.4525C4.54253 14.6983 5.02407 13.9763 5.79454 13.9763ZM5.73033 14.0725C6.37239 14.0725 7.07864 14.6502 7.07864 15.292C7.07864 15.9339 6.45264 16.4634 5.81059 16.4634C5.16853 16.4634 4.60674 15.9178 4.63884 15.292C4.67094 14.6662 5.07222 14.0725 5.71428 14.0725H5.73033ZM6.05136 14.3453C6.27608 14.57 6.16372 14.923 5.85874 15.2279C5.55377 15.5327 5.16853 15.6932 4.94381 15.4686C4.71909 15.2439 4.7833 14.7465 5.10433 14.4416C5.4093 14.1367 5.84269 14.1207 6.06741 14.3453H6.05136ZM6.90208 15.0674C7.01444 15.0995 7.06259 15.5969 6.72552 15.982C6.38844 16.3671 5.84269 16.3511 5.82664 16.2067C5.82664 16.0623 6.22792 16.0783 6.51685 15.7895C6.82182 15.4846 6.78972 15.0514 6.90208 15.0674V15.0674Z" fill="url(#paint6_radial_4_53)"/>
<path style="mix-blend-mode:screen" opacity="0.7" fill-rule="evenodd" clip-rule="evenodd" d="M40.6099 9.08215C41.3804 9.08215 42.2472 9.77214 42.2472 10.5424C42.2472 11.3126 41.4928 11.9544 40.7223 11.9544C39.9518 11.9544 39.2616 11.2965 39.3098 10.5424C39.3579 9.78819 39.8395 9.08215 40.6099 9.08215ZM40.5457 9.17843C41.1878 9.17843 41.8941 9.74005 41.8941 10.3819C41.8941 11.0237 41.2841 11.5372 40.642 11.5372C40 11.5372 39.4382 10.9917 39.4863 10.3819C39.5185 9.75609 39.9197 9.17843 40.5618 9.17843H40.5457ZM40.8668 9.45122C41.0915 9.67586 40.9791 10.0289 40.6741 10.3338C40.3692 10.6386 39.9839 10.7991 39.7592 10.5745C39.5345 10.3498 39.5987 9.85237 39.9197 9.54749C40.2408 9.24262 40.6581 9.22657 40.8828 9.45122H40.8668ZM41.7175 10.1733C41.8298 10.2054 41.878 10.7028 41.5409 11.0879C41.2038 11.473 40.6581 11.457 40.642 11.3126C40.626 11.1682 41.0433 11.1842 41.3323 10.8954C41.6212 10.6065 41.6051 10.1573 41.7175 10.1733Z" fill="url(#paint7_radial_4_53)"/>
<path style="mix-blend-mode:screen" opacity="0.75" fill-rule="evenodd" clip-rule="evenodd" d="M10.4334 20.3787C11.4607 20.3787 12.6003 21.2933 12.6003 22.3203C12.6003 23.3472 11.6051 24.1816 10.5778 24.1816C9.55055 24.1816 8.65168 23.3151 8.71588 22.3203C8.78009 21.3254 9.40609 20.3787 10.4494 20.3787H10.4334ZM10.3531 20.5071C11.2038 20.5071 12.1509 21.2612 12.1509 22.1117C12.1509 22.9621 11.3323 23.6521 10.4815 23.6521C9.63081 23.6521 8.89245 22.93 8.9406 22.1117C8.98875 21.2773 9.51845 20.5071 10.3692 20.5071H10.3531ZM10.7865 20.8601C11.0915 21.165 10.931 21.6143 10.5136 22.0315C10.0963 22.4487 9.59871 22.6412 9.29373 22.3363C8.98875 22.0315 9.08506 21.3896 9.5024 20.9724C9.91973 20.5552 10.4815 20.5392 10.7865 20.844V20.8601ZM11.9101 21.8229C12.0546 21.8549 12.1188 22.5289 11.6693 23.0424C11.2199 23.5398 10.4976 23.5398 10.4815 23.3472C10.4655 23.1547 11.0112 23.1868 11.3965 22.7856C11.7977 22.3845 11.7656 21.8068 11.9101 21.8389V21.8229Z" fill="url(#paint8_radial_4_53)"/>
<path style="mix-blend-mode:screen" opacity="0.4" fill-rule="evenodd" clip-rule="evenodd" d="M18.6677 37.0026C19.8716 36.9384 20.7544 37.7246 20.7544 38.7516C20.7544 39.7786 19.7592 40.629 18.6838 40.5809C17.6083 40.5327 16.7737 39.7465 16.8379 38.7356C16.886 37.7086 17.4799 37.0828 18.6677 37.0026V37.0026ZM18.5072 37.163C19.4864 37.0988 20.2247 37.7567 20.2247 38.5911C20.2247 39.4255 19.4061 40.1316 18.5233 40.0995C17.6405 40.0513 16.9663 39.4255 16.9984 38.5751C17.0466 37.7407 17.5281 37.2112 18.5072 37.163V37.163ZM18.8443 37.5C19.1493 37.8049 18.9888 38.3184 18.5875 38.7195C18.1862 39.1207 17.6726 39.2651 17.3836 38.9763C17.0787 38.6714 17.191 38.0937 17.496 37.7407C17.801 37.3877 18.5554 37.2112 18.8604 37.516L18.8443 37.5ZM19.9839 38.2381C20.1284 38.2702 20.2087 38.9763 19.7271 39.4897C19.2616 40.0032 18.5233 40.0032 18.4912 39.7946C18.4751 39.6021 19.0369 39.6181 19.4382 39.2169C19.8395 38.8158 19.8074 38.19 19.9679 38.2381H19.9839Z" fill="url(#paint9_radial_4_53)"/>
<path style="mix-blend-mode:screen" opacity="0.4" fill-rule="evenodd" clip-rule="evenodd" d="M7.30337 43.6617C8.50722 43.5976 9.39004 44.3838 9.39004 45.4108C9.39004 46.4377 8.39486 47.2882 7.31942 47.2401C6.24397 47.1919 5.4093 46.4057 5.47351 45.3947C5.52166 44.3678 6.11556 43.742 7.30337 43.6617ZM7.14285 43.8222C8.12198 43.758 8.86035 44.4159 8.86035 45.2503C8.86035 46.0847 8.04173 46.7908 7.1589 46.7587C6.27608 46.7105 5.60192 46.0847 5.63402 45.2343C5.68218 44.3999 6.16372 43.8703 7.14285 43.8222V43.8222ZM7.47993 44.1592C7.78491 44.4641 7.62439 44.9775 7.22311 45.3787C6.82182 45.7799 6.30818 45.9243 6.01926 45.6354C5.71428 45.3306 5.82664 44.7529 6.13162 44.3999C6.43659 44.0469 7.19101 43.8704 7.49598 44.1752L7.47993 44.1592ZM8.61958 44.8973C8.76404 44.9294 8.8443 45.6354 8.36276 46.1489C7.89727 46.6624 7.1589 46.6624 7.1268 46.4538C7.11075 46.2612 7.67255 46.2773 8.07383 45.8761C8.47511 45.475 8.44301 44.8492 8.60353 44.8973H8.61958Z" fill="url(#paint10_radial_4_53)"/>
<path style="mix-blend-mode:screen" opacity="0.4" fill-rule="evenodd" clip-rule="evenodd" d="M29.053 37.0026C29.7753 36.9544 30.321 37.4358 30.321 38.0616C30.321 38.6874 29.7111 39.2009 29.069 39.1688C28.4109 39.1367 27.9133 38.6714 27.9454 38.0456C27.9775 37.4198 28.3307 37.0346 29.053 37.0026V37.0026ZM28.9567 37.0988C29.5506 37.0667 30 37.4519 30 37.9653C30 38.4788 29.5024 38.896 28.9727 38.88C28.443 38.8639 28.0257 38.4628 28.0578 37.9653C28.0899 37.4519 28.3788 37.147 28.9727 37.0988H28.9567ZM29.1653 37.2914C29.3419 37.4679 29.2456 37.7888 29.0048 38.0295C28.764 38.2702 28.4591 38.3665 28.2665 38.19C28.0899 38.0135 28.1541 37.6444 28.3307 37.4358C28.5072 37.2272 28.9727 37.1149 29.1493 37.2914H29.1653ZM29.8555 37.7407C29.9518 37.7567 29.9839 38.19 29.7111 38.4949C29.4222 38.8158 28.9727 38.7997 28.9727 38.6874C28.9727 38.5751 29.3098 38.5751 29.5506 38.3344C29.7913 38.0937 29.7753 37.7086 29.8716 37.7407H29.8555Z" fill="url(#paint11_radial_4_53)"/>
<path style="mix-blend-mode:screen" opacity="0.4" fill-rule="evenodd" clip-rule="evenodd" d="M34.5586 42.4743C35.2327 42.4422 35.7464 42.8755 35.7464 43.4531C35.7464 44.0308 35.1846 44.5122 34.5746 44.4962C33.9647 44.4801 33.4992 44.0308 33.5313 43.4531C33.5634 42.8755 33.8844 42.5225 34.5746 42.4743H34.5586ZM34.4623 42.5706C35.0241 42.5385 35.4414 42.9076 35.4414 43.3729C35.4414 43.8383 34.9759 44.2394 34.4783 44.2234C33.9807 44.1913 33.5955 43.8383 33.6276 43.3729C33.6597 42.8915 33.9165 42.6027 34.4783 42.5706H34.4623ZM34.6549 42.7632C34.8315 42.9397 34.7351 43.2285 34.5104 43.4531C34.2857 43.6778 33.9968 43.758 33.8202 43.5976C33.6436 43.4211 33.7079 43.1001 33.8844 42.8915C34.061 42.699 34.4783 42.5867 34.6549 42.7632ZM35.2969 43.1804C35.3772 43.1964 35.4254 43.5976 35.1525 43.8864C34.8796 44.1752 34.4623 44.1752 34.4623 44.0629C34.4623 43.9506 34.7672 43.9666 35.008 43.742C35.2327 43.5173 35.2167 43.1643 35.313 43.1804H35.2969Z" fill="url(#paint12_radial_4_53)"/>
<path style="mix-blend-mode:screen" opacity="0.75" fill-rule="evenodd" clip-rule="evenodd" d="M22.809 8.7131C23.7881 8.64891 24.5265 9.30681 24.5265 10.1412C24.5265 10.9756 23.7079 11.6816 22.825 11.6335C21.9422 11.5854 21.2681 10.9596 21.3162 10.1252C21.3644 9.29076 21.8299 8.77728 22.809 8.7131V8.7131ZM22.6806 8.84147C23.4831 8.79333 24.0931 9.32285 24.0931 10.0128C24.0931 10.7028 23.4189 11.2805 22.6966 11.2484C21.9743 11.2163 21.4286 10.6868 21.4607 10.0128C21.4928 9.32285 21.8941 8.90565 22.6966 8.85752L22.6806 8.84147ZM22.9534 9.11425C23.1942 9.35495 23.0658 9.77215 22.7448 10.1091C22.4238 10.4461 22.0064 10.5584 21.7496 10.3177C21.5088 10.077 21.5891 9.59564 21.8459 9.30681C22.0867 9.01798 22.7127 8.87356 22.9534 9.11425ZM23.8844 9.72401C24.0128 9.7561 24.061 10.3177 23.6758 10.751C23.2905 11.1682 22.6806 11.1682 22.6645 11.0077C22.6645 10.8472 23.114 10.8633 23.451 10.5263C23.7881 10.1894 23.756 9.69192 23.8844 9.72401V9.72401Z" fill="url(#paint13_radial_4_53)"/>
<path style="mix-blend-mode:screen" opacity="0.4" fill-rule="evenodd" clip-rule="evenodd" d="M22.7448 15.8055C23.435 15.7574 23.9647 16.2227 23.9647 16.8164C23.9647 17.4101 23.3868 17.9236 22.7608 17.8915C22.1348 17.8594 21.6533 17.4101 21.6854 16.8164C21.7175 16.2227 22.0546 15.8537 22.7608 15.8055H22.7448ZM22.6485 15.9018C23.2263 15.8697 23.6436 16.2548 23.6436 16.7362C23.6436 17.2176 23.1621 17.6348 22.6485 17.6187C22.1348 17.6027 21.7335 17.2176 21.7656 16.7362C21.7977 16.2548 22.0706 15.9499 22.6485 15.9018ZM22.8411 16.0943C23.0176 16.2709 22.9213 16.5597 22.6966 16.8004C22.4559 17.0411 22.1669 17.1213 21.9904 16.9448C21.8138 16.7683 21.878 16.4313 22.0546 16.2227C22.2311 16.0141 22.6806 15.9178 22.8411 16.0943ZM23.5152 16.5276C23.6115 16.5436 23.6437 16.9608 23.3708 17.2657C23.0979 17.5706 22.6645 17.5706 22.6485 17.4422C22.6485 17.3299 22.9695 17.346 23.2103 17.1053C23.451 16.8646 23.435 16.5116 23.5152 16.5276Z" fill="url(#paint14_radial_4_53)"/>
<path style="mix-blend-mode:screen" opacity="0.75" fill-rule="evenodd" clip-rule="evenodd" d="M11.4446 34.7561C12.183 34.7561 12.8411 35.4782 12.8411 36.2805C12.8411 37.0828 12.2953 37.4358 11.4928 37.4358C10.6902 37.4358 10.0481 37.0989 10.0481 36.2965C10.0481 35.4942 10.7223 34.7401 11.4446 34.7561V34.7561ZM11.3323 34.8845C11.9422 34.8845 12.488 35.4782 12.488 36.1521C12.488 36.8261 12.0385 37.1149 11.3644 37.1149C10.6902 37.1149 10.1605 36.8421 10.1605 36.1682C10.1605 35.4942 10.7223 34.8845 11.3162 34.8845H11.3323ZM11.6212 35.1252C11.8459 35.3498 11.7496 35.7991 11.4446 36.104C11.1396 36.4089 10.7223 36.4731 10.4976 36.2484C10.2729 36.0238 10.3531 35.5584 10.6581 35.2535C10.9631 34.9487 11.3965 34.9005 11.6212 35.1252V35.1252ZM12.2793 35.7831C12.3916 35.8152 12.5201 36.3607 12.183 36.7298C11.8459 37.0989 11.252 37.0347 11.2359 36.8903C11.2359 36.7458 11.7014 36.8261 11.9904 36.5372C12.2793 36.2484 12.1669 35.751 12.2793 35.7831V35.7831Z" fill="url(#paint15_radial_4_53)"/>
<path style="mix-blend-mode:screen" opacity="0.75" fill-rule="evenodd" clip-rule="evenodd" d="M8.69984 7.75033C9.4382 7.75033 10.0963 8.47241 10.0963 9.27472C10.0963 10.077 9.55056 10.43 8.74799 10.43C7.94542 10.43 7.30337 10.0931 7.30337 9.29076C7.30337 8.48845 7.97752 7.73428 8.69984 7.75033ZM8.58748 7.8787C9.19743 7.8787 9.74317 8.47241 9.74317 9.14635C9.74317 9.82029 9.29374 10.1091 8.61958 10.1091C7.94542 10.1091 7.41573 9.83634 7.41573 9.16239C7.41573 8.48845 7.97752 7.8787 8.57143 7.8787H8.58748ZM8.8764 8.11939C9.10112 8.34404 9.00481 8.79333 8.69984 9.09821C8.39486 9.40309 7.97752 9.46727 7.75281 9.24263C7.52809 9.01798 7.60834 8.55264 7.91332 8.24776C8.21829 7.94288 8.65168 7.89474 8.8764 8.11939V8.11939ZM9.53451 8.77729C9.64687 8.80938 9.77528 9.35495 9.4382 9.72401C9.10112 10.0931 8.50722 10.0289 8.49117 9.88447C8.47512 9.74006 8.95666 9.82029 9.24558 9.53146C9.53451 9.24263 9.42215 8.74519 9.53451 8.77729Z" fill="url(#paint16_radial_4_53)"/>
<path style="mix-blend-mode:screen" opacity="0.75" fill-rule="evenodd" clip-rule="evenodd" d="M27.6404 3.49808C28.2986 3.49808 28.9085 4.15597 28.9085 4.87805C28.9085 5.60013 28.427 5.92106 27.6886 5.92106C26.9502 5.92106 26.3724 5.61618 26.3724 4.8941C26.3724 4.17202 26.9823 3.48203 27.6404 3.49808V3.49808ZM27.5441 3.6104C28.0899 3.6104 28.5875 4.15597 28.5875 4.74968C28.5875 5.34339 28.1862 5.61618 27.5762 5.61618C26.9663 5.61618 26.4847 5.37548 26.4847 4.76573C26.4847 4.15597 26.9823 3.59435 27.5281 3.6104H27.5441ZM27.801 3.819C28.0096 4.0276 27.9294 4.42876 27.6404 4.70154C27.3676 4.97433 26.9823 5.03851 26.7737 4.82991C26.565 4.62131 26.6453 4.20411 26.9181 3.93132C27.191 3.65854 27.5923 3.6104 27.7849 3.819H27.801ZM28.3949 4.41271C28.4912 4.42876 28.6035 4.94224 28.3146 5.26316C28.0257 5.58408 27.4799 5.53595 27.4639 5.40758C27.4639 5.27921 27.8812 5.35944 28.138 5.08665C28.3949 4.82991 28.2986 4.38062 28.3949 4.41271Z" fill="url(#paint17_radial_4_53)"/>
</g>
<path style="mix-blend-mode:multiply" fill-rule="evenodd" clip-rule="evenodd" d="M42.9856 43.6457C39.2295 48.251 13.6597 47.5128 6.21187 44.2715C2.45586 42.6508 1.34831 39.2972 0.497589 36.3768C0.497589 36.457 0.497589 36.5533 0.497589 36.6335C0.690205 40.0674 0.947027 43.2606 1.2199 46.1329C1.39647 47.8498 2.77688 49.1977 4.52648 49.3261C7.41573 49.5347 10.6421 49.7112 14.077 49.8235C17.512 49.9358 21.1878 50 24.992 50C28.7961 50 32.4559 49.9358 35.8908 49.8235C39.3258 49.7112 42.5361 49.5347 45.4254 49.31C47.175 49.1816 48.5714 47.8338 48.748 46.1168C49.0209 43.2445 49.2777 40.0513 49.4703 36.6175C49.6629 33.1515 49.8234 29.4288 49.9037 25.5456C49.9839 21.6303 49.9839 17.8434 49.9518 14.2651C49.9037 10.6707 49.7913 7.26893 49.6308 4.20411C49.5345 2.34275 48.138 0.882542 46.3082 0.738126C43.2905 0.497433 39.9518 0.320924 36.3563 0.192555C33.1782 0.0962773 29.7753 0.0160462 26.26 0C31.878 0.288832 40 1.2516 43.3547 4.50899C49.3419 10.3338 46.7416 39.0083 42.9695 43.6457H42.9856Z" fill="url(#paint18_radial_4_53)"/>
</g>
<defs>
<radialGradient id="paint0_radial_4_53" cx="0" cy="0" r="1" gradientUnits="userSpaceOnUse" gradientTransform="translate(2.42375 0.834404) scale(73.8844 73.8607)">
<stop stop-color="#6BECFF"/>
<stop offset="0.93" stop-color="#0090FF"/>
</radialGradient>
<radialGradient id="paint1_radial_4_53" cx="0" cy="0" r="1" gradientUnits="userSpaceOnUse" gradientTransform="translate(-5.1846 -10.0449) scale(50.7384 50.7221)">
<stop stop-color="#B5F6FF"/>
<stop offset="1"/>
</radialGradient>
<radialGradient id="paint2_radial_4_53" cx="0" cy="0" r="1" gradientUnits="userSpaceOnUse" gradientTransform="translate(-2.50401 -7.62195) scale(33.8363 33.8254)">
<stop stop-color="white"/>
<stop offset="1"/>
</radialGradient>
<radialGradient id="paint3_radial_4_53" cx="0" cy="0" r="1" gradientUnits="userSpaceOnUse" gradientTransform="translate(23.9968 22.9461) scale(33.0498 33.0392)">
<stop stop-color="#B5F6FF"/>
<stop offset="1"/>
</radialGradient>
<radialGradient id="paint4_radial_4_53" cx="0" cy="0" r="1" gradientUnits="userSpaceOnUse" gradientTransform="translate(72.3917 187.885) scale(170.61 170.555)">
<stop offset="0.8" stop-color="#3DEFFF"/>
<stop offset="0.82" stop-color="#39DFEE"/>
<stop offset="0.86" stop-color="#2EB7C3"/>
<stop offset="0.91" stop-color="#1E757D"/>
<stop offset="0.98" stop-color="#071C1E"/>
<stop offset="1"/>
</radialGradient>
<radialGradient id="paint5_radial_4_53" cx="0" cy="0" r="1" gradientUnits="userSpaceOnUse" gradientTransform="translate(34.2375 24.6149) scale(5.95506 5.95314)">
<stop stop-color="#B0F5FF"/>
<stop offset="0.93" stop-color="#63BBFF"/>
</radialGradient>
<radialGradient id="paint6_radial_4_53" cx="0" cy="0" r="1" gradientUnits="userSpaceOnUse" gradientTransform="translate(3.35473 11.5372) scale(5.95506 5.95315)">
<stop stop-color="#B0F5FF"/>
<stop offset="0.93" stop-color="#63BBFF"/>
</radialGradient>
<radialGradient id="paint7_radial_4_53" cx="0" cy="0" r="1" gradientUnits="userSpaceOnUse" gradientTransform="translate(38.1701 6.64313) scale(5.939 5.9371)">
<stop stop-color="#B0F5FF"/>
<stop offset="0.93" stop-color="#63BBFF"/>
</radialGradient>
<radialGradient id="paint8_radial_4_53" cx="0" cy="0" r="1" gradientUnits="userSpaceOnUse" gradientTransform="translate(7.20705 17.1534) scale(7.88122 7.87869)">
<stop stop-color="#B0F5FF"/>
<stop offset="0.93" stop-color="#63BBFF"/>
</radialGradient>
<radialGradient id="paint9_radial_4_53" cx="0" cy="0" r="1" gradientUnits="userSpaceOnUse" gradientTransform="translate(17.512 36.0719) scale(5.55377 5.55199)">
<stop stop-color="#B0F5FF"/>
<stop offset="0.93" stop-color="#63BBFF"/>
</radialGradient>
<radialGradient id="paint10_radial_4_53" cx="0" cy="0" r="1" gradientUnits="userSpaceOnUse" gradientTransform="translate(6.16372 42.7311) scale(5.55377 5.55199)">
<stop stop-color="#B0F5FF"/>
<stop offset="0.93" stop-color="#63BBFF"/>
</radialGradient>
<radialGradient id="paint11_radial_4_53" cx="0" cy="0" r="1" gradientUnits="userSpaceOnUse" gradientTransform="translate(28.3628 36.4409) scale(3.37079 3.36971)">
<stop stop-color="#B0F5FF"/>
<stop offset="0.93" stop-color="#63BBFF"/>
</radialGradient>
<radialGradient id="paint12_radial_4_53" cx="0" cy="0" r="1" gradientUnits="userSpaceOnUse" gradientTransform="translate(33.9165 41.9448) scale(3.14607 3.14506)">
<stop stop-color="#B0F5FF"/>
<stop offset="0.93" stop-color="#63BBFF"/>
</radialGradient>
<radialGradient id="paint13_radial_4_53" cx="0" cy="0" r="1" gradientUnits="userSpaceOnUse" gradientTransform="translate(21.862 7.94288) scale(4.54254 4.54108)">
<stop stop-color="#B0F5FF"/>
<stop offset="0.93" stop-color="#63BBFF"/>
</radialGradient>
<radialGradient id="paint14_radial_4_53" cx="0" cy="0" r="1" gradientUnits="userSpaceOnUse" gradientTransform="translate(22.0706 15.2599) scale(3.24238 3.24133)">
<stop stop-color="#B0F5FF"/>
<stop offset="0.93" stop-color="#63BBFF"/>
</radialGradient>
<radialGradient id="paint15_radial_4_53" cx="0" cy="0" r="1" gradientUnits="userSpaceOnUse" gradientTransform="translate(10.7865 34.0019) scale(4.51043 4.50899)">
<stop stop-color="#B0F5FF"/>
<stop offset="0.93" stop-color="#63BBFF"/>
</radialGradient>
<radialGradient id="paint16_radial_4_53" cx="0" cy="0" r="1" gradientUnits="userSpaceOnUse" gradientTransform="translate(8.04173 6.99616) scale(4.51043 4.50899)">
<stop stop-color="#B0F5FF"/>
<stop offset="0.93" stop-color="#63BBFF"/>
</radialGradient>
<radialGradient id="paint17_radial_4_53" cx="0" cy="0" r="1" gradientUnits="userSpaceOnUse" gradientTransform="translate(27.0465 2.80809) scale(4.07705 4.07574)">
<stop stop-color="#B0F5FF"/>
<stop offset="0.93" stop-color="#63BBFF"/>
</radialGradient>
<radialGradient id="paint18_radial_4_53" cx="0" cy="0" r="1" gradientUnits="userSpaceOnUse" gradientTransform="translate(24.0449 23.4114) scale(43.0498 43.0359)">
<stop offset="0.53" stop-color="white"/>
<stop offset="0.66" stop-color="#C2E8FF"/>
<stop offset="0.95" stop-color="#2CAFFF"/>
<stop offset="1" stop-color="#12A5FF"/>
</radialGradient>
<clipPath id="clip0_4_53">
<rect width="50" height="50" fill="white"/>
</clipPath>
</defs>
</svg>
