<svg width="51" height="53" viewBox="0 0 51 53" fill="none" xmlns="http://www.w3.org/2000/svg">
<g style="mix-blend-mode:multiply" opacity="0.75">
<path fill-rule="evenodd" clip-rule="evenodd" d="M41.4581 43.9246C41.8328 43.8996 42.1533 43.7439 42.3711 43.4429C42.5889 43.142 42.6746 42.7928 42.5957 42.4346C41.8548 39.2053 38.2434 33.5815 38.2741 32.0293C38.3007 30.4636 42.147 24.9954 43.0211 21.807C43.1161 21.4403 43.0548 21.0914 42.8452 20.7874C42.6357 20.4834 42.3293 20.2968 41.9518 20.264C38.6567 19.9669 32.188 21.6724 30.7109 21.1637C29.2339 20.6551 25.2185 15.3003 22.4516 13.4917C22.1412 13.2916 21.7865 13.2372 21.4362 13.343C21.0859 13.4489 20.8208 13.6907 20.6732 14.0292C19.3755 17.0812 18.9947 23.7502 18.0467 24.9919C17.0988 26.2336 10.7685 28.3969 8.18965 30.4695C7.89353 30.706 7.73776 31.0176 7.7358 31.4002C7.72977 31.7694 7.87194 32.0938 8.15416 32.3465C10.6522 34.5303 16.8835 36.9523 17.7689 38.2276C18.6584 39.5163 18.7629 46.1855 19.9349 49.2845C20.0676 49.6264 20.3229 49.8872 20.6804 49.9996C21.0284 50.1295 21.3815 50.0815 21.7074 49.8949C24.5471 48.1989 28.7902 43.0222 30.2857 42.5702C31.7811 42.1181 38.1678 44.0816 41.485 43.9165L41.4581 43.9246Z" fill="#7B6A58"/>
</g>
<path fill-rule="evenodd" clip-rule="evenodd" d="M20.0646 8.80556C19.6739 8.92366 19.3994 9.18297 19.233 9.55657C17.8306 12.8459 17.9618 20.7708 16.3899 21.4076C12.683 22.9102 6.31353 25.0412 4.3791 25.7435C4.44914 26.413 4.99859 28.2307 5.36937 28.9709C5.44516 29.1243 5.54382 29.2562 5.67883 29.3623C8.37674 31.7208 15.1233 34.3397 16.0858 35.7239C16.303 37.9506 16.9155 42.409 17.3503 44.1879C17.6963 45.3324 17.9993 46.578 18.422 47.6845C18.567 48.0669 18.8398 48.3371 19.2148 48.4588C19.5938 48.5941 19.9779 48.5514 20.3267 48.3432C23.4021 46.5025 27.9733 40.9033 29.59 40.4146C31.2067 39.9259 38.1141 42.0553 41.6941 41.8842C42.0999 41.8645 42.4433 41.6872 42.6839 41.3646C42.9246 41.0421 43.0021 40.666 42.9151 40.2808C42.65 39.1119 42.2163 37.9205 41.8703 36.776C41.2604 35.0501 39.2872 31.003 38.2346 29.0288C38.2691 27.3432 42.4353 21.4256 43.375 17.9676C43.4245 17.7909 43.4336 17.6265 43.4158 17.4703C43.328 16.6446 42.765 14.8309 42.4525 14.2348C40.4664 14.7176 33.9696 16.4757 30.051 17.2781C28.403 17.6146 24.1223 10.9441 21.1192 8.98642C20.7871 8.76351 20.4015 8.70375 20.0108 8.82185L20.0646 8.80556Z" fill="url(#paint0_radial_3_14)"/>
<path fill-rule="evenodd" clip-rule="evenodd" d="M40.8094 38.8601C41.2151 38.8403 41.5585 38.663 41.7992 38.3405C42.0399 38.0179 42.1173 37.6418 42.0303 37.2567C41.2391 33.7634 37.3288 27.6862 37.3634 26.0006C37.3979 24.315 41.564 18.3974 42.5037 14.9393C42.6081 14.5551 42.5521 14.1753 42.3169 13.8349C42.0858 13.508 41.7619 13.312 41.3533 13.2739C37.7872 12.9559 30.785 14.7933 29.1932 14.2458C27.5974 13.6849 23.2645 7.91179 20.2614 5.95412C19.9158 5.73528 19.5437 5.67145 19.153 5.78955C18.7623 5.90765 18.4878 6.16696 18.3213 6.54055C16.9189 9.82992 16.5001 17.054 15.4782 18.3916C14.4603 19.7426 7.62216 22.0741 4.81582 24.3184C4.49683 24.5765 4.33572 24.9191 4.32436 25.3192C4.313 25.7194 4.4633 26.0708 4.78061 26.3422C7.47853 28.7007 14.2251 31.3196 15.1876 32.7039C16.15 34.0881 16.261 41.3137 17.5373 44.6604C17.6822 45.0427 17.9551 45.3129 18.33 45.4347C18.7091 45.5699 19.0932 45.5273 19.4419 45.319C22.5173 43.4783 27.0885 37.8792 28.7052 37.3905C30.3219 36.9018 37.2293 39.0312 40.8094 38.8601Z" fill="url(#paint1_radial_3_14)"/>
<path style="mix-blend-mode:multiply" fill-rule="evenodd" clip-rule="evenodd" d="M41.1481 15.1728C38.1427 19.0936 36.4702 21.392 33.7871 24.6276C33.4186 25.0623 33.1787 25.8254 33.4991 26.3017C35.4472 29.1955 39.8096 33.4608 40.9762 36.5908C41.6673 38.4391 39.8891 38.3448 38.8239 38.2259C35.1537 37.8071 32.3594 36.4916 28.7535 35.8476C27.3983 35.596 26.593 36.0452 25.7591 37.032C24.2568 38.8233 21.8097 42.8399 19.272 44.5622C18.5639 45.0407 18.0491 45.1376 17.6293 44.8677C17.7862 45.1435 18.0212 45.337 18.33 45.4347C18.7091 45.5699 19.0932 45.5273 19.442 45.319C22.5173 43.4783 27.0885 37.8792 28.7053 37.3905C30.322 36.9018 37.2293 39.0312 40.8094 38.8601C41.2151 38.8403 41.5585 38.663 41.7992 38.3405C42.0399 38.0179 42.1174 37.6418 42.0303 37.2567C41.2391 33.7634 37.3289 27.6862 37.3634 26.0006C37.3979 24.315 41.5641 18.3974 42.5037 14.9393C42.6081 14.5551 42.5521 14.1753 42.3169 13.8349C42.0858 13.508 41.7619 13.312 41.3534 13.2739C37.7872 12.9559 30.785 14.7933 29.1932 14.2458C27.5974 13.6849 23.2645 7.9118 20.2614 5.95413C19.9293 5.73121 19.5437 5.67145 19.153 5.78955C18.7623 5.90766 18.4878 6.16697 18.3213 6.54056C18.1066 7.0463 17.911 7.66383 17.7316 8.33522C18.3829 7.03625 19.1927 6.11553 20.5146 7.2295C22.9531 9.31375 24.5056 11.8716 26.1844 14.2149C27.2292 15.6771 27.7695 16.2485 31.0546 15.4906C34.8099 14.6347 37.9414 13.9526 40.2514 13.6658C41.5115 13.5053 41.8083 14.3413 41.1615 15.1687L41.1481 15.1728Z" fill="url(#paint2_radial_3_14)"/>
<path style="mix-blend-mode:screen" fill-rule="evenodd" clip-rule="evenodd" d="M17.8342 9.11239C17.3829 11.3648 17.1017 13.7422 16.73 16.0147C16.4034 17.9502 16.4042 19.0227 14.4393 20.0134C12.0138 21.2315 9.40701 22.093 6.95992 23.2882C4.31889 24.5715 3.85002 25.4038 6.54653 27.0281C8.14444 27.9851 15.112 31.2866 15.8421 32.3884C16.491 33.3678 16.479 35.5169 16.809 36.7544C16.9611 37.355 17.4506 38.1474 18.095 36.7771C23.1297 26.1445 24.5882 24.0137 34.4748 17.0283C35.5424 16.2795 36.6653 15.6167 37.7545 14.8907C38.0588 14.6812 38.4057 14.2237 37.3815 14.3863C33.8035 14.9535 31.1691 16.1613 28.1103 16.792C26.7533 17.07 25.4243 15.7377 24.6688 14.7464C23.0984 12.6643 21.8915 10.3253 20.3533 8.20398C19.1491 6.55484 18.1535 7.59051 17.8436 9.09485L17.8342 9.11239Z" fill="url(#paint3_radial_3_14)"/>
<path style="mix-blend-mode:screen" fill-rule="evenodd" clip-rule="evenodd" d="M12.3212 22.6375C11.5799 22.7146 11.5312 21.9211 12.1331 21.5775C13.1107 21.0175 14.1991 20.6297 15.1767 20.0697C16.1772 19.4881 16.7181 18.9425 16.9565 17.4451C17.3841 14.7737 17.6257 11.4384 18.198 9.00245C18.4053 8.13159 18.9228 8.09269 19.0674 8.96006C19.5014 11.709 19.6333 14.4317 19.686 17.2813C19.7117 18.7283 19.7079 20.2724 17.9542 21.0376C16.6693 21.6023 13.7943 22.5008 12.3117 22.655L12.3212 22.6375ZM9.46454 22.5752C8.64552 22.8816 7.04945 23.5844 6.13543 24.2575C5.14871 24.9819 5.451 25.155 6.46425 24.9075C7.55833 24.6356 8.63614 24.3098 9.67605 23.9073C11.1524 23.3434 10.5759 22.1658 9.45514 22.5927L9.46454 22.5752Z" fill="url(#paint4_radial_3_14)"/>
<path style="mix-blend-mode:screen" fill-rule="evenodd" clip-rule="evenodd" d="M37.327 36.533C36.8896 36.8856 35.7719 37.5173 37.4671 37.8719C38.1886 38.0212 38.926 38.0775 39.6566 38.0623C41.2378 38.0399 40.9339 36.9856 40.3968 35.9871C39.3564 34.0533 37.6807 31.9148 36.1892 30.1908C35.5083 29.3974 34.8673 29.0768 35.4685 30.4821C36.1537 32.0678 36.9291 33.6114 37.6048 35.2146C37.9136 35.9442 37.9151 36.0466 37.327 36.533Z" fill="url(#paint5_radial_3_14)"/>
<path fill-rule="evenodd" clip-rule="evenodd" d="M15.9141 35.4966C15.7202 34.174 15.4957 33.1397 15.1835 32.6904C14.221 31.3061 7.47446 28.6873 4.77655 26.3287C4.58077 26.1675 4.44422 25.959 4.37503 25.7301C4.44506 26.3996 4.99451 28.2173 5.3653 28.9575C5.44108 29.1109 5.53974 29.2427 5.67475 29.3488C8.23359 31.5878 14.4542 34.0717 15.8966 35.4872L15.9141 35.4966Z" fill="url(#paint6_radial_3_14)"/>
<path fill-rule="evenodd" clip-rule="evenodd" d="M42.5037 14.9393C41.564 18.3974 37.3978 24.315 37.3633 26.0006C37.3523 26.5476 37.7518 27.529 38.3095 28.7417C38.7088 26.7548 42.5159 21.2543 43.4195 17.9688C43.469 17.7922 43.4781 17.6278 43.4603 17.4715C43.3724 16.6458 42.8095 14.8322 42.497 14.236C42.5662 14.4649 42.568 14.7142 42.4943 14.9569L42.5037 14.9393Z" fill="url(#paint7_radial_3_14)"/>
<path fill-rule="evenodd" clip-rule="evenodd" d="M40.8094 38.8601C37.2293 39.0312 30.3219 36.9017 28.7052 37.3904C29.3067 37.5319 30.0108 39.8612 29.6169 40.4065C31.2336 39.9178 38.141 42.0472 41.7211 41.8761C42.1268 41.8563 42.4702 41.679 42.7109 41.3565C42.9515 41.0339 43.029 40.6578 42.942 40.2727C42.685 39.1307 42.273 37.9621 41.9217 36.8486C41.9624 36.9833 42.0031 37.1179 42.0262 37.2432C42.1173 37.6418 42.0399 38.0179 41.7951 38.327C41.5544 38.6495 41.211 38.8268 40.8053 38.8466L40.8094 38.8601Z" fill="url(#paint8_radial_3_14)"/>
<path style="mix-blend-mode:screen" opacity="0.5" fill-rule="evenodd" clip-rule="evenodd" d="M20.8208 48.0321C20.4803 47.6354 19.79 45.4489 19.8863 45.0377C19.7409 45.1405 19.5779 45.2338 19.442 45.319C19.0932 45.5273 18.7091 45.5699 18.33 45.4347C18.0171 45.3235 17.7822 45.1301 17.6293 44.8677C17.5955 44.8044 17.5576 44.7277 17.5373 44.6604C17.5006 44.5392 17.4465 44.4086 17.4058 44.274C17.7436 45.3915 18.0478 46.5927 18.453 47.6899C18.598 48.0722 18.8708 48.3424 19.2458 48.4642C19.6248 48.5994 20.009 48.5567 20.3577 48.3485C20.5072 48.2592 20.666 48.1524 20.8384 48.0415L20.8208 48.0321Z" fill="url(#paint9_radial_3_14)"/>
<path style="mix-blend-mode:screen" opacity="0.5" fill-rule="evenodd" clip-rule="evenodd" d="M41.1509 41.8868C41.2146 41.3679 40.5781 39.1651 40.2702 38.8761C40.4482 38.8811 40.6355 38.8685 40.7959 38.8641C41.2016 38.8444 41.545 38.6671 41.7857 38.3445C41.9847 38.0786 42.0731 37.7874 42.055 37.4843C42.0481 37.4129 42.0372 37.3281 42.0169 37.2607C41.9802 37.1396 41.953 37.0008 41.9123 36.8662C42.2501 37.9837 42.6622 39.1523 42.9326 40.2902C43.0237 40.6888 42.9462 41.0649 42.7015 41.374C42.4608 41.6966 42.1174 41.8739 41.7117 41.8936C41.5378 41.9021 41.3464 41.9012 41.1415 41.9043L41.1509 41.8868Z" fill="url(#paint10_radial_3_14)"/>
<path style="mix-blend-mode:screen" opacity="0.5" fill-rule="evenodd" clip-rule="evenodd" d="M7.38507 30.5805C6.68379 29.7198 6.04227 27.6948 6.50848 27.5833C5.85253 27.1644 5.25454 26.7426 4.7806 26.3422C4.58483 26.181 4.44828 25.9724 4.37909 25.7435C4.44912 26.413 4.99857 28.2307 5.36936 28.9709C5.44514 29.1243 5.5438 29.2562 5.67881 29.3623C6.13927 29.7668 6.71972 30.1791 7.3716 30.5846L7.38507 30.5805Z" fill="url(#paint11_radial_3_14)"/>
<path style="mix-blend-mode:screen" opacity="0.5" fill-rule="evenodd" clip-rule="evenodd" d="M42.6831 19.9107C42.7902 18.8056 42.2026 16.7643 41.7526 16.9297C42.0667 16.2176 42.331 15.5352 42.5037 14.9393C42.5774 14.6966 42.5756 14.4474 42.5064 14.2185C42.8189 14.8147 43.3684 16.6323 43.4697 17.454C43.4916 17.6237 43.4825 17.7881 43.4289 17.9513C43.2696 18.5431 43.0147 19.2079 42.6966 19.9066L42.6831 19.9107Z" fill="url(#paint12_radial_3_14)"/>
<defs>
<radialGradient id="paint0_radial_3_14" cx="0" cy="0" r="1" gradientUnits="userSpaceOnUse" gradientTransform="translate(19.2146 49.0907) rotate(-16.8189) scale(16.7628 16.7527)">
<stop stop-color="#FC8200"/>
<stop offset="1" stop-color="#E34F00"/>
</radialGradient>
<radialGradient id="paint1_radial_3_14" cx="0" cy="0" r="1" gradientUnits="userSpaceOnUse" gradientTransform="translate(13.7514 16.3273) rotate(-16.8189) scale(37.0584 37.036)">
<stop stop-color="#FCF800"/>
<stop offset="1" stop-color="#FC9700"/>
</radialGradient>
<radialGradient id="paint2_radial_3_14" cx="0" cy="0" r="1" gradientUnits="userSpaceOnUse" gradientTransform="translate(14.1375 14.4913) rotate(-16.8189) scale(38.5785 38.5551)">
<stop stop-color="white"/>
<stop offset="0.1" stop-color="#FFFCF9"/>
<stop offset="0.22" stop-color="#FFF6E9"/>
<stop offset="0.36" stop-color="#FFECCE"/>
<stop offset="0.51" stop-color="#FFDEA9"/>
<stop offset="0.67" stop-color="#FFCB7A"/>
<stop offset="0.84" stop-color="#FFB540"/>
<stop offset="1" stop-color="#FF9D00"/>
</radialGradient>
<radialGradient id="paint3_radial_3_14" cx="0" cy="0" r="1" gradientUnits="userSpaceOnUse" gradientTransform="translate(7.52521 10.9061) rotate(-16.8189) scale(32.8079 32.788)">
<stop stop-color="#FFF261"/>
<stop offset="0.11" stop-color="#FAED5F"/>
<stop offset="0.23" stop-color="#ECE05A"/>
<stop offset="0.36" stop-color="#D6CB51"/>
<stop offset="0.5" stop-color="#B6AD45"/>
<stop offset="0.64" stop-color="#8E8636"/>
<stop offset="0.78" stop-color="#5C5723"/>
<stop offset="0.92" stop-color="#22210D"/>
<stop offset="1"/>
</radialGradient>
<radialGradient id="paint4_radial_3_14" cx="0" cy="0" r="1" gradientUnits="userSpaceOnUse" gradientTransform="translate(13.733 13.0559) rotate(-16.8189) scale(19.4792 19.4675)">
<stop stop-color="#FFFACF"/>
<stop offset="1"/>
</radialGradient>
<radialGradient id="paint5_radial_3_14" cx="0" cy="0" r="1" gradientUnits="userSpaceOnUse" gradientTransform="translate(27.2241 35.4577) rotate(-16.8189) scale(23.3357 23.3216)">
<stop/>
<stop offset="0.17" stop-color="#251B00"/>
<stop offset="0.54" stop-color="#846100"/>
<stop offset="1" stop-color="#FFBB00"/>
</radialGradient>
<radialGradient id="paint6_radial_3_14" cx="0" cy="0" r="1" gradientUnits="userSpaceOnUse" gradientTransform="translate(6.36323 27.0541) rotate(-16.8189) scale(11.5693 11.5623)">
<stop stop-color="#FCAC00"/>
<stop offset="1" stop-color="#E36600"/>
</radialGradient>
<radialGradient id="paint7_radial_3_14" cx="0" cy="0" r="1" gradientUnits="userSpaceOnUse" gradientTransform="translate(64.253 20.5909) rotate(-16.8189) scale(27.7129 27.6961)">
<stop stop-color="#FCAC00"/>
<stop offset="1" stop-color="#E36600"/>
</radialGradient>
<radialGradient id="paint8_radial_3_14" cx="0" cy="0" r="1" gradientUnits="userSpaceOnUse" gradientTransform="translate(43.9589 36.2916) rotate(-16.8189) scale(14.7361 14.7272)">
<stop stop-color="#FCAC00"/>
<stop offset="1" stop-color="#FF6600"/>
</radialGradient>
<radialGradient id="paint9_radial_3_14" cx="0" cy="0" r="1" gradientUnits="userSpaceOnUse" gradientTransform="translate(15.3123 42.8936) rotate(-16.8189) scale(8.24771 8.24272)">
<stop stop-color="#FFF261"/>
<stop offset="0.11" stop-color="#FAED5F"/>
<stop offset="0.23" stop-color="#ECE05A"/>
<stop offset="0.36" stop-color="#D6CB51"/>
<stop offset="0.5" stop-color="#B6AD45"/>
<stop offset="0.64" stop-color="#8E8636"/>
<stop offset="0.78" stop-color="#5C5723"/>
<stop offset="0.92" stop-color="#22210D"/>
<stop offset="1"/>
</radialGradient>
<radialGradient id="paint10_radial_3_14" cx="0" cy="0" r="1" gradientUnits="userSpaceOnUse" gradientTransform="translate(44.072 34.8174) rotate(-16.8189) scale(8.61366 8.60844)">
<stop stop-color="#FFF261"/>
<stop offset="0.11" stop-color="#FAED5F"/>
<stop offset="0.23" stop-color="#ECE05A"/>
<stop offset="0.36" stop-color="#D6CB51"/>
<stop offset="0.5" stop-color="#B6AD45"/>
<stop offset="0.64" stop-color="#8E8636"/>
<stop offset="0.78" stop-color="#5C5723"/>
<stop offset="0.92" stop-color="#22210D"/>
<stop offset="1"/>
</radialGradient>
<radialGradient id="paint11_radial_3_14" cx="0" cy="0" r="1" gradientUnits="userSpaceOnUse" gradientTransform="translate(4.40364 25.1924) rotate(-16.8189) scale(5.79873 5.79522)">
<stop stop-color="#FFF261"/>
<stop offset="0.11" stop-color="#FAED5F"/>
<stop offset="0.23" stop-color="#ECE05A"/>
<stop offset="0.36" stop-color="#D6CB51"/>
<stop offset="0.5" stop-color="#B6AD45"/>
<stop offset="0.64" stop-color="#8E8636"/>
<stop offset="0.78" stop-color="#5C5723"/>
<stop offset="0.92" stop-color="#22210D"/>
<stop offset="1"/>
</radialGradient>
<radialGradient id="paint12_radial_3_14" cx="0" cy="0" r="1" gradientUnits="userSpaceOnUse" gradientTransform="translate(43.9948 12.9163) rotate(-16.8189) scale(7.60028 7.59568)">
<stop stop-color="#FFF261"/>
<stop offset="0.11" stop-color="#FAED5F"/>
<stop offset="0.23" stop-color="#ECE05A"/>
<stop offset="0.36" stop-color="#D6CB51"/>
<stop offset="0.5" stop-color="#B6AD45"/>
<stop offset="0.64" stop-color="#8E8636"/>
<stop offset="0.78" stop-color="#5C5723"/>
<stop offset="0.92" stop-color="#22210D"/>
<stop offset="1"/>
</radialGradient>
</defs>
</svg>
