<svg width="48" height="63" viewBox="0 0 48 63" fill="none" xmlns="http://www.w3.org/2000/svg">
<path d="M46.6855 41.9534L46.6245 42.9604V43.0443C46.5558 44.0284 46.4872 44.9896 46.4109 45.928C46.4109 45.928 46.4109 45.9737 46.4109 46.0653C46.2965 47.4613 46.1668 48.7963 46.0295 50.055C46.0295 50.1237 46.0142 50.1924 46.0066 50.261C45.4115 55.6163 44.6334 59.484 44.0003 60.2698C41.8185 62.9856 33.6558 63.8476 30.3984 60.8114C29.872 60.3232 29.5135 59.423 29.2923 58.2253C29.2541 58.0041 29.216 57.7905 29.1855 57.5616C28.6133 53.3964 29.2846 46.3475 29.8339 39.7411C30.0933 36.5753 30.3298 33.5086 30.3832 30.9072C30.3984 30.4418 30.3984 29.9994 30.3984 29.5722C30.3984 27.4057 30.2153 25.5824 29.9254 24.0643C29.7881 23.3777 29.6279 22.7446 29.4448 22.18C29.2999 21.7071 29.1397 21.2799 28.9566 20.8832C28.3463 19.4948 27.5758 18.5564 26.729 17.9538C24.5778 16.4204 21.9612 17.0765 20.2905 18.1826C20.2218 18.2208 20.1532 18.2666 20.0845 18.32C19.993 18.381 19.9014 18.4496 19.8175 18.5183C19.6497 18.648 19.5047 18.8235 19.3674 19.0294C19.3522 19.0599 19.3293 19.0905 19.3064 19.1286C18.391 20.6238 18.124 23.7363 18.0477 26.5284C18.0477 26.6886 18.0477 26.8411 18.0477 26.9937C18.0477 27.1615 18.0477 27.337 18.0477 27.5048C18.0477 27.7566 18.0477 28.0007 18.0477 28.2448C18.0477 29.1984 18.0477 30.0452 18.0477 30.6936C18.0477 33.8061 13.6841 35.8124 9.24424 35.2021L9.17558 35.1869C8.85518 35.1411 8.53478 35.0877 8.21437 35.0038H8.19912C7.43625 34.8283 6.68102 34.5689 5.9563 34.2256C5.50621 34.0044 5.06375 33.7603 4.64418 33.4704C2.48528 32.0057 1.37912 28.2295 1.25707 23.866C1.12738 19.5558 1.96653 14.6735 3.68297 10.8363C3.68297 10.8363 3.69823 10.7829 3.72111 10.7447C4.57552 8.86047 5.64353 7.2432 6.91751 6.07602C9.71721 3.50517 14.1342 1.53699 19.0089 0.606295C23.5327 -0.263368 28.4531 -0.232854 32.8243 1.0335C36.692 2.15491 40.1402 4.23752 42.5203 7.51783C42.9322 8.08998 43.3137 8.75367 43.6646 9.49364C44.0155 10.2336 44.3359 11.0575 44.6182 11.9424C44.6182 11.9577 44.6182 11.9653 44.6182 11.9729C45.8082 15.6652 46.4796 20.5094 46.7771 25.7045C47.0746 31.0369 46.9983 36.7431 46.7008 41.9534H46.6855Z" fill="url(#paint0_linear_7_631)"/>
<path d="M46.6168 43.0443C46.6168 43.0443 46.6168 43.052 46.6168 43.0596C42.238 51.5731 31.0621 50.5585 29.1854 57.554C27.7436 51.6952 29.8339 39.7411 29.8339 39.7411C30.3831 39.5047 30.9095 39.2682 31.4282 39.0241C42.2685 33.9358 45.8921 27.5811 46.7694 25.7045C46.9296 25.3536 46.9983 25.1552 46.9983 25.1552C48.6461 35.6446 46.6245 43.0443 46.6245 43.0443H46.6168Z" fill="url(#paint1_linear_7_631)"/>
<path d="M44.5648 12.1408C44.5419 12.2247 44.5114 12.3391 44.458 12.4917C44.2291 13.2317 43.8477 13.9869 43.3366 14.7574C39.9189 19.8686 31.1918 25.529 30.3755 30.8996C29.0787 28.9695 28.949 20.8832 28.949 20.8832C29.0024 20.7535 29.4677 19.6321 30.5815 16.5578C30.5815 16.5272 30.5968 16.5044 30.6044 16.4738V16.451C30.8866 15.6652 31.1994 14.7727 31.5656 13.7428C33.4956 8.25019 32.7862 1.03351 32.7862 1.03351C39.2171 1.95657 42.238 6.08366 43.5807 8.99016C43.5807 8.99016 43.5807 8.99779 43.5807 9.01305C44.2978 10.554 44.5419 11.7517 44.5724 11.9424C44.5724 11.9577 44.5724 11.9653 44.5724 11.973C44.5724 11.973 44.5724 12.0264 44.5343 12.1408H44.5648Z" fill="url(#paint2_linear_7_631)"/>
<path d="M26.729 17.969C26.729 17.969 23.7538 19.8381 21.0075 18.6098C20.7634 18.503 20.5193 18.3581 20.2828 18.1826C17.8874 16.4052 15.8811 11.6297 11.5251 9.73776C6.97086 7.75432 3.95755 10.5464 3.68292 10.821C3.66766 10.8287 3.66003 10.8363 3.66003 10.8363C4.03384 3.78743 11.9676 -0.904174 18.9859 0.606294C21.6331 1.17844 22.785 2.74994 23.4182 4.8707C23.4182 4.8707 23.4487 4.96987 23.4868 5.10718C23.5402 5.32841 23.6318 5.70222 23.7538 6.22096C23.7538 6.24385 23.7538 6.26673 23.7691 6.28962C24.4251 9.66147 24.448 13.9869 26.7214 17.9538C26.7214 17.9614 26.7214 17.9614 26.7214 17.969H26.729Z" fill="url(#paint3_linear_7_631)"/>
<path d="M19.3598 19.0294C18.2307 21.112 4.19405 19.7694 1.21888 23.8889C-1.75628 28.0083 2.86667 34.4926 8.17619 35.0114C8.17619 35.0114 11.0903 28.3058 18.0324 27.0013C18.0324 27.0013 19.9777 23.1641 19.3598 19.037V19.0294Z" fill="url(#paint4_linear_7_631)"/>
<g style="mix-blend-mode:multiply" opacity="0.71">
<path d="M4.07202 33.3865C7.23027 36.3083 9.29763 30.9377 13.0204 28.5194C16.7432 26.1012 17.8569 26.803 18.2918 26.4292C18.7266 26.063 18.04 27.0013 18.04 27.0013V27.5048C18.04 27.5048 13.9511 28.4813 11.5328 30.9148C9.11454 33.3483 9.22134 35.2097 9.22134 35.2097L8.17622 35.0114C8.17622 35.0114 6.27669 34.9809 4.07202 33.3865Z" fill="#CA0092"/>
</g>
<g style="mix-blend-mode:multiply" opacity="0.71">
<path d="M46.6855 41.9534L46.6245 42.9604V43.0443C46.6245 43.0443 46.6169 43.052 46.6093 43.0596C46.5406 43.319 45.2742 47.5529 39.5757 50.1695C33.7016 52.87 29.3914 56.013 29.2846 58.2177C29.2465 58.0041 29.2084 57.7905 29.1778 57.5616C27.736 51.6952 29.8263 39.7411 29.8263 39.7411C30.0857 36.5753 30.3221 33.5086 30.3755 30.9072C29.0787 28.9695 28.949 20.8832 28.949 20.8832C28.3387 19.4948 27.5682 18.5565 26.7214 17.9538C26.7214 17.9614 26.7214 17.9614 26.7214 17.969C26.7214 17.969 23.7463 19.8381 21 18.6099C20.7558 18.5031 20.5117 18.3581 20.2752 18.1826C20.2066 18.2208 20.1379 18.2666 20.0693 18.32C19.3293 17.5037 12.9441 10.4625 9.87742 9.67673C6.7802 8.89098 3.95761 10.6379 3.67535 10.821C3.66009 10.8287 3.65247 10.8363 3.65247 10.8363C3.65247 10.8363 3.66772 10.7829 3.69061 10.7447C3.8737 10.3481 4.88067 8.74604 8.93147 8.49429C13.5544 8.20441 16.972 15.0473 20.3439 16.4433C23.7157 17.8394 25.1652 15.3829 25.1652 15.3829C25.1652 15.3829 23.9675 10.3633 23.4106 4.87833C23.4106 4.89358 23.4411 4.96987 23.4793 5.10719C23.5327 5.32842 23.6242 5.70222 23.7463 6.22096C23.7463 6.24385 23.7463 6.26674 23.7615 6.28962C23.9141 7.00671 24.1048 7.98318 24.3184 9.21139C24.8066 12.0569 26.1035 15.8788 28.0107 16.8705C29.7347 17.7707 30.4747 16.6874 30.5968 16.4738C30.5968 16.4738 30.5968 16.4586 30.5968 16.451C30.5968 16.451 30.5968 16.451 30.5968 16.4738C30.5968 16.4891 30.5815 16.5196 30.5663 16.5578C30.3984 17.0841 29.7118 19.3498 29.4448 21.9359C29.4372 22.0198 29.4296 22.1038 29.422 22.18C29.3686 23.0726 29.5669 23.6753 29.9026 24.0643C30.5891 24.8653 31.8631 24.8043 32.8625 24.5831C34.4111 24.2474 40.3004 17.2443 42.2152 15.2838C43.7333 13.7352 43.7028 10.6913 43.6265 9.49365C43.6112 9.24953 43.5883 9.0817 43.5883 9.01304C43.6722 9.24953 44.3283 11.1185 44.58 11.9424C44.58 11.9577 44.58 11.9653 44.58 11.9729C44.58 11.9729 44.58 12.0263 44.5419 12.1408C44.458 12.4764 44.1757 13.3232 43.3137 14.7574C42.9323 15.3906 42.444 16.1458 41.7956 17.0231C38.4771 21.5392 33.366 24.3924 31.5351 30.4647C29.7042 36.5295 31.3978 39.0241 31.3978 39.0241C31.3978 39.0241 28.7888 44.6845 29.2923 50.3373C29.7958 55.9901 34.8383 51.2604 39.6977 48.6056C44.5648 45.9432 46.6627 41.9534 46.6627 41.9534H46.6855Z" fill="#CA0092"/>
</g>
<g style="mix-blend-mode:multiply" opacity="0.3">
<path d="M45.9989 50.261C45.4038 55.6163 44.6257 59.484 43.9925 60.2698C41.8107 62.9856 33.6481 63.8476 30.3907 60.8114C29.8643 60.3232 29.5058 59.423 29.2845 58.2253C30.0169 60.3384 36.9818 63.5577 41.2157 61.0555C44.1527 59.3238 45.442 54.0906 45.9989 50.261Z" fill="#CA0092"/>
</g>
<g style="mix-blend-mode:multiply" opacity="0.3">
<path d="M18.0247 30.6936C18.0247 33.8061 13.6612 35.8124 9.22131 35.2021C9.22131 35.2021 13.0509 35.1487 15.5378 32.9212C17.9408 30.7699 18.0171 28.4126 18.0171 28.2524C18.0171 29.1984 18.0171 30.0452 18.0171 30.6936H18.0247Z" fill="#CA0092"/>
</g>
<g style="mix-blend-mode:soft-light" opacity="0.4">
<path d="M1.21892 23.8889C-0.0245445 26.9937 6.17753 31.4717 8.06943 31.3725C9.96133 31.2734 14.0655 27.4209 16.1634 26.3376C18.2613 25.2544 18.9173 21.0434 18.4367 20.4178C17.9561 19.7923 10.625 20.2576 7.0777 21.2417C3.53802 22.2334 1.21892 23.8812 1.21892 23.8812V23.8889Z" fill="#FFD8FF"/>
</g>
<g style="mix-blend-mode:soft-light" opacity="0.4">
<path d="M5.10188 7.91452C4.88828 8.78419 6.96327 7.09826 13.6231 9.67674C20.2828 12.2476 22.2358 5.81665 22.0145 3.50518C21.8009 1.19371 9.65617 -2.8571 5.10188 7.91452Z" fill="#FFD8FF"/>
</g>
<g style="mix-blend-mode:soft-light" opacity="0.4">
<path d="M34.8078 2.42191C33.5033 2.63551 33.366 8.92912 32.8548 13.9869C32.3437 19.0447 41.3836 17.5266 43.1153 11.2406C44.847 4.95461 34.8078 2.42191 34.8078 2.42191Z" fill="#FFD8FF"/>
</g>
<g style="mix-blend-mode:soft-light" opacity="0.4">
<path d="M32.832 38.9173C30.0933 40.3209 29.8873 46.3628 31.6266 49.4677C33.366 52.5725 40.7352 48.3081 44.6029 43.3953C48.4706 38.4824 46.9525 30.1672 46.3728 29.6637C45.793 29.1603 36.7912 36.888 32.8396 38.9173H32.832Z" fill="#FFD8FF"/>
</g>
<path d="M13.9892 4.08495C13.7985 6.54899 17.0559 6.40405 18.0172 3.50517C18.9784 0.606293 14.1342 2.20068 13.9892 4.08495Z" fill="white"/>
<path d="M36.4707 7.05248C34.9832 7.62463 36.4707 8.86047 37.4853 8.49429C38.4999 8.13575 37.4167 6.68631 36.4707 7.05248Z" fill="white"/>
<path d="M3.6601 25.7579C2.82095 26.9174 4.81965 28.1456 6.1928 26.3453C7.56595 24.5449 4.4611 24.667 3.6601 25.7579Z" fill="white"/>
<g style="mix-blend-mode:screen" opacity="0.47">
<path d="M31.1688 39.6191C31.1688 39.6191 34.0143 39.0622 39.2857 36.1709C44.5647 33.2797 46.6854 27.2455 46.6854 27.2455C46.6854 27.2455 41.3378 35.4691 31.1688 39.6115V39.6191Z" fill="#FFCCE0"/>
</g>
<g style="mix-blend-mode:screen" opacity="0.47">
<path d="M33.3125 1.50647C33.3125 1.50647 33.6406 9.7225 30.6196 16.4433C30.6196 16.4433 35.2883 10.2718 33.3125 1.50647Z" fill="#FFCCE0"/>
</g>
<g style="mix-blend-mode:screen" opacity="0.47">
<path d="M4.54492 7.28898C4.54492 7.28898 7.93203 1.8574 13.9892 1.29288C20.0387 0.728364 22.1976 2.42192 22.1976 2.42192C22.1976 2.42192 20.1378 -0.141299 14.5842 0.430848C8.77118 1.03351 5.56716 5.05379 4.55255 7.28135L4.54492 7.28898Z" fill="#FFCCE0"/>
</g>
<g style="mix-blend-mode:screen" opacity="0.47">
<path d="M2.6759 23.0116C2.6759 23.0116 5.86467 21.2112 11.5022 20.8527C17.1398 20.4941 18.4366 19.9143 18.4366 19.9143C18.4366 19.9143 17.3 20.9595 12.7686 21.1044C8.22954 21.2493 2.68353 23.0116 2.68353 23.0116H2.6759Z" fill="#FFCCE0"/>
</g>
<g style="mix-blend-mode:multiply" opacity="0.71">
<path d="M18.9555 20.5399C18.4672 19.8075 15.6294 25.1094 15.6294 26.1011C15.6294 27.0929 16.9568 26.6809 18.1468 25.7502C19.3369 24.8195 19.1462 20.8221 18.9555 20.5322V20.5399Z" fill="#CA0092"/>
</g>
<path d="M7.71845 11.2025C5.26204 11.6373 4.21692 14.8184 4.62886 17.5647C5.04081 20.311 9.5951 16.0466 10.3961 13.5139C11.1971 10.9812 7.71845 11.2025 7.71845 11.2025Z" fill="white"/>
<g style="mix-blend-mode:multiply" opacity="0.2">
<path d="M10.5564 20.5704C9.51124 20.2958 13.8519 15.6194 15.8735 15.4287C17.8951 15.238 19.6497 18.0224 19.726 18.2665C19.8099 18.5183 18.8334 19.6702 15.0572 20.2652C11.2887 20.8603 10.5487 20.5628 10.5487 20.5628L10.5564 20.5704Z" fill="#E72F92"/>
</g>
<g style="mix-blend-mode:multiply" opacity="0.2">
<path d="M36.7988 61.1089C36.4708 59.9189 39.8503 55.4103 43.2908 55.4027C45.8006 55.3951 44.4198 60.8267 42.6042 61.437C40.781 62.0473 37.493 63.5882 36.7988 61.1089Z" fill="#E72F92"/>
</g>
<path d="M44.8089 23.0116C43.985 22.3402 43.1535 27.3294 44.1986 27.7871C45.2437 28.2448 46.5406 24.4152 44.8089 23.0116Z" fill="white"/>
<g style="mix-blend-mode:multiply" opacity="0.71">
<path d="M47.1509 28.878C46.7694 27.3065 45.1293 39.97 45.6557 42.3501C46.182 44.7303 48.8749 35.9955 47.1509 28.878Z" fill="#CA0092"/>
</g>
<path d="M33.5338 26.3376C32.9845 27.2607 37.9202 23.2557 40.3004 20.6467C42.6805 18.0377 43.3289 14.7574 43.3289 14.7574C43.3289 14.7574 34.4034 24.8806 33.5261 26.3376H33.5338Z" fill="white"/>
<path d="M34.7848 52.8548C34.7848 52.8548 38.5686 51.1383 40.3079 50.261C42.0396 49.3837 44.0612 47.0799 44.0612 47.0799C44.0612 47.0799 42.2685 48.5827 39.423 49.9635C36.5851 51.3443 34.7848 52.8471 34.7848 52.8471V52.8548Z" fill="white"/>
<path d="M20.6871 0.804626C20.6871 0.804626 22.4188 1.6514 23.2427 3.81793C24.0666 5.98446 24.1582 8.28831 24.1582 8.28831C24.1582 8.28831 24.3031 4.88594 23.6318 2.9559C22.9605 1.02586 20.6948 0.804626 20.6948 0.804626H20.6871Z" fill="white"/>
<path d="M9.87732 33.0585C9.87732 33.0585 11.1284 31.0674 13.6153 29.8163C16.1099 28.5652 17.4602 27.6574 17.4602 27.6574C17.4602 27.6574 12.2651 28.4889 9.87732 33.0585Z" fill="white"/>
<path d="M5.39941 9.99714C5.39941 9.99714 8.56529 9.63096 10.5564 10.5159C12.5551 11.4008 14.9581 13.1554 14.9581 13.1554C14.9581 13.1554 12.0211 9.93611 9.99948 9.40973C7.97789 8.88336 5.39941 9.99714 5.39941 9.99714Z" fill="white"/>
<defs>
<linearGradient id="paint0_linear_7_631" x1="24.0819" y1="62.7338" x2="24.0819" y2="0.0112661" gradientUnits="userSpaceOnUse">
<stop stop-color="#FFBBA4"/>
<stop offset="1" stop-color="#FFD1C9"/>
</linearGradient>
<linearGradient id="paint1_linear_7_631" x1="38.1491" y1="57.554" x2="38.1491" y2="25.1552" gradientUnits="userSpaceOnUse">
<stop stop-color="#D60042"/>
<stop offset="1" stop-color="#FF1820"/>
</linearGradient>
<linearGradient id="paint2_linear_7_631" x1="36.7759" y1="30.8996" x2="36.7759" y2="1.03351" gradientUnits="userSpaceOnUse">
<stop stop-color="#D60042"/>
<stop offset="1" stop-color="#FF1820"/>
</linearGradient>
<linearGradient id="paint3_linear_7_631" x1="15.1945" y1="19.0294" x2="15.1945" y2="0.324034" gradientUnits="userSpaceOnUse">
<stop stop-color="#D60042"/>
<stop offset="1" stop-color="#FF1820"/>
</linearGradient>
<linearGradient id="paint4_linear_7_631" x1="9.87738" y1="35.0038" x2="9.87738" y2="19.0294" gradientUnits="userSpaceOnUse">
<stop stop-color="#D60042"/>
<stop offset="1" stop-color="#FF1820"/>
</linearGradient>
</defs>
</svg>
