<svg width="66" height="67" viewBox="0 0 66 67" fill="none" xmlns="http://www.w3.org/2000/svg">
<path d="M55.324 0.134613H10.599C4.89404 0.134613 0.269226 4.82744 0.269226 10.6163V55.999C0.269226 61.7879 4.89404 66.4808 10.599 66.4808H55.324C61.029 66.4808 65.6538 61.7879 65.6538 55.999V10.6163C65.6538 4.82744 61.029 0.134613 55.324 0.134613Z" fill="#C53A5B"/>
<path d="M58.8801 32.4418C58.8801 47.0736 47.2045 58.9208 32.7849 58.9208C18.3652 58.9208 6.68213 47.0736 6.68213 32.4418C6.68213 31.0992 6.77986 29.7795 6.97533 28.4826C8.86237 15.7428 19.6884 5.96289 32.7773 5.96289C45.8663 5.96289 56.3314 15.4071 58.4816 27.8265C58.7447 29.337 58.8725 30.8627 58.8725 32.4418H58.8801Z" fill="url(#paint0_linear_7_596)"/>
<g style="mix-blend-mode:multiply" opacity="0.57">
<path d="M8.78717 36.2562C10.3434 42.6566 46.182 39.3229 52.0612 27.6358C57.9403 15.9488 41.6862 7.88532 34.3185 8.20572C28.9055 8.44221 3.19373 13.1872 8.78717 36.2562Z" fill="#E33292"/>
</g>
<g style="mix-blend-mode:soft-light">
<path d="M29.6949 58.7377C28.4469 57.6545 40.1225 55.8999 48.5201 49.8275C56.9178 43.7551 58.4139 37.4539 58.4139 37.4539C58.4139 37.4539 56.5344 48.6984 46.8511 54.7479C37.1679 60.7974 29.6949 58.7377 29.6949 58.7377Z" fill="#FF75C7"/>
</g>
<path d="M7.24597 25.988C7.24597 25.988 3.41175 27.3612 3.17869 28.5741C2.94563 29.7871 2.17127 39.1245 5.74235 41.2377C7.12568 42.0539 16.1925 47.1956 32.7773 47.1956C49.3622 47.1956 58.9853 42.1836 60.0453 41.5581C61.1129 40.9249 63.9848 33.6014 62.5864 28.5818C62.1278 26.9416 57.9403 25.4312 57.9403 25.4312C57.9403 25.4312 58.6545 27.7503 58.3989 28.4139C58.1433 29.0776 45.8587 32.8614 33.4991 32.8614C21.1394 32.8614 7.45647 29.4667 7.02794 28.5741C6.8024 28.1012 7.23845 25.988 7.23845 25.988H7.24597Z" fill="url(#paint1_linear_7_596)"/>
<g style="mix-blend-mode:soft-light">
<path d="M7.24599 25.988C7.24599 25.988 3.34411 27.0942 3.17871 28.5741C3.02083 30.0617 18.1697 36.5079 34.311 36.3096C50.4523 36.1112 62.3534 29.4285 62.5865 28.5741C62.8195 27.7197 57.9403 25.4235 57.9403 25.4235C57.9403 25.4235 58.7372 27.3459 58.3989 28.1317C58.0681 28.9174 47.7608 32.9072 34.078 32.9072C20.3951 32.9072 8.11056 29.2149 7.3362 28.8411C6.56184 28.475 7.23095 25.9804 7.23095 25.9804L7.24599 25.988Z" fill="#FFD8FF"/>
</g>
<g style="mix-blend-mode:multiply" opacity="0.8">
<path d="M8.73457 42.7405C8.73457 42.7405 29.6122 54.2521 56.5795 43.1448L56.3239 43.7322C56.3239 43.7322 48.7983 50.3844 32.439 50.8192C18.9667 51.1777 9.08792 43.5644 9.08792 43.5644L8.72705 42.7405H8.73457Z" fill="#E50092"/>
</g>
<path d="M57.9554 25.4235C57.9554 25.4235 62.4061 27.7197 62.6015 28.5741C62.7895 29.4209 56.6848 31.9231 54.7376 31.9231C52.7905 31.9231 58.1734 29.6879 58.617 28.6733C59.0605 27.6663 57.9554 25.4235 57.9554 25.4235Z" fill="#FFB3C7"/>
<path d="M7.51664 25.8049C7.51664 25.8049 3.29149 27.323 3.502 28.6809C3.7125 30.0388 11.5839 31.8773 13.1402 31.9307C14.6964 31.9841 7.46402 29.3828 7.03549 28.5818C6.60696 27.7807 7.51664 25.8126 7.51664 25.8126V25.8049Z" fill="#FFB3C7"/>
<path d="M15.7564 33.5938C11.7719 31.145 34.5967 32.7165 37.8671 34.0973C41.1299 35.4781 22.7106 37.8658 15.7564 33.5938Z" fill="white"/>
<g style="mix-blend-mode:multiply" opacity="0.5">
<path d="M45.4002 46.4022C35.559 46.1047 43.8514 37.3776 49.2945 34.6541C54.7376 31.9307 61.2783 30.5271 62.1203 30.8703C62.9624 31.2136 62.188 38.6363 58.459 41.764C54.7226 44.8918 48.2796 46.4938 45.4002 46.4022Z" fill="#E33292"/>
</g>
<g style="mix-blend-mode:soft-light">
<path d="M14.2077 20.9074C18.8538 30.1304 44.7461 22.4178 46.7759 15.5444C48.8133 8.67105 34.2659 5.65011 23.6353 9.41102C13.0048 13.1796 13.0349 18.5883 14.2002 20.8997L14.2077 20.9074Z" fill="#FFB3C7"/>
</g>
<g style="mix-blend-mode:soft-light">
<path d="M9.51643 44.4417C9.51643 44.4417 20.7033 58.8598 33.8223 57.3875C46.9489 55.9151 54.7226 46.776 54.7226 46.776C54.7226 46.776 46.1144 59.1726 31.2361 58.8369C16.3654 58.5012 9.50891 44.4341 9.50891 44.4341L9.51643 44.4417Z" fill="#FFB3C7"/>
</g>
<path d="M25.0863 13.3779C25.0863 16.8337 28.4845 15.7657 28.4845 12.6685C28.4845 9.57124 25.0863 11.9361 25.0863 13.3779Z" fill="white"/>
<g style="mix-blend-mode:multiply">
<path d="M58.4816 27.8265C57.5569 29.4514 53.3468 30.2448 53.3468 30.2448C53.3468 30.2448 56.2938 27.8189 55.7526 24.7522C55.2037 21.6702 49.8433 7.8853 33.2059 7.16821C18.1322 6.51215 8.47896 19.6715 8.42633 23.9359C8.3737 28.208 12.02 30.2448 12.02 30.2448L7.03549 28.5741L6.97534 28.4902C8.86238 15.7428 19.6884 5.96289 32.7773 5.96289C45.8663 5.96289 56.3314 15.4071 58.4816 27.8265Z" fill="#E50092"/>
</g>
<g style="mix-blend-mode:overlay">
<path d="M18.1021 54.2445C12.9748 49.0189 28.4845 50.0716 37.0175 56.4415C40.4758 59.02 24.9661 61.2323 18.1021 54.2445Z" fill="#FFB3C7"/>
</g>
<g style="mix-blend-mode:multiply" opacity="0.5">
<path d="M6.68208 40.6121C5.11081 39.1703 3.81018 31.8316 4.74242 31.1297C5.67466 30.4203 14.4633 33.9523 16.0947 35.2263C17.7261 36.5003 17.7412 44.8384 16.636 44.9604C15.5308 45.0825 9.80208 43.4805 6.68208 40.6121Z" fill="#E33292"/>
</g>
<g style="mix-blend-mode:overlay">
<path d="M47.3925 10.5096C47.3925 10.5096 54.9256 18.5806 57.7599 24.7522C57.7599 24.7522 55.2864 15.0104 47.3925 10.5096Z" fill="#FFB3C7"/>
</g>
<path d="M20.8537 46.7837C18.8614 45.2885 31.9954 45.2351 34.8072 47.6915C34.8072 47.6915 28.6725 48.4315 20.8537 46.7837Z" fill="#FFB3C7"/>
<g style="mix-blend-mode:soft-light">
<path d="M24.763 36.0197C17.3577 35.8213 19.7259 44.0145 24.0187 45.3648C28.3116 46.715 31.7623 45.6318 32.7773 44.8613C33.7922 44.0908 35.0553 37.8734 34.0929 37.0953C33.1306 36.3172 24.763 36.0197 24.763 36.0197Z" fill="#FFB3C7"/>
</g>
<path d="M42.1599 22.3721C40.3029 22.1737 40.8217 26.8043 42.5659 27.3459C44.3101 27.8876 44.716 22.6391 42.1599 22.3721Z" fill="white"/>
<path d="M46.0918 32.5105C44.3852 33.1208 44.1747 36.9275 47.5353 36.5689C50.8959 36.2104 47.9262 31.8545 46.0918 32.5105Z" fill="url(#paint2_linear_7_596)"/>
<g style="mix-blend-mode:multiply" opacity="0.4">
<path d="M46.0918 32.5105C44.9566 32.8233 45.0318 35.1958 46.6256 35.356C48.2194 35.5162 48.7833 34.0439 48.4299 33.6395C48.0691 33.2352 46.7534 32.335 46.0993 32.5105H46.0918Z" fill="#D41892"/>
</g>
<path d="M45.1521 35.3712C45.0544 35.0203 46.8812 36.3553 47.836 36.1799C49.5953 35.8518 48.4901 34.288 48.6781 34.3337C48.866 34.3795 49.5426 36.0426 48.024 36.4774C46.5053 36.9122 45.3325 36.0044 45.1521 35.3712Z" fill="#FF8B9A"/>
<g style="mix-blend-mode:soft-light">
<path d="M12.456 26.8653C11.0351 24.1114 14.4859 10.6011 25.0337 8.19044C35.574 5.77979 39.8217 22.6162 36.7769 30.077C36.0026 31.9765 14.8392 31.4959 12.456 26.8653Z" fill="#FFB3C7"/>
</g>
<defs>
<linearGradient id="paint0_linear_7_596" x1="32.7773" y1="58.9208" x2="32.7773" y2="5.96289" gradientUnits="userSpaceOnUse">
<stop stop-color="#FF3D57"/>
<stop offset="1" stop-color="#E0001D"/>
</linearGradient>
<linearGradient id="paint1_linear_7_596" x1="32.9577" y1="47.188" x2="32.9577" y2="25.4235" gradientUnits="userSpaceOnUse">
<stop stop-color="#FF3C46"/>
<stop offset="1" stop-color="#E0001D"/>
</linearGradient>
<linearGradient id="paint2_linear_7_596" x1="46.9714" y1="36.5918" x2="46.9714" y2="32.4419" gradientUnits="userSpaceOnUse">
<stop stop-color="#FF4831"/>
<stop offset="1" stop-color="#CA0000"/>
</linearGradient>
</defs>
</svg>
