<svg width="67" height="67" viewBox="0 0 67 67" fill="none" xmlns="http://www.w3.org/2000/svg">
<path d="M55.8644 0.134613H10.4817C4.69283 0.134613 0 4.82744 0 10.6163V55.999C0 61.7879 4.69283 66.4808 10.4817 66.4808H55.8644C61.6533 66.4808 66.3462 61.7879 66.3462 55.999V10.6163C66.3462 4.82744 61.6533 0.134613 55.8644 0.134613Z" fill="#3D6201"/>
<path d="M43.1322 6.54266V6.5808L42.7279 25.6066L42.3541 43.6178L41.9879 60.9958V61.3543L25.9068 62.6436V61.8044L25.7618 42.5879L25.6474 25.8888L25.4948 4.75756V4.70416C25.4948 4.70416 35.084 4.20067 43.1322 6.55029V6.54266Z" fill="url(#paint0_linear_7_555)"/>
<path d="M57.4969 33.8684C57.4969 37.0724 57.1765 40.1391 56.5815 42.9999C54.4607 53.1536 48.8308 60.7974 41.9803 61.3467C41.2403 61.4077 40.5156 61.3772 39.7985 61.278C37.899 61.0034 36.0833 60.1719 34.4127 58.875C30.3619 55.732 27.196 49.8732 25.7542 42.5727C25.2202 39.8492 24.9303 36.9351 24.9303 33.9065C24.9303 31.1145 25.1744 28.4216 25.6398 25.8736C27.0358 18.1305 30.3771 11.9056 34.6568 8.70918C36.892 7.03851 39.3789 6.21462 41.9726 6.41297C42.3617 6.44348 42.7431 6.49688 43.1246 6.57317C51.3101 8.18281 57.4893 19.9995 57.4893 33.8608L57.4969 33.8684Z" fill="url(#paint1_linear_7_555)"/>
<path d="M43.4297 33.6777C43.4297 37.1716 43.0483 40.5205 42.3541 43.6178C40.9123 50.0639 38.0821 55.4955 34.4127 58.8826C33.3294 59.8744 32.1775 60.6906 30.9646 61.3085H30.9493C29.5533 62.0256 28.0809 62.4605 26.54 62.5825C26.334 62.5978 26.1128 62.613 25.9068 62.613C17.3017 62.8114 9.90192 52.9781 8.26177 39.3305C8.25414 39.3 8.25414 39.2847 8.25414 39.2847C8.03291 37.4767 7.91848 35.6077 7.91848 33.7005C7.90322 17.5202 15.8828 4.90249 25.4872 4.74991C25.8381 4.74228 26.1814 4.74991 26.5323 4.78043C29.5075 5.01692 32.2691 6.43584 34.6568 8.7168C38.5398 12.4396 41.4615 18.4891 42.7279 25.6066C43.1856 28.1622 43.4297 30.8703 43.4297 33.6777Z" fill="url(#paint2_linear_7_555)"/>
<path d="M40.8055 33.6777C40.8055 46.5319 34.5576 57.3722 26.5323 57.9138C18.1408 58.4783 11.0462 47.6457 11.0462 33.7006C11.0462 19.7554 18.1408 8.90754 26.5323 9.46443C34.5576 9.9908 40.8055 20.8235 40.8055 33.6777Z" fill="url(#paint3_linear_7_555)"/>
<g style="mix-blend-mode:multiply" opacity="0.5">
<path d="M12.3508 23.7757C12.3508 23.7757 19.5064 15.8496 36.1826 16.1166L37.3421 18.1305C37.3421 18.1305 28.0657 16.4141 20.1548 19.107C11.893 21.9219 11.7023 26.6059 11.7023 26.6059L12.3584 23.7681L12.3508 23.7757Z" fill="#989310"/>
</g>
<g style="mix-blend-mode:multiply" opacity="0.5">
<path d="M40.2944 27.3917C40.2944 27.3917 17.1644 28.4902 11.3666 38.6897L11.626 40.3908C11.626 40.3908 11.8396 34.738 22.1154 31.5035C31.8419 28.4368 40.4775 28.6046 40.4775 28.6046L40.2944 27.3993V27.3917Z" fill="#989310"/>
</g>
<g style="mix-blend-mode:multiply" opacity="0.5">
<path d="M14.6012 49.4155C14.6012 49.4155 23.9997 42.5879 40.2639 40.1544L39.9587 41.764C39.9587 41.764 31.9105 42.1073 24.5184 44.7239C16.8135 47.455 15.0131 50.1631 15.0131 50.1631L14.6012 49.4155Z" fill="#989310"/>
</g>
<g style="mix-blend-mode:soft-light">
<path d="M13.0984 21.4185C12.9916 22.5551 23.8471 15.964 31.1706 14.8502C38.2042 13.7746 27.7225 7.03089 21.5662 10.9596C15.1962 15.0257 13.1136 21.2201 13.0984 21.4185Z" fill="#B3B35E"/>
</g>
<g style="mix-blend-mode:soft-light">
<path d="M12.2591 36.2333C11.3818 36.2333 9.23056 26.2398 16.4396 21.655C23.374 17.238 35.0001 17.5355 36.9225 19.58C38.8296 21.6016 32.2538 26.1177 24.9379 29.1005C17.3093 32.1977 12.2668 36.2409 12.2668 36.2409L12.2591 36.2333Z" fill="#B3B35E"/>
</g>
<g style="mix-blend-mode:soft-light">
<path d="M14.9216 47.5389C14.2198 47.7448 11.2904 42.237 12.5262 38.6744C13.7544 35.1271 25.0219 29.604 33.7719 30.3821C42.11 31.1221 26.8604 42.6718 21.7721 44.7773C16.5389 46.9438 14.9216 47.5465 14.9216 47.5465V47.5389Z" fill="#B3B35E"/>
</g>
<g style="mix-blend-mode:soft-light">
<path d="M17.233 49.3011C15.6081 51.8109 18.4612 55.0912 22.6036 55.8312C26.6544 56.5635 32.4216 47.0659 32.5971 44.8383C32.7725 42.6108 19.9336 45.1206 17.233 49.3011Z" fill="#B3B35E"/>
</g>
<g style="mix-blend-mode:multiply" opacity="0.5">
<path d="M15.0131 50.1555C15.0131 50.1555 19.4377 58.2952 26.5095 57.334C33.3142 56.411 37.2887 43.099 37.2658 42.3514C37.2353 41.6114 33.8329 41.4055 33.8329 41.4055C33.8329 41.4055 38.7992 40.4137 39.8062 37.4844C40.8055 34.5702 38.6085 28.1927 36.3122 28.1393C36.3122 28.1393 38.6695 26.2779 38.6008 23.524C38.5322 20.7624 35.0077 17.8178 35.0077 17.8178C35.0077 17.8178 36.0758 16.9023 36.1902 16.1089C36.3046 15.3156 30.339 9.92213 26.5476 9.45679C26.5476 9.45679 32.3988 9.68565 37.3574 16.3836C42.171 22.8984 41.7972 38.5447 38.0363 48.5535C34.1915 58.7758 23.3283 67.1368 15.0284 50.1631L15.0131 50.1555Z" fill="#989310"/>
</g>
<g style="mix-blend-mode:multiply" opacity="0.2">
<path d="M36.5182 56.5865C33.032 60.0193 45.4514 58.9132 47.6484 57.1968C51.5695 54.1377 54.682 49.0799 56.0857 42.0082C57.4741 34.9975 44.6427 34.4863 44.2765 34.5931C43.9104 34.7076 43.6357 40.2002 41.9651 47.394C40.2791 54.6564 36.5106 56.5788 36.5106 56.5788L36.5182 56.5865Z" fill="#989310"/>
</g>
<g style="mix-blend-mode:soft-light">
<path d="M35.8163 7.21395C34.1838 7.36653 38.3262 11.5775 40.2638 14.7205C42.1786 17.8254 53.1715 17.3448 53.3774 17.1617C53.5834 16.9786 50.2345 11.4707 47.4729 9.25842C44.6656 7.01561 35.8163 7.21395 35.8163 7.21395Z" fill="#B3B35E"/>
</g>
<g style="mix-blend-mode:soft-light">
<path d="M31.5138 62.1935C30.7204 61.7281 34.0541 59.6684 35.9231 59.1802C37.7769 58.6996 46.0616 58.6309 46.3591 58.7377C46.6566 58.8445 44.8028 60.3779 40.9046 61.0568C36.9148 61.7587 31.5138 62.1859 31.5138 62.1859V62.1935Z" fill="#B3B35E"/>
</g>
<g style="mix-blend-mode:soft-light">
<path d="M13.0983 20.8082C13.0983 20.8082 16.6609 11.6004 22.7028 10.0136C28.5539 8.48029 33.5583 13.2482 33.5583 13.2482C33.5583 13.2482 28.2564 9.4949 22.1916 11.4249C15.9209 13.416 13.0983 20.8082 13.0983 20.8082Z" fill="#DBF15E"/>
</g>
<g style="mix-blend-mode:soft-light">
<path d="M26.5323 4.78043C26.5323 4.78043 36.4343 5.24577 41.0344 19.374C44.452 29.8633 42.0871 44.7086 42.0871 44.7086C42.0871 44.7086 45.2454 27.8112 41.3624 16.5743C37.3955 5.08557 31.3689 5.29917 26.5323 4.78043Z" fill="#B3F25E"/>
</g>
<g style="mix-blend-mode:soft-light">
<path d="M56.5739 43.0075C54.4531 53.1535 48.8232 60.7974 41.9727 61.3467L25.8992 62.6359V62.613C17.2941 62.8114 9.8943 52.9781 8.25415 39.3305C8.5059 40.3451 12.4728 56.4415 19.2012 59.8515C21.7187 61.1255 24.0149 61.6442 25.8915 61.7968C28.6912 62.0256 30.5908 61.4306 30.9417 61.3085H30.9569L31.0027 61.2857C31.0027 61.2857 33.3523 61.8731 37.9066 61.423C38.6466 61.3467 42.8576 60.5304 43.4297 60.2482C53.1028 55.4955 56.3908 43.4194 56.5815 43.0075H56.5739Z" fill="#B3F25E"/>
</g>
<path d="M34.1686 6.90883C33.07 6.88595 37.3497 11.8369 38.2575 12.2489C39.1577 12.6608 38.494 7.008 34.1686 6.90883Z" fill="white"/>
<path d="M20.4599 22.9442C19.1935 26.2627 23.046 24.4394 23.7402 22.0898C24.4344 19.7555 20.7498 22.1814 20.4599 22.9442Z" fill="white"/>
<path d="M23.1834 36.0731C22.4586 37.6598 24.7015 36.1875 25.1973 35.3254C25.6855 34.471 23.9004 34.4939 23.1834 36.0731Z" fill="white"/>
<g style="mix-blend-mode:multiply" opacity="0.2">
<path d="M9.31456 22.3797C8.81107 25.1641 13.8536 13.9348 20.5668 10.9291C27.0435 8.0226 32.0021 11.8064 34.5272 12.9431C37.0141 14.0645 32.8718 4.70415 25.205 5.11609C17.2102 5.55093 10.4589 16.0555 9.31456 22.3797Z" fill="#989310"/>
</g>
<g style="mix-blend-mode:multiply" opacity="0.5">
<path d="M11.6947 37.5378C11.6947 37.5378 13.0221 33.1284 19.1479 29.9397C25.0753 26.8501 36.297 28.1393 36.297 28.1393C36.297 28.1393 20.1854 31.2899 11.6947 37.5378Z" fill="#989310"/>
</g>
<g style="mix-blend-mode:multiply" opacity="0.5">
<path d="M15.0132 49.3927C15.0132 49.3927 14.5478 46.9286 21.4899 44.2586C28.1802 41.6877 36.3046 42.0921 36.3046 42.0921C36.3046 42.0921 28.5158 42.6566 15.0132 49.4003V49.3927Z" fill="#989310"/>
</g>
<g style="mix-blend-mode:multiply" opacity="0.5">
<path d="M27.219 57.868C22.9698 57.7384 28.2793 58.547 33.1922 53.0925C37.9753 47.7906 39.1501 44.8078 39.1501 44.8078C39.1501 44.8078 36.9226 56.0372 27.219 57.868Z" fill="#989310"/>
</g>
<path d="M23.8318 45.4792C22.8325 46.1428 26.3188 46.2878 27.6461 44.9909C28.9659 43.7093 24.9227 44.7544 23.8318 45.4792Z" fill="white"/>
<g style="mix-blend-mode:multiply" opacity="0.5">
<path d="M8.01768 36.9122C8.01768 36.9122 9.89432 21.4566 13.0983 13.5076C13.0983 13.5076 6.75896 23.0052 8.01768 36.9122Z" fill="#989310"/>
</g>
<path d="M43.0407 23.8219C41.2709 23.6693 39.6384 26.8123 42.8195 27.7812C45.9472 28.7347 44.9174 23.9821 43.0407 23.8219Z" fill="url(#paint4_linear_7_555)"/>
<g style="mix-blend-mode:multiply" opacity="0.5">
<path d="M43.0407 23.8215C41.8964 23.6384 41.0725 25.6752 42.4533 26.4152C43.8265 27.1552 44.8792 26.1406 44.7038 25.66C44.5359 25.1794 43.6892 23.9207 43.0331 23.8215H43.0407Z" fill="#989310"/>
</g>
<path d="M41.1184 25.8659C41.1641 25.5303 42.3084 27.3535 43.2391 27.5671C44.9327 27.9486 44.5283 26.2245 44.6733 26.3389C44.8182 26.4457 44.8106 28.1011 43.2925 27.8952C41.7592 27.6892 41.0421 26.4762 41.1184 25.8736V25.8659Z" fill="#CCE031"/>
<path d="M47.9917 42.2446C46.8093 42.8473 46.466 46.7531 48.7546 46.4022C51.0127 46.0589 49.2581 41.6038 47.9917 42.2446Z" fill="url(#paint5_linear_7_555)"/>
<g style="mix-blend-mode:multiply" opacity="0.5">
<path d="M47.9917 42.2446C47.206 42.5498 47.1373 44.9833 48.2053 45.1588C49.2657 45.3342 49.7234 43.8466 49.5022 43.4271C49.2809 43.0075 48.4418 42.0692 47.9917 42.2446Z" fill="#989310"/>
</g>
<path d="M47.2059 45.1588C47.1602 44.8002 48.3197 46.181 48.9681 46.0055C50.1582 45.6851 49.5022 44.0831 49.6242 44.1289C49.7463 44.1823 50.1124 45.8758 49.0749 46.3107C48.0298 46.7455 47.2898 45.8072 47.1983 45.1588H47.2059Z" fill="#CCE031"/>
<path d="M43.1018 8.00734C39.7528 8.35062 44.8411 10.5858 48.1214 11.1656C51.4017 11.7454 47.0839 7.59539 43.1018 8.00734Z" fill="white"/>
<path d="M17.2636 13.9653C16.8211 14.9799 19.2089 12.4243 23.3284 11.1274C27.4478 9.83057 19.5522 8.73968 17.2636 13.9653Z" fill="white"/>
<defs>
<linearGradient id="paint0_linear_7_555" x1="34.3059" y1="62.6359" x2="34.3059" y2="4.65076" gradientUnits="userSpaceOnUse">
<stop stop-color="#639200"/>
<stop offset="0.51" stop-color="#87AA00"/>
<stop offset="1" stop-color="#D3ED00"/>
</linearGradient>
<linearGradient id="paint1_linear_7_555" x1="41.2098" y1="61.3848" x2="41.2098" y2="6.39008" gradientUnits="userSpaceOnUse">
<stop stop-color="#639200"/>
<stop offset="0.51" stop-color="#87AA00"/>
<stop offset="1" stop-color="#D3ED00"/>
</linearGradient>
<linearGradient id="paint2_linear_7_555" x1="25.6703" y1="62.6207" x2="25.6703" y2="4.74991" gradientUnits="userSpaceOnUse">
<stop stop-color="#7FB800"/>
<stop offset="1" stop-color="#9FBA00"/>
</linearGradient>
<linearGradient id="paint3_linear_7_555" x1="25.9297" y1="57.9291" x2="25.9297" y2="9.44154" gradientUnits="userSpaceOnUse">
<stop stop-color="#7AA900"/>
<stop offset="1" stop-color="#9FBA00"/>
</linearGradient>
<linearGradient id="paint4_linear_7_555" x1="42.3324" y1="27.5996" x2="43.8166" y2="24.0775" gradientUnits="userSpaceOnUse">
<stop stop-color="#87BF00"/>
<stop offset="1" stop-color="#3B6800"/>
</linearGradient>
<linearGradient id="paint5_linear_7_555" x1="48.3661" y1="46.2799" x2="48.575" y2="42.0544" gradientUnits="userSpaceOnUse">
<stop stop-color="#87BF00"/>
<stop offset="1" stop-color="#3B6800"/>
</linearGradient>
</defs>
</svg>
