<svg width="67" height="67" viewBox="0 0 67 67" fill="none" xmlns="http://www.w3.org/2000/svg">
<path d="M56.4029 0.134613H11.0202C5.23128 0.134613 0.538452 4.82744 0.538452 10.6163V55.999C0.538452 61.7879 5.23128 66.4808 11.0202 66.4808H56.4029C62.1918 66.4808 66.8846 61.7879 66.8846 55.999V10.6163C66.8846 4.82744 62.1918 0.134613 56.4029 0.134613Z" fill="#FF8800"/>
<path d="M62.5974 34.6312C62.5974 50.2623 49.9186 62.9411 34.2799 62.9411C21.4181 62.9411 10.5625 54.3665 7.12202 42.626C7.12202 42.6184 7.12202 42.6108 7.12202 42.6108C6.37442 40.0781 5.97773 37.4004 5.97773 34.6312C5.97773 34.6312 3.19328 26.2855 8.64775 17.2151C8.64775 17.2151 8.64775 17.1998 8.67063 17.177C9.34958 16.0479 10.1506 14.9189 11.1042 13.7822C11.1271 13.7517 11.1499 13.7288 11.1805 13.6983C12.6146 11.9971 14.3921 10.3036 16.5739 8.67103C29.718 -1.18515 50.117 3.30048 58.4627 18.4891C58.5466 18.634 58.6305 18.779 58.7068 18.9163C58.8441 19.1604 58.9585 19.3816 59.0577 19.58C59.2103 19.8927 59.3629 20.2131 59.5078 20.5335C59.5231 20.5641 59.5383 20.5946 59.5459 20.6175V20.6327C60.4614 22.6848 61.1708 24.8971 61.6286 27.2773C61.6286 27.2849 61.6286 27.3001 61.6286 27.3078C62.0481 28.8945 62.3456 30.5423 62.483 32.2359C62.5516 33.0216 62.5898 33.8226 62.5898 34.6312H62.5974Z" fill="url(#paint0_linear_7_703)"/>
<path d="M36.988 34.143C36.988 34.143 23.2183 29.0242 21.4027 42.6108C21.4027 42.6108 22.9895 48.584 29.0466 50.8039C29.0466 50.8039 30.2824 40.3146 36.9804 34.1506L36.988 34.143Z" fill="url(#paint1_linear_7_703)"/>
<path d="M38.3155 32.6249C38.3155 32.6249 37.0033 44.9986 46.2721 47.0812C46.2721 47.0812 50.7196 43.1295 51.6274 36.6605C51.6274 36.6605 51.5588 36.9885 46.2416 36.6605C40.9321 36.3324 39.3148 31.2365 39.3148 31.2365L38.3155 32.6249Z" fill="url(#paint2_linear_7_703)"/>
<path d="M39.1545 29.0623C39.6275 29.3446 49.7888 28.4902 50.361 23.791C50.361 23.791 48.0419 17.7186 42.4043 15.9792C42.4043 15.9792 41.7025 25.9651 37.7814 29.4972L39.1545 29.0623Z" fill="url(#paint3_linear_7_703)"/>
<path d="M32.9144 28.8259C32.9144 28.8259 38.5825 17.7186 31.7167 13.7441C31.7167 13.7441 28.9704 13.3855 22.8293 15.9869C22.8293 15.9869 31.053 19.3587 30.992 28.0096L32.922 28.8335L32.9144 28.8259Z" fill="url(#paint4_linear_7_703)"/>
<path d="M13.2706 24.5157C13.2706 24.5157 19.2515 23.051 22.3868 28.8564C22.3868 28.8564 20.6627 29.993 19.7015 34.3032C19.7015 34.3032 11.6152 33.281 6.53453 40.2841C6.53453 40.2841 5.73353 36.2867 5.96239 34.6313C6.19888 32.9758 10.509 25.7515 13.2706 24.5233V24.5157Z" fill="url(#paint5_linear_7_703)"/>
<path d="M22.3868 45.4258C22.3868 45.4258 17.9012 50.4988 18.4428 58.1045C18.4428 58.1045 24.5534 62.7046 32.7923 62.9411C32.7923 62.9411 29.7561 54.603 29.9773 50.7963C29.9773 50.7963 25.2094 49.713 22.3868 45.4258Z" fill="url(#paint6_linear_7_703)"/>
<path d="M48.5531 44.5332C48.5531 44.5332 51.7419 48.8357 59.2942 47.9127C59.2942 47.9127 62.9788 41.7792 62.5974 34.3032C62.5974 34.3032 58.4245 35.4933 52.2301 34.6236C52.2301 34.6236 51.0858 41.1308 48.5607 44.5255L48.5531 44.5332Z" fill="url(#paint7_linear_7_703)"/>
<path d="M49.4227 21.9296C49.4227 21.9296 54.7475 19.0688 55.5867 14.2018C55.5867 14.2018 52.2377 9.76955 47.2562 7.23685C47.2562 7.23685 47.3096 13.3703 45.1888 17.3143L49.4227 21.9296Z" fill="url(#paint8_linear_7_703)"/>
<path d="M34.2418 13.7288C34.2418 13.7288 35.8667 5.12371 29.8858 3.56747C29.8858 3.56747 22.0284 3.96416 15.6737 9.3576C15.6737 9.3576 24.4924 9.0906 28.6805 14.0568L34.2418 13.7288Z" fill="url(#paint9_linear_7_703)"/>
<path d="M8.63245 17.2151C8.63245 17.2151 14.7888 15.7122 20.8383 17.2151C20.8383 17.2151 17.5351 19.4198 14.1556 22.7458C14.1556 22.7458 7.32033 25.309 5.35214 31.2365C5.35214 31.2365 4.13919 24.7369 8.64008 17.2151H8.63245Z" fill="url(#paint10_linear_7_703)"/>
<g style="mix-blend-mode:multiply" opacity="0.2">
<path d="M5.96241 22.8679C5.65727 26.3084 9.052 26.1787 11.6915 23.6842C14.8574 20.6937 17.8478 14.69 24.2253 12.4091C39.0096 7.11479 48.8811 18.6645 50.3686 22.8679C50.3686 22.8679 41.1914 12.7371 29.9087 14.4688C18.6259 16.2005 7.66359 30.3058 5.97004 34.6236C5.97004 34.6236 4.19257 30.5042 5.97004 22.8679H5.96241Z" fill="#CA1B3B"/>
</g>
<g style="mix-blend-mode:multiply" opacity="0.64">
<path d="M5.9624 34.6236C5.9624 34.6236 15.6813 13.0041 35.3631 14.4993C55.045 15.9945 55.8384 41.1385 43.808 48.1797C31.7777 55.2209 18.4657 45.3113 20.2813 33.8608C22.0969 22.4102 34.8139 29.8176 36.988 34.1354C36.988 34.1354 39.2537 31.9994 39.5436 30.0693C39.8335 28.1393 37.3237 30.5957 35.0122 29.5124C32.7007 28.4292 28.0778 24.9353 22.486 28.0783C16.8942 31.2213 15.2312 52.2839 33.9213 52.0474C52.6191 51.8109 58.3253 26.8043 45.4177 16.7269C32.5024 6.64945 14.6895 14.7892 5.9624 34.616V34.6236Z" fill="#CC5748"/>
</g>
<g style="mix-blend-mode:soft-light">
<path d="M62.5973 34.6313C62.5973 50.2623 49.9185 62.9411 34.2799 62.9411C21.418 62.9411 10.5625 54.3665 7.12195 42.6261C7.35844 43.2287 14.0106 64.299 35.9734 60.9119C61.5064 56.9755 62.4905 32.2359 62.4905 32.2359C62.5592 33.0216 62.5973 33.8226 62.5973 34.6313Z" fill="#B3FF5E"/>
</g>
<g style="mix-blend-mode:multiply" opacity="0.5">
<path d="M22.3868 28.8564C27.4904 25.8354 32.2201 28.33 34.3104 30.7788C36.4006 33.2276 37.3466 33.1818 37.3466 33.1818C37.3466 33.1818 39.8869 31.5188 39.536 30.077C39.1851 28.6351 37.2703 30.2906 35.4318 29.8939C33.5857 29.4972 32.51 27.3612 27.5209 26.4991C24.1262 25.9117 22.3868 28.8564 22.3868 28.8564Z" fill="#D31F90"/>
</g>
<g style="mix-blend-mode:multiply" opacity="0.5">
<path d="M12.8435 23.3638C12.5841 23.6765 19.633 16.3759 28.5508 14.7053C37.4687 13.0346 41.4661 14.8121 41.4661 14.8121C41.4661 14.8121 37.2627 12.1497 29.1764 13.7288C21.09 15.3079 12.8435 23.3714 12.8435 23.3714V23.3638Z" fill="#D31F90"/>
</g>
<g style="mix-blend-mode:multiply" opacity="0.2">
<path d="M20.8383 40.2841C20.8383 40.2841 32.6016 51.9787 44.0674 44.64C55.5332 37.3013 49.0413 20.5869 49.0413 20.5869C49.0413 20.5869 58.5923 39.0101 43.8157 48.1797C29.039 57.3417 21.4943 45.8987 20.8383 40.2841Z" fill="#CA1B3B"/>
</g>
<g style="mix-blend-mode:multiply" opacity="0.2">
<path d="M19.7016 31.9078C19.7016 31.9078 20.6552 26.1406 28.5279 23.3714C36.4083 20.6022 40.276 28.0478 39.5665 30.4355C38.8571 32.8233 38.0637 33.4565 37.339 33.1818C36.6219 32.9072 32.6321 26.9416 27.1471 27.468C21.6545 28.002 19.694 31.9078 19.694 31.9078H19.7016Z" fill="#CA1B3B"/>
</g>
<g style="mix-blend-mode:multiply" opacity="0.2">
<path d="M21.9673 59.4548C14.1479 55.9456 39.2232 59.9049 47.3172 55.8693C55.4112 51.8338 59.7214 43.1524 59.7214 43.1524C59.7214 43.1524 55.4341 55.0836 42.0535 59.4548C28.6728 63.826 21.9673 59.4548 21.9673 59.4548Z" fill="#CA1B3B"/>
</g>
<g style="mix-blend-mode:soft-light">
<path d="M12.1721 27.2773C10.2955 32.3045 24.3626 23.257 30.0078 22.7458C35.653 22.2347 35.9276 24.3402 42.1907 25.4845C48.4538 26.6288 48.0419 22.5246 47.9732 21.2811C47.9046 20.0377 41.5194 13.5457 30.6944 14.5832C19.8618 15.6283 13.5987 23.4629 12.1797 27.2773H12.1721Z" fill="#B3B35E"/>
</g>
<g style="mix-blend-mode:soft-light">
<path d="M8.70108 17.8483C8.4112 26.1253 17.6647 11.5775 30.3816 10.6163C43.0986 9.64749 49.6973 19.6715 55.0221 19.7707C60.3469 19.8698 51.0018 2.55287 31.442 3.56747C14.4302 4.44477 8.70108 17.8483 8.70108 17.8483Z" fill="#B3B35E"/>
</g>
<g style="mix-blend-mode:soft-light">
<path d="M18.9082 43.6864C16.1695 40.4824 17.8936 57.9138 36.9804 57.7536C56.0672 57.5934 57.4709 35.6459 56.502 33.2428C55.5332 30.8474 52.2681 49.0493 38.651 51.4142C25.0339 53.7791 18.9082 43.6864 18.9082 43.6864Z" fill="#B3B35E"/>
</g>
<g style="mix-blend-mode:soft-light">
<path d="M23.5692 28.4368C21.0365 29.6421 20.2126 35.4551 22.2495 39.1474C27.9862 49.5605 40.7413 47.6762 44.937 43.1524C49.1251 38.621 43.1061 30.2677 41.466 30.5042C39.8258 30.7483 38.0865 34.6618 36.7133 34.3871C35.3402 34.1125 32.4032 29.4438 28.9627 28.4292C25.5145 27.4146 23.5692 28.4292 23.5692 28.4292V28.4368Z" fill="#B3B35E"/>
</g>
<path d="M19.2057 9.02196C17.1383 11.7301 21.4485 11.7606 24.5533 8.81598C27.6582 5.87133 21.1586 6.46637 19.2057 9.02196Z" fill="white"/>
<path d="M25.3849 17.2456C24.5686 18.0466 25.3544 19.3053 27.4446 17.894C29.5425 16.4827 26.8267 15.8343 25.3849 17.2456Z" fill="white"/>
<path d="M59.0576 23.1273C58.3329 22.2347 57.0132 22.906 58.2185 25.1183C59.4238 27.3383 60.324 24.6911 59.0576 23.1273Z" fill="white"/>
<path d="M39.1469 39.7653C35.5386 42.9083 39.9479 45.2503 42.4043 42.1302C44.8608 39.0101 41.6033 37.6293 39.1469 39.7653Z" fill="white"/>
<g style="mix-blend-mode:multiply" opacity="0.2">
<path d="M5.92432 35.0966C5.92432 35.0966 8.47228 30.1609 10.2497 28.0782C12.0348 25.9956 3.7883 43.16 19.1142 57.7536C19.1142 57.7536 6.90078 51.3913 5.92432 35.0966Z" fill="#CA0092"/>
</g>
<path d="M24.7745 28.7877C22.3563 30.7406 26.4071 31.0076 28.2151 29.8023C30.023 28.597 25.6518 28.0859 24.7745 28.7877Z" fill="white"/>
<g style="mix-blend-mode:multiply" opacity="0.64">
<path d="M5.49705 25.9117C5.86322 24.9276 9.15116 25.7363 10.1505 26.1024C11.1499 26.4686 6.70237 33.0292 6.70237 33.0292L5.97002 34.6236C5.97002 34.6236 4.64264 29.6726 5.50468 25.9041L5.49705 25.9117Z" fill="#CC5748"/>
</g>
<g style="mix-blend-mode:soft-light">
<path d="M58.4549 18.4891C55.9375 14.1255 48.7742 5.14661 34.2036 4.92538C21.7307 4.73466 14.5827 9.82296 11.1727 13.6983C12.6069 11.9971 14.3844 10.3036 16.5662 8.67103C29.7103 -1.18515 50.1092 3.30048 58.4549 18.4891Z" fill="#B3FF5E"/>
</g>
<g style="mix-blend-mode:multiply" opacity="0.64">
<path d="M58.6991 18.9163C58.6228 18.7713 58.5389 18.634 58.455 18.4891C58.5389 18.634 58.6228 18.779 58.6991 18.9163Z" fill="#CC5748"/>
</g>
<defs>
<linearGradient id="paint0_linear_7_703" x1="33.929" y1="62.9411" x2="33.929" y2="3.43017" gradientUnits="userSpaceOnUse">
<stop stop-color="#FFBBA4"/>
<stop offset="1" stop-color="#FFD1C9"/>
</linearGradient>
<linearGradient id="paint1_linear_7_703" x1="29.1915" y1="50.7963" x2="29.1915" y2="33.197" gradientUnits="userSpaceOnUse">
<stop stop-color="#FF6600"/>
<stop offset="1" stop-color="#FF7A00"/>
</linearGradient>
<linearGradient id="paint2_linear_7_703" x1="44.9371" y1="47.0735" x2="44.9371" y2="31.2365" gradientUnits="userSpaceOnUse">
<stop stop-color="#FF6600"/>
<stop offset="1" stop-color="#FF7A00"/>
</linearGradient>
<linearGradient id="paint3_linear_7_703" x1="44.075" y1="29.4972" x2="44.075" y2="15.9869" gradientUnits="userSpaceOnUse">
<stop stop-color="#FF6600"/>
<stop offset="1" stop-color="#FF7A00"/>
</linearGradient>
<linearGradient id="paint4_linear_7_703" x1="28.9628" y1="28.8259" x2="28.9628" y2="13.7288" gradientUnits="userSpaceOnUse">
<stop stop-color="#FF6600"/>
<stop offset="1" stop-color="#FF7A00"/>
</linearGradient>
<linearGradient id="paint5_linear_7_703" x1="14.1555" y1="40.2764" x2="14.1555" y2="24.3555" gradientUnits="userSpaceOnUse">
<stop stop-color="#FF6600"/>
<stop offset="1" stop-color="#FF7A00"/>
</linearGradient>
<linearGradient id="paint6_linear_7_703" x1="25.5985" y1="62.9411" x2="25.5985" y2="45.4258" gradientUnits="userSpaceOnUse">
<stop stop-color="#FF6600"/>
<stop offset="1" stop-color="#FF7A00"/>
</linearGradient>
<linearGradient id="paint7_linear_7_703" x1="55.5867" y1="48.0423" x2="55.5867" y2="34.3032" gradientUnits="userSpaceOnUse">
<stop stop-color="#FF6600"/>
<stop offset="1" stop-color="#FF7A00"/>
</linearGradient>
<linearGradient id="paint8_linear_7_703" x1="50.3839" y1="21.9296" x2="50.3839" y2="7.23685" gradientUnits="userSpaceOnUse">
<stop stop-color="#FF6600"/>
<stop offset="1" stop-color="#FF7A00"/>
</linearGradient>
<linearGradient id="paint9_linear_7_703" x1="25.0569" y1="14.0568" x2="25.0569" y2="3.56747" gradientUnits="userSpaceOnUse">
<stop stop-color="#FF6600"/>
<stop offset="1" stop-color="#FF7A00"/>
</linearGradient>
<linearGradient id="paint10_linear_7_703" x1="13.0189" y1="31.2365" x2="13.0189" y2="16.5514" gradientUnits="userSpaceOnUse">
<stop stop-color="#FF6600"/>
<stop offset="1" stop-color="#FF7A00"/>
</linearGradient>
</defs>
</svg>
