<svg width="51" height="59" viewBox="0 0 51 59" fill="none" xmlns="http://www.w3.org/2000/svg">
<path d="M36.1322 2.54266V2.5808L35.7279 21.6066L35.3541 39.6178L34.9879 56.9958V57.3543L18.9068 58.6436V57.8044L18.7618 38.5879L18.6474 21.8888L18.4948 0.757559V0.704158C18.4948 0.704158 28.084 0.200669 36.1322 2.55029V2.54266Z" fill="url(#paint0_linear_7_557)"/>
<path d="M50.4969 29.8684C50.4969 33.0724 50.1765 36.1391 49.5815 38.9999C47.4607 49.1536 41.8308 56.7974 34.9803 57.3467C34.2403 57.4077 33.5156 57.3772 32.7985 57.278C30.899 57.0034 29.0833 56.1719 27.4127 54.875C23.3619 51.732 20.196 45.8732 18.7542 38.5727C18.2202 35.8492 17.9303 32.9351 17.9303 29.9065C17.9303 27.1145 18.1744 24.4216 18.6398 21.8736C20.0358 14.1305 23.3771 7.90558 27.6568 4.70918C29.892 3.03851 32.3789 2.21462 34.9726 2.41297C35.3617 2.44348 35.7431 2.49688 36.1246 2.57317C44.3101 4.18281 50.4893 15.9995 50.4893 29.8608L50.4969 29.8684Z" fill="url(#paint1_linear_7_557)"/>
<path d="M36.4297 29.6777C36.4297 33.1716 36.0483 36.5205 35.3541 39.6178C33.9123 46.0639 31.0821 51.4955 27.4127 54.8826C26.3294 55.8744 25.1775 56.6906 23.9646 57.3085H23.9493C22.5533 58.0256 21.0809 58.4605 19.54 58.5825C19.334 58.5978 19.1128 58.613 18.9068 58.613C10.3017 58.8114 2.90192 48.9781 1.26177 35.3305C1.25414 35.3 1.25414 35.2847 1.25414 35.2847C1.03291 33.4767 0.918479 31.6077 0.918479 29.7005C0.903222 13.5202 8.88276 0.902486 18.4872 0.749913C18.8381 0.742285 19.1814 0.749913 19.5323 0.780428C22.5075 1.01692 25.2691 2.43584 27.6568 4.7168C31.5398 8.43957 34.4615 14.4891 35.7279 21.6066C36.1856 24.1622 36.4297 26.8703 36.4297 29.6777Z" fill="url(#paint2_linear_7_557)"/>
<path d="M33.8055 29.6777C33.8055 42.5319 27.5576 53.3722 19.5323 53.9138C11.1408 54.4783 4.0462 43.6457 4.0462 29.7006C4.0462 15.7554 11.1408 4.90754 19.5323 5.46443C27.5576 5.9908 33.8055 16.8235 33.8055 29.6777Z" fill="url(#paint3_linear_7_557)"/>
<g style="mix-blend-mode:multiply" opacity="0.5">
<path d="M5.35076 19.7757C5.35076 19.7757 12.5064 11.8496 29.1826 12.1166L30.3421 14.1305C30.3421 14.1305 21.0657 12.4141 13.1548 15.107C4.89305 17.9219 4.70233 22.6059 4.70233 22.6059L5.35839 19.7681L5.35076 19.7757Z" fill="#989310"/>
</g>
<g style="mix-blend-mode:multiply" opacity="0.5">
<path d="M33.2944 23.3917C33.2944 23.3917 10.1644 24.4902 4.36664 34.6897L4.62601 36.3908C4.62601 36.3908 4.83961 30.738 15.1154 27.5035C24.8419 24.4368 33.4775 24.6046 33.4775 24.6046L33.2944 23.3993V23.3917Z" fill="#989310"/>
</g>
<g style="mix-blend-mode:multiply" opacity="0.5">
<path d="M7.6012 45.4155C7.6012 45.4155 16.9997 38.5879 33.2639 36.1544L32.9587 37.764C32.9587 37.764 24.9105 38.1073 17.5184 40.7239C9.8135 43.455 8.01314 46.1631 8.01314 46.1631L7.6012 45.4155Z" fill="#989310"/>
</g>
<g style="mix-blend-mode:soft-light">
<path d="M6.09838 17.4185C5.99158 18.5551 16.8471 11.964 24.1706 10.8502C31.2042 9.7746 20.7225 3.03089 14.5662 6.95963C8.19625 11.0257 6.11363 17.2201 6.09838 17.4185Z" fill="#B3B35E"/>
</g>
<g style="mix-blend-mode:soft-light">
<path d="M5.25913 32.2333C4.38184 32.2333 2.23056 22.2398 9.43961 17.655C16.374 13.238 28.0001 13.5355 29.9225 15.58C31.8296 17.6016 25.2538 22.1177 17.9379 25.1005C10.3093 28.1977 5.26676 32.2409 5.26676 32.2409L5.25913 32.2333Z" fill="#B3B35E"/>
</g>
<g style="mix-blend-mode:soft-light">
<path d="M7.9216 43.5389C7.21977 43.7448 4.29037 38.237 5.52621 34.6744C6.75442 31.1271 18.0219 25.604 26.7719 26.3821C35.11 27.1221 19.8604 38.6718 14.7721 40.7773C9.53887 42.9438 7.9216 43.5465 7.9216 43.5465V43.5389Z" fill="#B3B35E"/>
</g>
<g style="mix-blend-mode:soft-light">
<path d="M10.233 45.3011C8.60814 47.8109 11.4612 51.0912 15.6036 51.8312C19.6544 52.5635 25.4216 43.0659 25.5971 40.8383C25.7725 38.6108 12.9336 41.1206 10.233 45.3011Z" fill="#B3B35E"/>
</g>
<g style="mix-blend-mode:multiply" opacity="0.5">
<path d="M8.01312 46.1555C8.01312 46.1555 12.4377 54.2952 19.5095 53.334C26.3142 52.411 30.2887 39.099 30.2658 38.3514C30.2353 37.6114 26.8329 37.4055 26.8329 37.4055C26.8329 37.4055 31.7992 36.4137 32.8062 33.4844C33.8055 30.5702 31.6085 24.1927 29.3122 24.1393C29.3122 24.1393 31.6695 22.2779 31.6008 19.524C31.5322 16.7624 28.0077 13.8178 28.0077 13.8178C28.0077 13.8178 29.0758 12.9023 29.1902 12.1089C29.3046 11.3156 23.339 5.92213 19.5476 5.45679C19.5476 5.45679 25.3988 5.68565 30.3574 12.3836C35.171 18.8984 34.7972 34.5447 31.0363 44.5535C27.1915 54.7758 16.3283 63.1368 8.02838 46.1631L8.01312 46.1555Z" fill="#989310"/>
</g>
<g style="mix-blend-mode:multiply" opacity="0.2">
<path d="M29.5182 52.5865C26.032 56.0193 38.4514 54.9132 40.6484 53.1968C44.5695 50.1377 47.682 45.0799 49.0857 38.0082C50.4741 30.9975 37.6427 30.4863 37.2765 30.5931C36.9104 30.7076 36.6357 36.2002 34.9651 43.394C33.2791 50.6564 29.5106 52.5788 29.5106 52.5788L29.5182 52.5865Z" fill="#989310"/>
</g>
<g style="mix-blend-mode:soft-light">
<path d="M28.8163 3.21395C27.1838 3.36653 31.3262 7.57753 33.2638 10.7205C35.1786 13.8254 46.1715 13.3448 46.3774 13.1617C46.5834 12.9786 43.2345 7.47073 40.4729 5.25842C37.6656 3.01561 28.8163 3.21395 28.8163 3.21395Z" fill="#B3B35E"/>
</g>
<g style="mix-blend-mode:soft-light">
<path d="M24.5138 58.1935C23.7204 57.7281 27.0541 55.6684 28.9231 55.1802C30.7769 54.6996 39.0616 54.6309 39.3591 54.7377C39.6566 54.8445 37.8028 56.3779 33.9046 57.0568C29.9148 57.7587 24.5138 58.1859 24.5138 58.1859V58.1935Z" fill="#B3B35E"/>
</g>
<g style="mix-blend-mode:soft-light">
<path d="M6.09833 16.8082C6.09833 16.8082 9.6609 7.6004 15.7028 6.01365C21.5539 4.48029 26.5583 9.24819 26.5583 9.24819C26.5583 9.24819 21.2564 5.4949 15.1916 7.42494C8.92092 9.41601 6.09833 16.8082 6.09833 16.8082Z" fill="#DBF15E"/>
</g>
<g style="mix-blend-mode:soft-light">
<path d="M19.5323 0.780426C19.5323 0.780426 29.4343 1.24577 34.0344 15.374C37.452 25.8633 35.0871 40.7086 35.0871 40.7086C35.0871 40.7086 38.2454 23.8112 34.3624 12.5743C30.3955 1.08557 24.3689 1.29917 19.5323 0.780426Z" fill="#B3F25E"/>
</g>
<g style="mix-blend-mode:soft-light">
<path d="M49.5739 39.0075C47.4531 49.1535 41.8232 56.7974 34.9727 57.3467L18.8992 58.6359V58.613C10.2941 58.8114 2.8943 48.9781 1.25415 35.3305C1.5059 36.3451 5.47278 52.4415 12.2012 55.8515C14.7187 57.1255 17.0149 57.6442 18.8915 57.7968C21.6912 58.0256 23.5908 57.4306 23.9417 57.3085H23.9569L24.0027 57.2857C24.0027 57.2857 26.3523 57.8731 30.9066 57.423C31.6466 57.3467 35.8576 56.5304 36.4297 56.2482C46.1028 51.4955 49.3908 39.4194 49.5815 39.0075H49.5739Z" fill="#B3F25E"/>
</g>
<path d="M27.1686 2.90883C26.07 2.88595 30.3497 7.83692 31.2575 8.24887C32.1577 8.66081 31.494 3.008 27.1686 2.90883Z" fill="white"/>
<path d="M13.4599 18.9442C12.1935 22.2627 16.046 20.4394 16.7402 18.0898C17.4344 15.7555 13.7498 18.1814 13.4599 18.9442Z" fill="white"/>
<path d="M16.1834 32.0731C15.4586 33.6598 17.7015 32.1875 18.1973 31.3254C18.6855 30.471 16.9004 30.4939 16.1834 32.0731Z" fill="white"/>
<g style="mix-blend-mode:multiply" opacity="0.2">
<path d="M2.31456 18.3797C1.81107 21.1641 6.85359 9.93478 13.5668 6.92911C20.0435 4.0226 25.0021 7.8064 27.5272 8.94306C30.0141 10.0645 25.8718 0.704149 18.205 1.11609C10.2102 1.55093 3.45885 12.0555 2.31456 18.3797Z" fill="#989310"/>
</g>
<g style="mix-blend-mode:multiply" opacity="0.5">
<path d="M4.6947 33.5378C4.6947 33.5378 6.02208 29.1284 12.1479 25.9397C18.0753 22.8501 29.297 24.1393 29.297 24.1393C29.297 24.1393 13.1854 27.2899 4.6947 33.5378Z" fill="#989310"/>
</g>
<g style="mix-blend-mode:multiply" opacity="0.5">
<path d="M8.01316 45.3927C8.01316 45.3927 7.54781 42.9286 14.4899 40.2586C21.1802 37.6877 29.3046 38.0921 29.3046 38.0921C29.3046 38.0921 21.5158 38.6566 8.01316 45.4003V45.3927Z" fill="#989310"/>
</g>
<g style="mix-blend-mode:multiply" opacity="0.5">
<path d="M20.219 53.868C15.9698 53.7384 21.2793 54.547 26.1922 49.0925C30.9753 43.7906 32.1501 40.8078 32.1501 40.8078C32.1501 40.8078 29.9226 52.0372 20.219 53.868Z" fill="#989310"/>
</g>
<path d="M16.8318 41.4792C15.8325 42.1428 19.3188 42.2878 20.6461 40.9909C21.9659 39.7093 17.9227 40.7544 16.8318 41.4792Z" fill="white"/>
<g style="mix-blend-mode:multiply" opacity="0.5">
<path d="M1.01768 32.9122C1.01768 32.9122 2.89432 17.4566 6.09834 9.50757C6.09834 9.50757 -0.241045 19.0052 1.01768 32.9122Z" fill="#989310"/>
</g>
<path d="M36.0407 19.8219C34.2709 19.6693 32.6384 22.8123 35.8195 23.7812C38.9472 24.7347 37.9174 19.9821 36.0407 19.8219Z" fill="url(#paint4_linear_7_557)"/>
<g style="mix-blend-mode:multiply" opacity="0.5">
<path d="M36.0407 19.8215C34.8964 19.6384 34.0725 21.6752 35.4533 22.4152C36.8265 23.1552 37.8792 22.1406 37.7038 21.66C37.5359 21.1794 36.6892 19.9207 36.0331 19.8215H36.0407Z" fill="#989310"/>
</g>
<path d="M34.1184 21.8659C34.1641 21.5303 35.3084 23.3535 36.2391 23.5671C37.9327 23.9486 37.5283 22.2245 37.6733 22.3389C37.8182 22.4457 37.8106 24.1011 36.2925 23.8952C34.7592 23.6892 34.0421 22.4762 34.1184 21.8736V21.8659Z" fill="#CCE031"/>
<path d="M40.9917 38.2446C39.8093 38.8473 39.466 42.7531 41.7546 42.4022C44.0127 42.0589 42.2581 37.6038 40.9917 38.2446Z" fill="url(#paint5_linear_7_557)"/>
<g style="mix-blend-mode:multiply" opacity="0.5">
<path d="M40.9917 38.2446C40.206 38.5498 40.1373 40.9833 41.2053 41.1588C42.2657 41.3342 42.7234 39.8466 42.5022 39.4271C42.2809 39.0075 41.4418 38.0692 40.9917 38.2446Z" fill="#989310"/>
</g>
<path d="M40.2059 41.1588C40.1602 40.8002 41.3197 42.181 41.9681 42.0055C43.1582 41.6851 42.5022 40.0831 42.6242 40.1289C42.7463 40.1823 43.1124 41.8758 42.0749 42.3107C41.0298 42.7455 40.2898 41.8072 40.1983 41.1588H40.2059Z" fill="#CCE031"/>
<path d="M36.1018 4.00734C32.7528 4.35062 37.8411 6.58581 41.1214 7.16559C44.4017 7.74536 40.0839 3.59539 36.1018 4.00734Z" fill="white"/>
<path d="M10.2636 9.96528C9.82114 10.9799 12.2089 8.4243 16.3284 7.12744C20.4478 5.83057 12.5522 4.73968 10.2636 9.96528Z" fill="white"/>
<defs>
<linearGradient id="paint0_linear_7_557" x1="27.3059" y1="58.6359" x2="27.3059" y2="0.650757" gradientUnits="userSpaceOnUse">
<stop stop-color="#639200"/>
<stop offset="0.51" stop-color="#87AA00"/>
<stop offset="1" stop-color="#D3ED00"/>
</linearGradient>
<linearGradient id="paint1_linear_7_557" x1="34.2098" y1="57.3848" x2="34.2098" y2="2.39008" gradientUnits="userSpaceOnUse">
<stop stop-color="#639200"/>
<stop offset="0.51" stop-color="#87AA00"/>
<stop offset="1" stop-color="#D3ED00"/>
</linearGradient>
<linearGradient id="paint2_linear_7_557" x1="18.6703" y1="58.6207" x2="18.6703" y2="0.749914" gradientUnits="userSpaceOnUse">
<stop stop-color="#7FB800"/>
<stop offset="1" stop-color="#9FBA00"/>
</linearGradient>
<linearGradient id="paint3_linear_7_557" x1="18.9297" y1="53.9291" x2="18.9297" y2="5.44154" gradientUnits="userSpaceOnUse">
<stop stop-color="#7AA900"/>
<stop offset="1" stop-color="#9FBA00"/>
</linearGradient>
<linearGradient id="paint4_linear_7_557" x1="35.3324" y1="23.5996" x2="36.8166" y2="20.0775" gradientUnits="userSpaceOnUse">
<stop stop-color="#87BF00"/>
<stop offset="1" stop-color="#3B6800"/>
</linearGradient>
<linearGradient id="paint5_linear_7_557" x1="41.3661" y1="42.2799" x2="41.575" y2="38.0544" gradientUnits="userSpaceOnUse">
<stop stop-color="#87BF00"/>
<stop offset="1" stop-color="#3B6800"/>
</linearGradient>
</defs>
</svg>
