<svg width="61" height="55" viewBox="0 0 61 55" fill="none" xmlns="http://www.w3.org/2000/svg">
<path d="M56.8801 27.4418C56.8801 42.0736 45.2045 53.9208 30.7849 53.9208C16.3652 53.9208 4.68213 42.0736 4.68213 27.4418C4.68213 26.0992 4.77986 24.7795 4.97533 23.4826C6.86237 10.7428 17.6884 0.962891 30.7773 0.962891C43.8663 0.962891 54.3314 10.4071 56.4816 22.8265C56.7447 24.337 56.8725 25.8627 56.8725 27.4418H56.8801Z" fill="url(#paint0_linear_7_600)"/>
<g style="mix-blend-mode:multiply" opacity="0.57">
<path d="M6.78717 31.2562C8.34341 37.6566 44.182 34.3229 50.0612 22.6358C55.9403 10.9488 39.6862 2.88532 32.3185 3.20572C26.9055 3.44221 1.19373 8.18721 6.78717 31.2562Z" fill="#E33292"/>
</g>
<g style="mix-blend-mode:soft-light">
<path d="M27.6949 53.7377C26.4469 52.6545 38.1225 50.8999 46.5201 44.8275C54.9178 38.7551 56.4139 32.4539 56.4139 32.4539C56.4139 32.4539 54.5344 43.6984 44.8511 49.7479C35.1679 55.7974 27.6949 53.7377 27.6949 53.7377Z" fill="#FF75C7"/>
</g>
<path d="M5.24597 20.988C5.24597 20.988 1.41175 22.3612 1.17869 23.5741C0.945633 24.7871 0.171273 34.1245 3.74235 36.2377C5.12568 37.0539 14.1925 42.1956 30.7773 42.1956C47.3622 42.1956 56.9853 37.1836 58.0453 36.5581C59.1129 35.9249 61.9848 28.6014 60.5864 23.5818C60.1278 21.9416 55.9403 20.4312 55.9403 20.4312C55.9403 20.4312 56.6545 22.7503 56.3989 23.4139C56.1433 24.0776 43.8587 27.8614 31.4991 27.8614C19.1394 27.8614 5.45647 24.4667 5.02794 23.5741C4.8024 23.1012 5.23845 20.988 5.23845 20.988H5.24597Z" fill="url(#paint1_linear_7_600)"/>
<g style="mix-blend-mode:soft-light">
<path d="M5.24599 20.988C5.24599 20.988 1.34411 22.0942 1.17871 23.5741C1.02083 25.0617 16.1697 31.5079 32.311 31.3096C48.4523 31.1112 60.3534 24.4285 60.5865 23.5741C60.8195 22.7197 55.9403 20.4235 55.9403 20.4235C55.9403 20.4235 56.7372 22.3459 56.3989 23.1317C56.0681 23.9174 45.7608 27.9072 32.078 27.9072C18.3951 27.9072 6.11056 24.2149 5.3362 23.8411C4.56184 23.475 5.23095 20.9804 5.23095 20.9804L5.24599 20.988Z" fill="#FFD8FF"/>
</g>
<g style="mix-blend-mode:multiply" opacity="0.8">
<path d="M6.73457 37.7405C6.73457 37.7405 27.6122 49.2521 54.5795 38.1448L54.3239 38.7322C54.3239 38.7322 46.7983 45.3844 30.439 45.8192C16.9667 46.1777 7.08792 38.5644 7.08792 38.5644L6.72705 37.7405H6.73457Z" fill="#E50092"/>
</g>
<path d="M55.9554 20.4235C55.9554 20.4235 60.4061 22.7197 60.6015 23.5741C60.7895 24.4209 54.6848 26.9231 52.7376 26.9231C50.7905 26.9231 56.1734 24.6879 56.617 23.6733C57.0605 22.6663 55.9554 20.4235 55.9554 20.4235Z" fill="#FFB3C7"/>
<path d="M5.51664 20.8049C5.51664 20.8049 1.29149 22.323 1.502 23.6809C1.7125 25.0388 9.58392 26.8773 11.1402 26.9307C12.6964 26.9841 5.46402 24.3828 5.03549 23.5818C4.60696 22.7807 5.51664 20.8126 5.51664 20.8126V20.8049Z" fill="#FFB3C7"/>
<path d="M13.7564 28.5938C9.77186 26.145 32.5967 27.7165 35.8671 29.0973C39.1299 30.4781 20.7106 32.8658 13.7564 28.5938Z" fill="white"/>
<g style="mix-blend-mode:multiply" opacity="0.5">
<path d="M43.4002 41.4022C33.559 41.1047 41.8514 32.3776 47.2945 29.6541C52.7376 26.9307 59.2783 25.5271 60.1203 25.8703C60.9624 26.2136 60.188 33.6363 56.459 36.764C52.7226 39.8918 46.2796 41.4938 43.4002 41.4022Z" fill="#E33292"/>
</g>
<g style="mix-blend-mode:soft-light">
<path d="M12.2077 15.9074C16.8538 25.1304 42.7461 17.4178 44.7759 10.5444C46.8133 3.67105 32.2659 0.65011 21.6353 4.41102C11.0048 8.17956 11.0349 13.5883 12.2002 15.8997L12.2077 15.9074Z" fill="#FFB3C7"/>
</g>
<g style="mix-blend-mode:soft-light">
<path d="M7.51643 39.4417C7.51643 39.4417 18.7033 53.8598 31.8223 52.3875C44.9489 50.9151 52.7226 41.776 52.7226 41.776C52.7226 41.776 44.1144 54.1726 29.2361 53.8369C14.3654 53.5012 7.50891 39.4341 7.50891 39.4341L7.51643 39.4417Z" fill="#FFB3C7"/>
</g>
<path d="M23.0863 8.37792C23.0863 11.8337 26.4845 10.7657 26.4845 7.66846C26.4845 4.57124 23.0863 6.93611 23.0863 8.37792Z" fill="white"/>
<g style="mix-blend-mode:multiply">
<path d="M56.4816 22.8265C55.5569 24.4514 51.3468 25.2448 51.3468 25.2448C51.3468 25.2448 54.2938 22.8189 53.7526 19.7522C53.2037 16.6702 47.8433 2.8853 31.2059 2.16821C16.1322 1.51215 6.47896 14.6715 6.42633 18.9359C6.3737 23.208 10.02 25.2448 10.02 25.2448L5.03549 23.5741L4.97534 23.4902C6.86238 10.7428 17.6884 0.962891 30.7773 0.962891C43.8663 0.962891 54.3314 10.4071 56.4816 22.8265Z" fill="#E50092"/>
</g>
<g style="mix-blend-mode:overlay">
<path d="M16.1021 49.2445C10.9748 44.0189 26.4845 45.0716 35.0175 51.4415C38.4758 54.02 22.9661 56.2323 16.1021 49.2445Z" fill="#FFB3C7"/>
</g>
<g style="mix-blend-mode:multiply" opacity="0.5">
<path d="M4.68208 35.6121C3.11081 34.1703 1.81018 26.8316 2.74242 26.1297C3.67466 25.4203 12.4633 28.9523 14.0947 30.2263C15.7261 31.5003 15.7412 39.8384 14.636 39.9604C13.5308 40.0825 7.80208 38.4805 4.68208 35.6121Z" fill="#E33292"/>
</g>
<g style="mix-blend-mode:overlay">
<path d="M45.3925 5.50955C45.3925 5.50955 52.9256 13.5806 55.7599 19.7522C55.7599 19.7522 53.2864 10.0104 45.3925 5.50955Z" fill="#FFB3C7"/>
</g>
<path d="M18.8537 41.7837C16.8614 40.2885 29.9954 40.2351 32.8072 42.6915C32.8072 42.6915 26.6725 43.4315 18.8537 41.7837Z" fill="#FFB3C7"/>
<g style="mix-blend-mode:soft-light">
<path d="M22.763 31.0197C15.3577 30.8213 17.7259 39.0145 22.0187 40.3648C26.3116 41.715 29.7623 40.6318 30.7773 39.8613C31.7922 39.0908 33.0553 32.8734 32.0929 32.0953C31.1306 31.3172 22.763 31.0197 22.763 31.0197Z" fill="#FFB3C7"/>
</g>
<path d="M40.1599 17.3721C38.3029 17.1737 38.8217 21.8043 40.5659 22.3459C42.3101 22.8876 42.716 17.6391 40.1599 17.3721Z" fill="white"/>
<path d="M44.0918 27.5105C42.3852 28.1208 42.1747 31.9275 45.5353 31.5689C48.8959 31.2104 45.9262 26.8545 44.0918 27.5105Z" fill="url(#paint2_linear_7_600)"/>
<g style="mix-blend-mode:multiply" opacity="0.4">
<path d="M44.0918 27.5105C42.9566 27.8233 43.0318 30.1958 44.6256 30.356C46.2194 30.5162 46.7833 29.0439 46.4299 28.6395C46.0691 28.2352 44.7534 27.335 44.0993 27.5105H44.0918Z" fill="#D41892"/>
</g>
<path d="M43.1521 30.3712C43.0544 30.0203 44.8812 31.3553 45.836 31.1799C47.5953 30.8518 46.4901 29.288 46.6781 29.3337C46.866 29.3795 47.5426 31.0426 46.024 31.4774C44.5053 31.9122 43.3325 31.0044 43.1521 30.3712Z" fill="#FF8B9A"/>
<g style="mix-blend-mode:soft-light">
<path d="M10.456 21.8653C9.03507 19.1114 12.4859 5.60108 23.0337 3.19044C33.574 0.779793 37.8217 17.6162 34.7769 25.077C34.0026 26.9765 12.8392 26.4959 10.456 21.8653Z" fill="#FFB3C7"/>
</g>
<defs>
<linearGradient id="paint0_linear_7_600" x1="30.7773" y1="53.9208" x2="30.7773" y2="0.962891" gradientUnits="userSpaceOnUse">
<stop stop-color="#FF3D57"/>
<stop offset="1" stop-color="#E0001D"/>
</linearGradient>
<linearGradient id="paint1_linear_7_600" x1="30.9577" y1="42.188" x2="30.9577" y2="20.4235" gradientUnits="userSpaceOnUse">
<stop stop-color="#FF3C46"/>
<stop offset="1" stop-color="#E0001D"/>
</linearGradient>
<linearGradient id="paint2_linear_7_600" x1="44.9714" y1="31.5918" x2="44.9714" y2="27.4419" gradientUnits="userSpaceOnUse">
<stop stop-color="#FF4831"/>
<stop offset="1" stop-color="#CA0000"/>
</linearGradient>
</defs>
</svg>
