<svg width="58" height="60" viewBox="0 0 58 60" fill="none" xmlns="http://www.w3.org/2000/svg">
<path d="M57.5974 31.6312C57.5974 47.2623 44.9186 59.9411 29.2799 59.9411C16.4181 59.9411 5.56253 51.3665 2.12202 39.626C2.12202 39.6184 2.12202 39.6108 2.12202 39.6108C1.37442 37.0781 0.977729 34.4004 0.977729 31.6312C0.977729 31.6312 -1.80672 23.2855 3.64775 14.2151C3.64775 14.2151 3.64775 14.1998 3.67063 14.177C4.34958 13.0479 5.15059 11.9189 6.10417 10.7822C6.12705 10.7517 6.14994 10.7288 6.18045 10.6983C7.61463 8.99712 9.3921 7.30356 11.5739 5.67103C24.718 -4.18515 45.117 0.300482 53.4627 15.4891C53.5466 15.634 53.6305 15.779 53.7068 15.9163C53.8441 16.1604 53.9585 16.3816 54.0577 16.58C54.2103 16.8927 54.3629 17.2131 54.5078 17.5335C54.5231 17.5641 54.5383 17.5946 54.5459 17.6175V17.6327C55.4614 19.6848 56.1708 21.8971 56.6286 24.2773C56.6286 24.2849 56.6286 24.3001 56.6286 24.3078C57.0481 25.8945 57.3456 27.5423 57.483 29.2359C57.5516 30.0216 57.5898 30.8226 57.5898 31.6312H57.5974Z" fill="url(#paint0_linear_7_707)"/>
<path d="M31.988 31.143C31.988 31.143 18.2183 26.0242 16.4027 39.6108C16.4027 39.6108 17.9895 45.584 24.0466 47.8039C24.0466 47.8039 25.2824 37.3146 31.9804 31.1506L31.988 31.143Z" fill="url(#paint1_linear_7_707)"/>
<path d="M33.3155 29.6249C33.3155 29.6249 32.0033 41.9986 41.2721 44.0812C41.2721 44.0812 45.7196 40.1295 46.6274 33.6605C46.6274 33.6605 46.5588 33.9885 41.2416 33.6605C35.9321 33.3324 34.3148 28.2365 34.3148 28.2365L33.3155 29.6249Z" fill="url(#paint2_linear_7_707)"/>
<path d="M34.1545 26.0623C34.6275 26.3446 44.7888 25.4902 45.361 20.791C45.361 20.791 43.0419 14.7186 37.4043 12.9792C37.4043 12.9792 36.7025 22.9651 32.7814 26.4972L34.1545 26.0623Z" fill="url(#paint3_linear_7_707)"/>
<path d="M27.9144 25.8259C27.9144 25.8259 33.5825 14.7186 26.7167 10.7441C26.7167 10.7441 23.9704 10.3855 17.8293 12.9869C17.8293 12.9869 26.053 16.3587 25.992 25.0096L27.922 25.8335L27.9144 25.8259Z" fill="url(#paint4_linear_7_707)"/>
<path d="M8.27061 21.5157C8.27061 21.5157 14.2515 20.051 17.3868 25.8564C17.3868 25.8564 15.6627 26.993 14.7015 31.3032C14.7015 31.3032 6.6152 30.281 1.53453 37.2841C1.53453 37.2841 0.733529 33.2867 0.962388 31.6313C1.19888 29.9758 5.50905 22.7515 8.27061 21.5233V21.5157Z" fill="url(#paint5_linear_7_707)"/>
<path d="M17.3868 42.4258C17.3868 42.4258 12.9012 47.4988 13.4428 55.1045C13.4428 55.1045 19.5534 59.7046 27.7923 59.9411C27.7923 59.9411 24.7561 51.603 24.9773 47.7963C24.9773 47.7963 20.2094 46.713 17.3868 42.4258Z" fill="url(#paint6_linear_7_707)"/>
<path d="M43.5531 41.5332C43.5531 41.5332 46.7419 45.8357 54.2942 44.9127C54.2942 44.9127 57.9788 38.7792 57.5974 31.3032C57.5974 31.3032 53.4245 32.4933 47.2301 31.6236C47.2301 31.6236 46.0858 38.1308 43.5607 41.5255L43.5531 41.5332Z" fill="url(#paint7_linear_7_707)"/>
<path d="M44.4227 18.9296C44.4227 18.9296 49.7475 16.0688 50.5867 11.2018C50.5867 11.2018 47.2377 6.76955 42.2562 4.23685C42.2562 4.23685 42.3096 10.3703 40.1888 14.3143L44.4227 18.9296Z" fill="url(#paint8_linear_7_707)"/>
<path d="M29.2418 10.7288C29.2418 10.7288 30.8667 2.12371 24.8858 0.567474C24.8858 0.567474 17.0284 0.964163 10.6737 6.3576C10.6737 6.3576 19.4924 6.0906 23.6805 11.0568L29.2418 10.7288Z" fill="url(#paint9_linear_7_707)"/>
<path d="M3.63245 14.2151C3.63245 14.2151 9.78875 12.7122 15.8383 14.2151C15.8383 14.2151 12.5351 16.4198 9.15558 19.7458C9.15558 19.7458 2.32033 22.309 0.352143 28.2365C0.352143 28.2365 -0.860809 21.7369 3.64008 14.2151H3.63245Z" fill="url(#paint10_linear_7_707)"/>
<g style="mix-blend-mode:multiply" opacity="0.2">
<path d="M0.962412 19.8679C0.657267 23.3084 4.052 23.1787 6.69151 20.6842C9.85739 17.6937 12.8478 11.69 19.2253 9.40905C34.0096 4.11479 43.8811 15.6645 45.3686 19.8679C45.3686 19.8679 36.1914 9.73708 24.9087 11.4688C13.6259 13.2005 2.66359 27.3058 0.97004 31.6236C0.97004 31.6236 -0.807429 27.5042 0.97004 19.8679H0.962412Z" fill="#CA1B3B"/>
</g>
<g style="mix-blend-mode:multiply" opacity="0.64">
<path d="M0.962402 31.6236C0.962402 31.6236 10.6813 10.0041 30.3631 11.4993C50.045 12.9945 50.8384 38.1385 38.808 45.1797C26.7777 52.2209 13.4657 42.3113 15.2813 30.8608C17.0969 19.4102 29.8139 26.8176 31.988 31.1354C31.988 31.1354 34.2537 28.9994 34.5436 27.0693C34.8335 25.1393 32.3237 27.5957 30.0122 26.5124C27.7007 25.4292 23.0778 21.9353 17.486 25.0783C11.8942 28.2213 10.2312 49.2839 28.9213 49.0474C47.6191 48.8109 53.3253 23.8043 40.4177 13.7269C27.5024 3.64945 9.68955 11.7892 0.962402 31.616V31.6236Z" fill="#CC5748"/>
</g>
<g style="mix-blend-mode:soft-light">
<path d="M57.5973 31.6313C57.5973 47.2623 44.9185 59.9411 29.2799 59.9411C16.418 59.9411 5.56246 51.3665 2.12195 39.6261C2.35844 40.2287 9.0106 61.299 30.9734 57.9119C56.5064 53.9755 57.4905 29.2359 57.4905 29.2359C57.5592 30.0216 57.5973 30.8226 57.5973 31.6313Z" fill="#B3FF5E"/>
</g>
<g style="mix-blend-mode:multiply" opacity="0.5">
<path d="M17.3868 25.8564C22.4904 22.8354 27.2201 25.33 29.3104 27.7788C31.4006 30.2276 32.3466 30.1818 32.3466 30.1818C32.3466 30.1818 34.8869 28.5188 34.536 27.077C34.1851 25.6351 32.2703 27.2906 30.4318 26.8939C28.5857 26.4972 27.51 24.3612 22.5209 23.4991C19.1262 22.9117 17.3868 25.8564 17.3868 25.8564Z" fill="#D31F90"/>
</g>
<g style="mix-blend-mode:multiply" opacity="0.5">
<path d="M7.84348 20.3638C7.58411 20.6765 14.633 13.3759 23.5508 11.7053C32.4687 10.0346 36.4661 11.8121 36.4661 11.8121C36.4661 11.8121 32.2627 9.14969 24.1764 10.7288C16.09 12.3079 7.84348 20.3714 7.84348 20.3714V20.3638Z" fill="#D31F90"/>
</g>
<g style="mix-blend-mode:multiply" opacity="0.2">
<path d="M15.8383 37.2841C15.8383 37.2841 27.6016 48.9787 39.0674 41.64C50.5332 34.3013 44.0413 17.5869 44.0413 17.5869C44.0413 17.5869 53.5923 36.0101 38.8157 45.1797C24.039 54.3417 16.4943 42.8987 15.8383 37.2841Z" fill="#CA1B3B"/>
</g>
<g style="mix-blend-mode:multiply" opacity="0.2">
<path d="M14.7016 28.9078C14.7016 28.9078 15.6552 23.1406 23.5279 20.3714C31.4083 17.6022 35.276 25.0478 34.5665 27.4355C33.8571 29.8233 33.0637 30.4565 32.339 30.1818C31.6219 29.9072 27.6321 23.9416 22.1471 24.468C16.6545 25.002 14.694 28.9078 14.694 28.9078H14.7016Z" fill="#CA1B3B"/>
</g>
<g style="mix-blend-mode:multiply" opacity="0.2">
<path d="M16.9673 56.4548C9.14795 52.9456 34.2232 56.9049 42.3172 52.8693C50.4112 48.8338 54.7214 40.1524 54.7214 40.1524C54.7214 40.1524 50.4341 52.0836 37.0535 56.4548C23.6728 60.826 16.9673 56.4548 16.9673 56.4548Z" fill="#CA1B3B"/>
</g>
<g style="mix-blend-mode:soft-light">
<path d="M7.1721 24.2773C5.29546 29.3045 19.3626 20.257 25.0078 19.7458C30.653 19.2347 30.9276 21.3402 37.1907 22.4845C43.4538 23.6288 43.0419 19.5246 42.9732 18.2811C42.9046 17.0377 36.5194 10.5457 25.6944 11.5832C14.8618 12.6283 8.59865 20.4629 7.17973 24.2773H7.1721Z" fill="#B3B35E"/>
</g>
<g style="mix-blend-mode:soft-light">
<path d="M3.70108 14.8483C3.4112 23.1253 12.6647 8.57753 25.3816 7.61632C38.0986 6.64749 44.6973 16.6715 50.0221 16.7707C55.3469 16.8698 46.0018 -0.447133 26.442 0.567474C9.43018 1.44477 3.70108 14.8483 3.70108 14.8483Z" fill="#B3B35E"/>
</g>
<g style="mix-blend-mode:soft-light">
<path d="M13.9082 40.6864C11.1695 37.4824 12.8936 54.9138 31.9804 54.7536C51.0672 54.5934 52.4709 32.6459 51.502 30.2428C50.5332 27.8474 47.2681 46.0493 33.651 48.4142C20.0339 50.7791 13.9082 40.6864 13.9082 40.6864Z" fill="#B3B35E"/>
</g>
<g style="mix-blend-mode:soft-light">
<path d="M18.5692 25.4368C16.0365 26.6421 15.2126 32.4551 17.2495 36.1474C22.9862 46.5605 35.7413 44.6762 39.937 40.1524C44.1251 35.621 38.1061 27.2677 36.466 27.5042C34.8258 27.7483 33.0865 31.6618 31.7133 31.3871C30.3402 31.1125 27.4032 26.4438 23.9627 25.4292C20.5145 24.4146 18.5692 25.4292 18.5692 25.4292V25.4368Z" fill="#B3B35E"/>
</g>
<path d="M14.2057 6.02196C12.1383 8.73012 16.4485 8.76063 19.5533 5.81598C22.6582 2.87133 16.1586 3.46637 14.2057 6.02196Z" fill="white"/>
<path d="M20.3849 14.2456C19.5686 15.0466 20.3544 16.3053 22.4446 14.894C24.5425 13.4827 21.8267 12.8343 20.3849 14.2456Z" fill="white"/>
<path d="M54.0576 20.1273C53.3329 19.2347 52.0132 19.906 53.2185 22.1183C54.4238 24.3383 55.324 21.6911 54.0576 20.1273Z" fill="white"/>
<path d="M34.1469 36.7653C30.5386 39.9083 34.9479 42.2503 37.4043 39.1302C39.8608 36.0101 36.6033 34.6293 34.1469 36.7653Z" fill="white"/>
<g style="mix-blend-mode:multiply" opacity="0.2">
<path d="M0.924316 32.0966C0.924316 32.0966 3.47228 27.1609 5.24975 25.0782C7.03484 22.9956 -1.2117 40.16 14.1142 54.7536C14.1142 54.7536 1.90078 48.3913 0.924316 32.0966Z" fill="#CA0092"/>
</g>
<path d="M19.7745 25.7877C17.3563 27.7406 21.4071 28.0076 23.2151 26.8023C25.023 25.597 20.6518 25.0859 19.7745 25.7877Z" fill="white"/>
<g style="mix-blend-mode:multiply" opacity="0.64">
<path d="M0.497049 22.9117C0.863223 21.9276 4.15116 22.7363 5.15051 23.1024C6.14986 23.4686 1.70237 30.0292 1.70237 30.0292L0.970024 31.6236C0.970024 31.6236 -0.357357 26.6726 0.504678 22.9041L0.497049 22.9117Z" fill="#CC5748"/>
</g>
<g style="mix-blend-mode:soft-light">
<path d="M53.4549 15.4891C50.9375 11.1255 43.7742 2.14661 29.2036 1.92538C16.7307 1.73466 9.58272 6.82296 6.17273 10.6983C7.60691 8.99712 9.38438 7.30356 11.5662 5.67103C24.7103 -4.18515 45.1092 0.300482 53.4549 15.4891Z" fill="#B3FF5E"/>
</g>
<g style="mix-blend-mode:multiply" opacity="0.64">
<path d="M53.6991 15.9163C53.6228 15.7713 53.5389 15.634 53.455 15.4891C53.5389 15.634 53.6228 15.779 53.6991 15.9163Z" fill="#CC5748"/>
</g>
<defs>
<linearGradient id="paint0_linear_7_707" x1="28.929" y1="59.9411" x2="28.929" y2="0.430167" gradientUnits="userSpaceOnUse">
<stop stop-color="#FFBBA4"/>
<stop offset="1" stop-color="#FFD1C9"/>
</linearGradient>
<linearGradient id="paint1_linear_7_707" x1="24.1915" y1="47.7963" x2="24.1915" y2="30.197" gradientUnits="userSpaceOnUse">
<stop stop-color="#FF6600"/>
<stop offset="1" stop-color="#FF7A00"/>
</linearGradient>
<linearGradient id="paint2_linear_7_707" x1="39.9371" y1="44.0735" x2="39.9371" y2="28.2365" gradientUnits="userSpaceOnUse">
<stop stop-color="#FF6600"/>
<stop offset="1" stop-color="#FF7A00"/>
</linearGradient>
<linearGradient id="paint3_linear_7_707" x1="39.075" y1="26.4972" x2="39.075" y2="12.9869" gradientUnits="userSpaceOnUse">
<stop stop-color="#FF6600"/>
<stop offset="1" stop-color="#FF7A00"/>
</linearGradient>
<linearGradient id="paint4_linear_7_707" x1="23.9628" y1="25.8259" x2="23.9628" y2="10.7288" gradientUnits="userSpaceOnUse">
<stop stop-color="#FF6600"/>
<stop offset="1" stop-color="#FF7A00"/>
</linearGradient>
<linearGradient id="paint5_linear_7_707" x1="9.15553" y1="37.2764" x2="9.15553" y2="21.3555" gradientUnits="userSpaceOnUse">
<stop stop-color="#FF6600"/>
<stop offset="1" stop-color="#FF7A00"/>
</linearGradient>
<linearGradient id="paint6_linear_7_707" x1="20.5985" y1="59.9411" x2="20.5985" y2="42.4258" gradientUnits="userSpaceOnUse">
<stop stop-color="#FF6600"/>
<stop offset="1" stop-color="#FF7A00"/>
</linearGradient>
<linearGradient id="paint7_linear_7_707" x1="50.5867" y1="45.0423" x2="50.5867" y2="31.3032" gradientUnits="userSpaceOnUse">
<stop stop-color="#FF6600"/>
<stop offset="1" stop-color="#FF7A00"/>
</linearGradient>
<linearGradient id="paint8_linear_7_707" x1="45.3839" y1="18.9296" x2="45.3839" y2="4.23685" gradientUnits="userSpaceOnUse">
<stop stop-color="#FF6600"/>
<stop offset="1" stop-color="#FF7A00"/>
</linearGradient>
<linearGradient id="paint9_linear_7_707" x1="20.0569" y1="11.0568" x2="20.0569" y2="0.567474" gradientUnits="userSpaceOnUse">
<stop stop-color="#FF6600"/>
<stop offset="1" stop-color="#FF7A00"/>
</linearGradient>
<linearGradient id="paint10_linear_7_707" x1="8.01891" y1="28.2365" x2="8.01891" y2="13.5514" gradientUnits="userSpaceOnUse">
<stop stop-color="#FF6600"/>
<stop offset="1" stop-color="#FF7A00"/>
</linearGradient>
</defs>
</svg>
