<svg width="67" height="67" viewBox="0 0 67 67" fill="none" xmlns="http://www.w3.org/2000/svg">
<path d="M56.2875 0.134613H10.9048C5.11593 0.134613 0.423096 4.82744 0.423096 10.6163V55.999C0.423096 61.7879 5.11593 66.4808 10.9048 66.4808H56.2875C62.0764 66.4808 66.7692 61.7879 66.7692 55.999V10.6163C66.7692 4.82744 62.0764 0.134613 56.2875 0.134613Z" fill="#F3A994"/>
<path d="M54.6855 43.9534L54.6245 44.9604V45.0443C54.5558 46.0284 54.4872 46.9896 54.4109 47.928C54.4109 47.928 54.4109 47.9737 54.4109 48.0653C54.2965 49.4613 54.1668 50.7963 54.0295 52.055C54.0295 52.1237 54.0142 52.1924 54.0066 52.261C53.4115 57.6163 52.6334 61.484 52.0003 62.2698C49.8185 64.9856 41.6558 65.8476 38.3984 62.8114C37.872 62.3232 37.5135 61.423 37.2923 60.2253C37.2541 60.0041 37.216 59.7905 37.1855 59.5616C36.6133 55.3964 37.2846 48.3475 37.8339 41.7411C38.0933 38.5753 38.3298 35.5086 38.3832 32.9072C38.3984 32.4418 38.3984 31.9994 38.3984 31.5722C38.3984 29.4057 38.2153 27.5824 37.9254 26.0643C37.7881 25.3777 37.6279 24.7446 37.4448 24.18C37.2999 23.7071 37.1397 23.2799 36.9566 22.8832C36.3463 21.4948 35.5758 20.5564 34.729 19.9538C32.5778 18.4204 29.9612 19.0765 28.2905 20.1826C28.2218 20.2208 28.1532 20.2666 28.0845 20.32C27.993 20.381 27.9014 20.4496 27.8175 20.5183C27.6497 20.648 27.5047 20.8235 27.3674 21.0294C27.3522 21.0599 27.3293 21.0905 27.3064 21.1286C26.391 22.6238 26.124 25.7363 26.0477 28.5284C26.0477 28.6886 26.0477 28.8411 26.0477 28.9937C26.0477 29.1615 26.0477 29.337 26.0477 29.5048C26.0477 29.7566 26.0477 30.0007 26.0477 30.2448C26.0477 31.1984 26.0477 32.0452 26.0477 32.6936C26.0477 35.8061 21.6841 37.8124 17.2442 37.2021L17.1756 37.1869C16.8552 37.1411 16.5348 37.0877 16.2144 37.0038H16.1991C15.4363 36.8283 14.681 36.5689 13.9563 36.2256C13.5062 36.0044 13.0638 35.7603 12.6442 35.4704C10.4853 34.0057 9.37912 30.2295 9.25707 25.866C9.12738 21.5558 9.96653 16.6735 11.683 12.8363C11.683 12.8363 11.6982 12.7829 11.7211 12.7447C12.5755 10.8605 13.6435 9.2432 14.9175 8.07602C17.7172 5.50517 22.1342 3.53699 27.0089 2.6063C31.5327 1.73663 36.4531 1.76715 40.8243 3.0335C44.692 4.15491 48.1402 6.23752 50.5203 9.51783C50.9322 10.09 51.3137 10.7537 51.6646 11.4936C52.0155 12.2336 52.3359 13.0575 52.6182 13.9424C52.6182 13.9577 52.6182 13.9653 52.6182 13.9729C53.8082 17.6652 54.4796 22.5094 54.7771 27.7045C55.0746 33.0369 54.9983 38.7431 54.7008 43.9534H54.6855Z" fill="url(#paint0_linear_7_627)"/>
<path d="M54.6168 45.0443C54.6168 45.0443 54.6168 45.052 54.6168 45.0596C50.238 53.5731 39.0621 52.5585 37.1854 59.554C35.7436 53.6952 37.8339 41.7411 37.8339 41.7411C38.3831 41.5047 38.9095 41.2682 39.4282 41.0241C50.2685 35.9358 53.8921 29.5811 54.7694 27.7045C54.9296 27.3536 54.9983 27.1552 54.9983 27.1552C56.6461 37.6446 54.6245 45.0443 54.6245 45.0443H54.6168Z" fill="url(#paint1_linear_7_627)"/>
<path d="M52.5648 14.1408C52.5419 14.2247 52.5114 14.3391 52.458 14.4917C52.2291 15.2317 51.8477 15.9869 51.3366 16.7574C47.9189 21.8686 39.1918 27.529 38.3755 32.8996C37.0787 30.9695 36.949 22.8832 36.949 22.8832C37.0024 22.7535 37.4677 21.6321 38.5815 18.5578C38.5815 18.5272 38.5968 18.5044 38.6044 18.4738V18.451C38.8866 17.6652 39.1994 16.7727 39.5656 15.7428C41.4956 10.2502 40.7862 3.03351 40.7862 3.03351C47.2171 3.95657 50.238 8.08366 51.5807 10.9902C51.5807 10.9902 51.5807 10.9978 51.5807 11.0131C52.2978 12.554 52.5419 13.7517 52.5724 13.9424C52.5724 13.9577 52.5724 13.9653 52.5724 13.973C52.5724 13.973 52.5724 14.0264 52.5343 14.1408H52.5648Z" fill="url(#paint2_linear_7_627)"/>
<path d="M34.729 19.969C34.729 19.969 31.7538 21.8381 29.0075 20.6098C28.7634 20.503 28.5193 20.3581 28.2828 20.1826C25.8874 18.4052 23.8811 13.6297 19.5251 11.7378C14.9709 9.75432 11.9576 12.5464 11.6829 12.821C11.6677 12.8287 11.66 12.8363 11.66 12.8363C12.0338 5.78743 19.9676 1.09583 26.9859 2.60629C29.6331 3.17844 30.785 4.74994 31.4182 6.8707C31.4182 6.8707 31.4487 6.96987 31.4868 7.10718C31.5402 7.32841 31.6318 7.70222 31.7538 8.22096C31.7538 8.24385 31.7538 8.26673 31.7691 8.28962C32.4251 11.6615 32.448 15.9869 34.7214 19.9538C34.7214 19.9614 34.7214 19.9614 34.7214 19.969H34.729Z" fill="url(#paint3_linear_7_627)"/>
<path d="M27.3598 21.0294C26.2307 23.112 12.194 21.7694 9.21888 25.8889C6.24372 30.0083 10.8667 36.4926 16.1762 37.0114C16.1762 37.0114 19.0903 30.3058 26.0324 29.0013C26.0324 29.0013 27.9777 25.1641 27.3598 21.037V21.0294Z" fill="url(#paint4_linear_7_627)"/>
<g style="mix-blend-mode:multiply" opacity="0.71">
<path d="M12.072 35.3865C15.2303 38.3083 17.2976 32.9377 21.0204 30.5194C24.7432 28.1012 25.8569 28.803 26.2918 28.4292C26.7266 28.063 26.04 29.0013 26.04 29.0013V29.5048C26.04 29.5048 21.9511 30.4813 19.5328 32.9148C17.1145 35.3483 17.2213 37.2097 17.2213 37.2097L16.1762 37.0114C16.1762 37.0114 14.2767 36.9809 12.072 35.3865Z" fill="#CA0092"/>
</g>
<g style="mix-blend-mode:multiply" opacity="0.71">
<path d="M54.6855 43.9534L54.6245 44.9604V45.0443C54.6245 45.0443 54.6169 45.052 54.6093 45.0596C54.5406 45.319 53.2742 49.5529 47.5757 52.1695C41.7016 54.87 37.3914 58.013 37.2846 60.2177C37.2465 60.0041 37.2084 59.7905 37.1778 59.5616C35.736 53.6952 37.8263 41.7411 37.8263 41.7411C38.0857 38.5753 38.3221 35.5086 38.3755 32.9072C37.0787 30.9695 36.949 22.8832 36.949 22.8832C36.3387 21.4948 35.5682 20.5565 34.7214 19.9538C34.7214 19.9614 34.7214 19.9614 34.7214 19.969C34.7214 19.969 31.7463 21.8381 29 20.6099C28.7558 20.5031 28.5117 20.3581 28.2752 20.1826C28.2066 20.2208 28.1379 20.2666 28.0693 20.32C27.3293 19.5037 20.9441 12.4625 17.8774 11.6767C14.7802 10.891 11.9576 12.6379 11.6754 12.821C11.6601 12.8287 11.6525 12.8363 11.6525 12.8363C11.6525 12.8363 11.6677 12.7829 11.6906 12.7447C11.8737 12.3481 12.8807 10.746 16.9315 10.4943C21.5544 10.2044 24.972 17.0473 28.3439 18.4433C31.7157 19.8394 33.1652 17.3829 33.1652 17.3829C33.1652 17.3829 31.9675 12.3633 31.4106 6.87833C31.4106 6.89358 31.4411 6.96987 31.4793 7.10719C31.5327 7.32842 31.6242 7.70222 31.7463 8.22096C31.7463 8.24385 31.7463 8.26674 31.7615 8.28962C31.9141 9.00671 32.1048 9.98318 32.3184 11.2114C32.8066 14.0569 34.1035 17.8788 36.0107 18.8705C37.7347 19.7707 38.4747 18.6874 38.5968 18.4738C38.5968 18.4738 38.5968 18.4586 38.5968 18.451C38.5968 18.451 38.5968 18.451 38.5968 18.4738C38.5968 18.4891 38.5815 18.5196 38.5663 18.5578C38.3984 19.0841 37.7118 21.3498 37.4448 23.9359C37.4372 24.0198 37.4296 24.1038 37.422 24.18C37.3686 25.0726 37.5669 25.6753 37.9026 26.0643C38.5891 26.8653 39.8631 26.8043 40.8625 26.5831C42.4111 26.2474 48.3004 19.2443 50.2152 17.2838C51.7333 15.7352 51.7028 12.6913 51.6265 11.4936C51.6112 11.2495 51.5883 11.0817 51.5883 11.013C51.6722 11.2495 52.3283 13.1185 52.58 13.9424C52.58 13.9577 52.58 13.9653 52.58 13.9729C52.58 13.9729 52.58 14.0263 52.5419 14.1408C52.458 14.4764 52.1757 15.3232 51.3137 16.7574C50.9323 17.3906 50.444 18.1458 49.7956 19.0231C46.4771 23.5392 41.366 26.3924 39.5351 32.4647C37.7042 38.5295 39.3978 41.0241 39.3978 41.0241C39.3978 41.0241 36.7888 46.6845 37.2923 52.3373C37.7958 57.9901 42.8383 53.2604 47.6977 50.6056C52.5648 47.9432 54.6627 43.9534 54.6627 43.9534H54.6855Z" fill="#CA0092"/>
</g>
<g style="mix-blend-mode:multiply" opacity="0.3">
<path d="M53.9989 52.261C53.4038 57.6163 52.6257 61.484 51.9925 62.2698C49.8107 64.9856 41.6481 65.8476 38.3907 62.8114C37.8643 62.3232 37.5058 61.423 37.2845 60.2253C38.0169 62.3384 44.9818 65.5577 49.2157 63.0555C52.1527 61.3238 53.442 56.0906 53.9989 52.261Z" fill="#CA0092"/>
</g>
<g style="mix-blend-mode:multiply" opacity="0.3">
<path d="M26.0247 32.6936C26.0247 35.8061 21.6612 37.8124 17.2213 37.2021C17.2213 37.2021 21.0509 37.1487 23.5378 34.9212C25.9408 32.7699 26.0171 30.4126 26.0171 30.2524C26.0171 31.1984 26.0171 32.0452 26.0171 32.6936H26.0247Z" fill="#CA0092"/>
</g>
<g style="mix-blend-mode:soft-light" opacity="0.4">
<path d="M9.21892 25.8889C7.97546 28.9937 14.1775 33.4717 16.0694 33.3725C17.9613 33.2734 22.0655 29.4209 24.1634 28.3376C26.2613 27.2544 26.9173 23.0434 26.4367 22.4178C25.9561 21.7923 18.625 22.2576 15.0777 23.2417C11.538 24.2334 9.21892 25.8812 9.21892 25.8812V25.8889Z" fill="#FFD8FF"/>
</g>
<g style="mix-blend-mode:soft-light" opacity="0.4">
<path d="M13.1019 9.91452C12.8883 10.7842 14.9633 9.09826 21.6231 11.6767C28.2828 14.2476 30.2358 7.81665 30.0145 5.50518C29.8009 3.19371 17.6562 -0.857095 13.1019 9.91452Z" fill="#FFD8FF"/>
</g>
<g style="mix-blend-mode:soft-light" opacity="0.4">
<path d="M42.8078 4.42191C41.5033 4.63551 41.366 10.9291 40.8548 15.9869C40.3437 21.0447 49.3836 19.5266 51.1153 13.2406C52.847 6.95461 42.8078 4.42191 42.8078 4.42191Z" fill="#FFD8FF"/>
</g>
<g style="mix-blend-mode:soft-light" opacity="0.4">
<path d="M40.832 40.9173C38.0933 42.3209 37.8873 48.3628 39.6266 51.4677C41.366 54.5725 48.7352 50.3081 52.6029 45.3953C56.4706 40.4824 54.9525 32.1672 54.3728 31.6637C53.793 31.1603 44.7912 38.888 40.8396 40.9173H40.832Z" fill="#FFD8FF"/>
</g>
<path d="M21.9892 6.08495C21.7985 8.54899 25.0559 8.40405 26.0172 5.50517C26.9784 2.60629 22.1342 4.20068 21.9892 6.08495Z" fill="white"/>
<path d="M44.4707 9.05248C42.9832 9.62463 44.4707 10.8605 45.4853 10.4943C46.4999 10.1357 45.4167 8.68631 44.4707 9.05248Z" fill="white"/>
<path d="M11.6601 27.7579C10.8209 28.9174 12.8196 30.1456 14.1928 28.3453C15.566 26.5449 12.4611 26.667 11.6601 27.7579Z" fill="white"/>
<g style="mix-blend-mode:screen" opacity="0.47">
<path d="M39.1688 41.6191C39.1688 41.6191 42.0143 41.0622 47.2857 38.1709C52.5647 35.2797 54.6854 29.2455 54.6854 29.2455C54.6854 29.2455 49.3378 37.4691 39.1688 41.6115V41.6191Z" fill="#FFCCE0"/>
</g>
<g style="mix-blend-mode:screen" opacity="0.47">
<path d="M41.3125 3.50647C41.3125 3.50647 41.6406 11.7225 38.6196 18.4433C38.6196 18.4433 43.2883 12.2718 41.3125 3.50647Z" fill="#FFCCE0"/>
</g>
<g style="mix-blend-mode:screen" opacity="0.47">
<path d="M12.5449 9.28898C12.5449 9.28898 15.932 3.8574 21.9892 3.29288C28.0387 2.72836 30.1976 4.42192 30.1976 4.42192C30.1976 4.42192 28.1378 1.8587 22.5842 2.43085C16.7712 3.03351 13.5672 7.05379 12.5525 9.28135L12.5449 9.28898Z" fill="#FFCCE0"/>
</g>
<g style="mix-blend-mode:screen" opacity="0.47">
<path d="M10.6759 25.0116C10.6759 25.0116 13.8647 23.2112 19.5022 22.8527C25.1398 22.4941 26.4366 21.9143 26.4366 21.9143C26.4366 21.9143 25.3 22.9595 20.7686 23.1044C16.2295 23.2493 10.6835 25.0116 10.6835 25.0116H10.6759Z" fill="#FFCCE0"/>
</g>
<g style="mix-blend-mode:multiply" opacity="0.71">
<path d="M26.9555 22.5399C26.4672 21.8075 23.6294 27.1094 23.6294 28.1011C23.6294 29.0929 24.9568 28.6809 26.1468 27.7502C27.3369 26.8195 27.1462 22.8221 26.9555 22.5322V22.5399Z" fill="#CA0092"/>
</g>
<path d="M15.7185 13.2025C13.262 13.6373 12.2169 16.8184 12.6289 19.5647C13.0408 22.311 17.5951 18.0466 18.3961 15.5139C19.1971 12.9812 15.7185 13.2025 15.7185 13.2025Z" fill="white"/>
<g style="mix-blend-mode:multiply" opacity="0.2">
<path d="M18.5564 22.5704C17.5112 22.2958 21.8519 17.6194 23.8735 17.4287C25.8951 17.238 27.6497 20.0224 27.726 20.2665C27.8099 20.5183 26.8334 21.6702 23.0572 22.2652C19.2887 22.8603 18.5487 22.5628 18.5487 22.5628L18.5564 22.5704Z" fill="#E72F92"/>
</g>
<g style="mix-blend-mode:multiply" opacity="0.2">
<path d="M44.7988 63.1089C44.4708 61.9189 47.8503 57.4103 51.2908 57.4027C53.8006 57.3951 52.4198 62.8267 50.6042 63.437C48.781 64.0473 45.493 65.5882 44.7988 63.1089Z" fill="#E72F92"/>
</g>
<path d="M52.8089 25.0116C51.985 24.3402 51.1535 29.3294 52.1986 29.7871C53.2437 30.2448 54.5406 26.4152 52.8089 25.0116Z" fill="white"/>
<g style="mix-blend-mode:multiply" opacity="0.71">
<path d="M55.1509 30.878C54.7694 29.3065 53.1293 41.97 53.6557 44.3501C54.182 46.7303 56.8749 37.9955 55.1509 30.878Z" fill="#CA0092"/>
</g>
<path d="M41.5338 28.3376C40.9845 29.2607 45.9202 25.2557 48.3004 22.6467C50.6805 20.0377 51.3289 16.7574 51.3289 16.7574C51.3289 16.7574 42.4034 26.8806 41.5261 28.3376H41.5338Z" fill="white"/>
<path d="M42.7848 54.8548C42.7848 54.8548 46.5686 53.1383 48.3079 52.261C50.0396 51.3837 52.0612 49.0799 52.0612 49.0799C52.0612 49.0799 50.2685 50.5827 47.423 51.9635C44.5851 53.3443 42.7848 54.8471 42.7848 54.8471V54.8548Z" fill="white"/>
<path d="M28.6871 2.80463C28.6871 2.80463 30.4188 3.6514 31.2427 5.81793C32.0666 7.98446 32.1582 10.2883 32.1582 10.2883C32.1582 10.2883 32.3031 6.88594 31.6318 4.9559C30.9605 3.02586 28.6948 2.80463 28.6948 2.80463H28.6871Z" fill="white"/>
<path d="M17.8773 35.0585C17.8773 35.0585 19.1284 33.0674 21.6153 31.8163C24.1099 30.5652 25.4602 29.6574 25.4602 29.6574C25.4602 29.6574 20.2651 30.4889 17.8773 35.0585Z" fill="white"/>
<path d="M13.3994 11.9971C13.3994 11.9971 16.5653 11.631 18.5564 12.5159C20.5551 13.4008 22.9581 15.1554 22.9581 15.1554C22.9581 15.1554 20.0211 11.9361 17.9995 11.4097C15.9779 10.8834 13.3994 11.9971 13.3994 11.9971Z" fill="white"/>
<defs>
<linearGradient id="paint0_linear_7_627" x1="32.0819" y1="64.7338" x2="32.0819" y2="2.01127" gradientUnits="userSpaceOnUse">
<stop stop-color="#FFBBA4"/>
<stop offset="1" stop-color="#FFD1C9"/>
</linearGradient>
<linearGradient id="paint1_linear_7_627" x1="46.1491" y1="59.554" x2="46.1491" y2="27.1552" gradientUnits="userSpaceOnUse">
<stop stop-color="#D60042"/>
<stop offset="1" stop-color="#FF1820"/>
</linearGradient>
<linearGradient id="paint2_linear_7_627" x1="44.7759" y1="32.8996" x2="44.7759" y2="3.03351" gradientUnits="userSpaceOnUse">
<stop stop-color="#D60042"/>
<stop offset="1" stop-color="#FF1820"/>
</linearGradient>
<linearGradient id="paint3_linear_7_627" x1="23.1945" y1="21.0294" x2="23.1945" y2="2.32403" gradientUnits="userSpaceOnUse">
<stop stop-color="#D60042"/>
<stop offset="1" stop-color="#FF1820"/>
</linearGradient>
<linearGradient id="paint4_linear_7_627" x1="17.8774" y1="37.0038" x2="17.8774" y2="21.0294" gradientUnits="userSpaceOnUse">
<stop stop-color="#D60042"/>
<stop offset="1" stop-color="#FF1820"/>
</linearGradient>
</defs>
</svg>
