<svg width="45" height="59" viewBox="0 0 45 59" fill="none" xmlns="http://www.w3.org/2000/svg">
<path d="M44.6556 30.4253C44.3733 34.8346 43.0841 38.5727 41.2151 41.7233C35.4402 51.4956 24.1727 55.6684 20.5644 56.9348C14.3013 59.1394 5.24609 57.8731 5.24609 57.8731V57.7892L5.18507 56.416L2.83545 0.719427C2.83545 0.719427 10.9294 -1.11144 24.516 3.81665C38.1026 8.73711 45.3727 19.0052 44.6556 30.4253Z" fill="url(#paint0_linear_7_790)"/>
<path d="M35.3868 30.1582C34.4028 45.9495 21.4188 54.3944 12.1272 56.9881C9.37323 57.7586 6.9397 58.0103 5.24615 57.7891C3.97217 57.6289 3.11776 57.2017 2.8355 56.5151C1.99635 54.463 1.30215 43.5236 1.0504 31.8747C0.722371 17.0294 1.11143 1.01687 2.8355 0.719351C7.4737 -0.0663974 36.9889 4.19037 35.3868 30.1582Z" fill="url(#paint1_linear_7_790)"/>
<g style="mix-blend-mode:soft-light" opacity="0.5">
<path d="M3.33135 25.8558C4.66636 29.5785 22.7843 14.5501 23.9058 12.0174C25.0272 9.4771 10.4641 2.31382 6.46671 4.09892C2.46932 5.88401 2.599 23.8113 3.33135 25.8558Z" fill="#FFD8FF"/>
</g>
<g style="mix-blend-mode:soft-light" opacity="0.5">
<path d="M4.25443 30.8449C2.54562 28.9224 22.6623 17.5405 25.5459 17.922C28.4219 18.3034 32.0379 29.2505 29.0017 34.9262C25.9655 40.6019 5.29192 32.012 4.25443 30.8449Z" fill="#FFD8FF"/>
</g>
<g style="mix-blend-mode:soft-light" opacity="0.5">
<path d="M3.7585 33.7514C1.93526 34.4761 3.99499 54.0511 7.03118 55.5616C10.0674 57.0721 25.2941 47.2922 25.0119 43.1956C24.7296 39.099 5.12402 33.2097 3.7585 33.7514Z" fill="#FFD8FF"/>
</g>
<g style="mix-blend-mode:multiply" opacity="0.5">
<path d="M5.58179 53.3951C6.46671 55.0658 11.555 54.608 17.8715 49.9775C24.188 45.3545 24.2033 41.7157 24.2033 41.7157C24.2033 41.7157 25.3399 42.6998 25.3399 43.7601C25.3399 44.8205 20.8619 50.4581 14.0419 54.2724C9.9835 56.5457 7.65677 56.5686 6.97783 56.2101C6.30651 55.8515 5.58179 53.3875 5.58179 53.3875V53.3951Z" fill="#E06E00"/>
</g>
<g style="mix-blend-mode:multiply" opacity="0.5">
<path d="M4.25439 30.8449C4.25439 30.8449 16.5746 36.6655 24.5923 35.7653C32.6176 34.8651 29.3602 23.9562 29.3602 23.9562C29.3602 23.9562 32.4193 34.0794 27.9413 36.8486C23.4633 39.6178 7.52707 33.019 4.25439 30.8525V30.8449Z" fill="#E06E00"/>
</g>
<g style="mix-blend-mode:multiply" opacity="0.5">
<path d="M3.3313 25.8557C3.85005 26.9619 14.9192 19.8062 19.626 15.786C24.3329 11.7657 22.6775 9.84326 22.6775 9.84326C22.6775 9.84326 24.0583 10.4154 24.3253 11.7657C24.5923 13.1159 13.2867 22.6441 8.75525 25.2455C4.22385 27.8468 3.77376 26.1533 3.3313 25.8557Z" fill="#E06E00"/>
</g>
<path d="M2.83545 0.727043C2.83545 0.727043 3.995 0.376126 6.06236 0.391383C8.12971 0.40664 35.9208 1.80268 37.7135 28.3579C39.4452 54.0359 10.0445 58.2469 8.99938 58.1858C7.95426 58.1248 5.23847 57.8731 5.23847 57.8731C5.23847 57.8731 35.2876 54.4249 35.4402 28.3579C35.6004 2.28328 7.16851 1.09322 2.83545 0.727043Z" fill="url(#paint2_linear_7_790)"/>
<g style="mix-blend-mode:multiply" opacity="0.5">
<path d="M5.19275 31.4323C5.19275 31.4323 14.6294 34.6058 19.8321 35.6585C25.0272 36.7113 26.1257 37.4284 26.1257 37.4284C26.1257 37.4284 20.8848 38.5803 15.4685 36.8486C10.0522 35.1169 5.20038 31.4399 5.20038 31.4399L5.19275 31.4323Z" fill="#E06E00"/>
</g>
<g style="mix-blend-mode:multiply" opacity="0.5">
<path d="M5.58179 53.3951C5.58179 53.3951 6.63454 54.814 11.2422 53.6011C15.8499 52.3881 19.7024 48.5204 19.7024 48.5204C19.7024 48.5204 18.7259 53.6926 12.0966 56.21C6.30651 58.4071 5.6657 56.416 5.58942 53.3875L5.58179 53.3951Z" fill="#E06E00"/>
</g>
<g style="mix-blend-mode:multiply" opacity="0.5">
<path d="M5.19277 26.4431C4.43753 25.7489 14.309 20.2106 18.1996 16.6861C22.0825 13.1617 24.3406 12.1547 24.3406 12.1547C24.3406 12.1547 22.7462 15.9614 15.9034 21.2633C9.06048 26.5652 5.2004 26.4431 5.2004 26.4431H5.19277Z" fill="#E06E00"/>
</g>
<path d="M4.70447 29.548C4.70447 29.548 16.3076 21.5227 20.8085 19.8215C25.3094 18.1203 26.7283 18.6162 26.7283 18.6162C26.7283 18.6162 25.7976 17.5558 25.0119 17.5558C24.2261 17.5558 18.97 19.5697 12.5772 23.8723C6.17679 28.1748 4.70447 29.548 4.70447 29.548Z" fill="#FFE250"/>
<path d="M3.01851 23.3917C3.01851 23.3917 3.61354 7.92085 6.16913 5.41866C8.72472 2.91647 13.8359 5.07537 13.8359 5.07537C13.8359 5.07537 9.48758 2.84019 6.06996 3.81665C2.65233 4.79311 3.04902 20.6454 3.01851 23.3917Z" fill="#FFE250"/>
<path d="M3.33136 34.4761C4.23154 33.7209 19.3591 38.2828 24.2033 41.7233C24.2033 41.7233 22.3114 39.6025 14.7438 36.7113C7.17619 33.82 2.8889 32.6757 3.33136 34.4761Z" fill="#FFE250"/>
<g style="mix-blend-mode:soft-light">
<path d="M4.14755 1.29921C2.57606 1.31446 1.60722 10.1866 1.82845 11.5597C2.04968 12.9329 1.46991 3.97685 7.32106 3.54202C13.1722 3.10719 24.7372 10.1179 25.3856 11.0562C26.0341 11.9945 23.9591 15.2367 24.2032 16.0377C24.4473 16.8387 26.9724 17.4185 28.5668 20.0885C30.1535 22.7662 31.6182 29.4946 30.3824 34.621C29.1466 39.7475 23.0742 37.6496 23.1505 38.7405C23.2191 39.8238 26.057 41.7767 26.1256 43.5847C26.1866 45.3927 20.6406 51.1675 20.3202 52.1135C19.9998 53.0594 36.8438 44.1187 35.402 26.4584C33.9602 8.78289 16.8034 1.15426 4.14755 1.29921Z" fill="#B3B35E"/>
</g>
<g style="mix-blend-mode:soft-light">
<path d="M7.6797 4.99145C5.29956 6.01368 2.72872 21.3396 3.8425 24.6809C4.95628 28.0223 19.8321 15.7707 20.7018 11.5292C21.5714 7.28766 11.0821 3.53438 7.6797 4.99908V4.99145Z" fill="#B3B35E"/>
</g>
<g style="mix-blend-mode:soft-light">
<path d="M5.65039 28.8996C4.36115 31.5772 21.5866 36.4061 25.851 34.6134C30.1154 32.8283 28.1014 21.2633 26.118 19.8215C24.1345 18.3797 6.72602 26.672 5.65039 28.8996Z" fill="#B3B35E"/>
</g>
<g style="mix-blend-mode:soft-light">
<path d="M4.14758 35.2389C1.5157 36.2688 6.8176 47.2617 11.143 49.0544C15.4608 50.8471 20.8619 44.1568 21.1518 41.7233C21.4417 39.2897 6.61925 34.2777 4.1552 35.2389H4.14758Z" fill="#B3B35E"/>
</g>
<g style="mix-blend-mode:multiply" opacity="0.3">
<path d="M14.2937 56.9348C9.28172 56.2787 24.0889 54.4555 30.9394 44.7137C37.7899 34.9719 43.6716 36.0934 43.6716 36.0934C43.6716 36.0934 36.6532 54.5012 14.3014 56.9424L14.2937 56.9348Z" fill="#C62792"/>
</g>
<g style="mix-blend-mode:soft-light">
<path d="M24.3329 4.99146C23.3793 5.15166 32.2514 11.9716 33.5483 13.9703C34.8528 15.969 40.948 16.1292 40.9633 16.1598C40.9786 16.1903 34.7688 6.29595 24.3253 4.99146H24.3329Z" fill="#B3B35E"/>
</g>
<path d="M27.1631 47.9711C27.1631 47.9711 36.8057 40.4646 36.2335 26.4508C35.6538 12.4294 23.776 6.79181 23.776 6.79181C23.776 6.79181 34.2501 13.3143 35.4554 25.8329C36.6607 38.3514 27.1707 47.9711 27.1707 47.9711H27.1631Z" fill="#FFE250"/>
<g style="mix-blend-mode:soft-light">
<path d="M41.2151 41.7233C35.4403 51.4955 24.1728 55.6684 20.5644 56.9348C14.3013 59.1394 5.24616 57.8731 5.24616 57.8731V57.7892C3.97218 57.629 3.11777 57.2018 2.83551 56.5152C1.99636 54.4631 1.30216 43.5236 1.05042 31.8747C1.40133 37.2682 1.33267 54.5546 3.57549 55.9354C8.41967 58.8953 20.0838 56.1643 24.333 54.5012C33.228 51.0302 41.2151 41.7309 41.2151 41.7309V41.7233Z" fill="#B3FF5E"/>
</g>
<path d="M5.06308 11.5292C4.98679 14.0314 7.36692 11.4605 6.95497 9.43133C6.55066 7.40211 5.12411 9.36267 5.06308 11.5292Z" fill="white"/>
<path d="M14.2098 22.7585C12.4704 24.0096 15.8576 23.9791 17.3146 22.3695C18.7793 20.7674 16.6052 21.0268 14.2098 22.7585Z" fill="white"/>
<path d="M26.8809 7.72251C23.8447 6.56296 28.254 11.4529 30.6189 13.4821C32.9838 15.5113 32.3811 9.82801 26.8809 7.72251Z" fill="white"/>
<path d="M4.14757 33.6217C2.27856 33.8276 5.09352 35.1926 8.4196 35.6273C11.7457 36.062 6.17678 33.4005 4.14757 33.6217Z" fill="white"/>
<path d="M34.9292 18.5704C34.0824 18.8832 36.0735 24.0859 35.5242 29.2505C34.9749 34.4227 33.4339 39.0914 33.7238 39.8161C34.0137 40.5408 37.0347 39.4347 37.7365 32.3477C38.446 25.2607 35.7683 18.2576 34.9292 18.5704Z" fill="#FFE250"/>
<path d="M3.58306 0.56678C1.39365 0.864194 5.31476 3.28926 12.623 2.275C16.2161 1.77931 12.4933 -0.0204218 3.58306 0.56678Z" fill="white"/>
<path d="M34.6468 18.1814C32.877 18.0288 31.2445 21.1718 34.4256 22.1406C37.5533 23.0942 36.5235 18.3416 34.6468 18.1814Z" fill="url(#paint3_linear_7_790)"/>
<g style="mix-blend-mode:multiply" opacity="0.5">
<path d="M34.6469 18.1814C33.5026 17.9983 32.6787 20.0351 34.0595 20.7751C35.4326 21.5151 36.4854 20.5005 36.3099 20.0199C36.1421 19.5392 35.2953 18.2805 34.6392 18.1814H34.6469Z" fill="#FF5410"/>
</g>
<path d="M32.7244 20.2258C32.7701 19.8903 33.9144 21.7129 34.8451 21.9264C36.5387 22.3077 36.1344 20.5842 36.2793 20.6986C36.4243 20.8054 36.4166 22.4602 34.8985 22.2543C33.3652 22.0484 32.6481 20.8359 32.7244 20.2334V20.2258Z" fill="#FFE250"/>
<path d="M9.75459 28.4875C8.48824 28.3426 7.2524 30.5549 9.51048 31.3177C11.7304 32.0653 11.0972 28.6401 9.75459 28.4875Z" fill="url(#paint4_linear_7_790)"/>
<g style="mix-blend-mode:multiply" opacity="0.5">
<path d="M9.75454 28.4876C8.93828 28.3351 8.30511 29.7688 9.28157 30.3331C10.2504 30.8898 11.0209 30.1882 10.9141 29.8374C10.8073 29.4942 10.2275 28.5715 9.76217 28.4876H9.75454Z" fill="#FF5410"/>
</g>
<path d="M8.3357 29.9142C8.37385 29.6778 9.15959 31.0047 9.81566 31.1801C11.021 31.4927 10.7692 30.2497 10.8684 30.326C10.9676 30.4099 10.9294 31.5843 9.84617 31.4089C8.75528 31.2258 8.26705 30.3412 8.32807 29.9142H8.3357Z" fill="#FFE250"/>
<g style="mix-blend-mode:multiply" opacity="0.5">
<path d="M1.75984 3.81665C1.75984 3.81665 2.16415 21.4159 2.45404 29.8455C2.74393 38.2751 2.06498 51.9151 2.06498 51.9151C2.06498 51.9151 -0.345664 25.0242 1.75221 3.82428L1.75984 3.81665Z" fill="#E06E00"/>
</g>
<defs>
<linearGradient id="paint0_linear_7_790" x1="23.7684" y1="58.2393" x2="23.7684" y2="0.391394" gradientUnits="userSpaceOnUse">
<stop stop-color="#FF5900"/>
<stop offset="0.16" stop-color="#FF5D00"/>
<stop offset="0.34" stop-color="#FF6B00"/>
<stop offset="0.52" stop-color="#FF8100"/>
<stop offset="0.72" stop-color="#FFA000"/>
<stop offset="0.77" stop-color="#FFAB00"/>
<stop offset="0.88" stop-color="#FFCE00"/>
<stop offset="1" stop-color="#FFFF00"/>
</linearGradient>
<linearGradient id="paint1_linear_7_790" x1="18.1995" y1="57.8654" x2="18.1995" y2="0.635434" gradientUnits="userSpaceOnUse">
<stop stop-color="#FF9500"/>
<stop offset="1" stop-color="#FFA200"/>
</linearGradient>
<linearGradient id="paint2_linear_7_790" x1="20.3126" y1="58.1858" x2="20.3126" y2="0.391382" gradientUnits="userSpaceOnUse">
<stop stop-color="#FF5E00"/>
<stop offset="0.74" stop-color="#FFEA00"/>
<stop offset="1" stop-color="#FFDC00"/>
</linearGradient>
<linearGradient id="paint3_linear_7_790" x1="33.9306" y1="21.9588" x2="35.4148" y2="18.4368" gradientUnits="userSpaceOnUse">
<stop stop-color="#FFDC00"/>
<stop offset="1" stop-color="#FF5900"/>
</linearGradient>
<linearGradient id="paint4_linear_7_790" x1="9.15681" y1="31.1831" x2="10.292" y2="28.6992" gradientUnits="userSpaceOnUse">
<stop stop-color="#FFDC00"/>
<stop offset="1" stop-color="#FF5900"/>
</linearGradient>
</defs>
</svg>
