<svg width="67" height="67" viewBox="0 0 67 67" fill="none" xmlns="http://www.w3.org/2000/svg">
<path d="M56.5182 0.134613H11.1355C5.34664 0.134613 0.653809 4.82744 0.653809 10.6163V55.999C0.653809 61.7879 5.34664 66.4808 11.1355 66.4808H56.5182C62.3071 66.4808 67 61.7879 67 55.999V10.6163C67 4.82744 62.3071 0.134613 56.5182 0.134613Z" fill="#FFB801"/>
<path d="M56.6556 34.4253C56.3733 38.8346 55.0841 42.5727 53.2151 45.7233C47.4402 55.4956 36.1727 59.6684 32.5644 60.9348C26.3013 63.1394 17.2461 61.8731 17.2461 61.8731V61.7892L17.1851 60.416L14.8354 4.71943C14.8354 4.71943 22.9294 2.88856 36.516 7.81665C50.1026 12.7371 57.3727 23.0052 56.6556 34.4253Z" fill="url(#paint0_linear_7_786)"/>
<path d="M47.3868 34.1582C46.4028 49.9495 33.4188 58.3944 24.1272 60.9881C21.3732 61.7586 18.9397 62.0103 17.2461 61.7891C15.9722 61.6289 15.1178 61.2017 14.8355 60.5151C13.9964 58.463 13.3021 47.5236 13.0504 35.8747C12.7224 21.0294 13.1114 5.01687 14.8355 4.71935C19.4737 3.9336 48.9889 8.19037 47.3868 34.1582Z" fill="url(#paint1_linear_7_786)"/>
<g style="mix-blend-mode:soft-light" opacity="0.5">
<path d="M15.3313 29.8558C16.6664 33.5785 34.7843 18.5501 35.9058 16.0174C37.0272 13.4771 22.4641 6.31382 18.4667 8.09892C14.4693 9.88401 14.599 27.8113 15.3313 29.8558Z" fill="#FFD8FF"/>
</g>
<g style="mix-blend-mode:soft-light" opacity="0.5">
<path d="M16.2544 34.8449C14.5456 32.9224 34.6623 21.5405 37.5459 21.922C40.4219 22.3034 44.0379 33.2505 41.0017 38.9262C37.9655 44.6019 17.2919 36.012 16.2544 34.8449Z" fill="#FFD8FF"/>
</g>
<g style="mix-blend-mode:soft-light" opacity="0.5">
<path d="M15.7585 37.7514C13.9353 38.4761 15.995 58.0511 19.0312 59.5616C22.0674 61.0721 37.2941 51.2922 37.0119 47.1956C36.7296 43.099 17.124 37.2097 15.7585 37.7514Z" fill="#FFD8FF"/>
</g>
<g style="mix-blend-mode:multiply" opacity="0.5">
<path d="M17.5818 57.3951C18.4667 59.0658 23.555 58.608 29.8715 53.9775C36.188 49.3545 36.2033 45.7157 36.2033 45.7157C36.2033 45.7157 37.3399 46.6998 37.3399 47.7601C37.3399 48.8205 32.8619 54.4581 26.0419 58.2724C21.9835 60.5457 19.6568 60.5686 18.9778 60.2101C18.3065 59.8515 17.5818 57.3875 17.5818 57.3875V57.3951Z" fill="#E06E00"/>
</g>
<g style="mix-blend-mode:multiply" opacity="0.5">
<path d="M16.2544 34.8449C16.2544 34.8449 28.5746 40.6655 36.5923 39.7653C44.6176 38.8651 41.3602 27.9562 41.3602 27.9562C41.3602 27.9562 44.4193 38.0794 39.9413 40.8486C35.4633 43.6178 19.5271 37.019 16.2544 34.8525V34.8449Z" fill="#E06E00"/>
</g>
<g style="mix-blend-mode:multiply" opacity="0.5">
<path d="M15.3313 29.8557C15.85 30.9619 26.9192 23.8062 31.626 19.786C36.3329 15.7657 34.6775 13.8433 34.6775 13.8433C34.6775 13.8433 36.0583 14.4154 36.3253 15.7657C36.5923 17.1159 25.2867 26.6441 20.7553 29.2455C16.2238 31.8468 15.7738 30.1533 15.3313 29.8557Z" fill="#E06E00"/>
</g>
<path d="M14.8354 4.72704C14.8354 4.72704 15.995 4.37613 18.0624 4.39138C20.1297 4.40664 47.9208 5.80268 49.7135 32.3579C51.4452 58.0359 22.0445 62.2469 20.9994 62.1858C19.9543 62.1248 17.2385 61.8731 17.2385 61.8731C17.2385 61.8731 47.2876 58.4249 47.4402 32.3579C47.6004 6.28328 19.1685 5.09322 14.8354 4.72704Z" fill="url(#paint2_linear_7_786)"/>
<g style="mix-blend-mode:multiply" opacity="0.5">
<path d="M17.1927 35.4323C17.1927 35.4323 26.6294 38.6058 31.8321 39.6585C37.0272 40.7113 38.1257 41.4284 38.1257 41.4284C38.1257 41.4284 32.8848 42.5803 27.4685 40.8486C22.0522 39.1169 17.2004 35.4399 17.2004 35.4399L17.1927 35.4323Z" fill="#E06E00"/>
</g>
<g style="mix-blend-mode:multiply" opacity="0.5">
<path d="M17.5818 57.3951C17.5818 57.3951 18.6345 58.814 23.2422 57.6011C27.8499 56.3881 31.7024 52.5204 31.7024 52.5204C31.7024 52.5204 30.7259 57.6926 24.0966 60.21C18.3065 62.4071 17.6657 60.416 17.5894 57.3875L17.5818 57.3951Z" fill="#E06E00"/>
</g>
<g style="mix-blend-mode:multiply" opacity="0.5">
<path d="M17.1928 30.4431C16.4375 29.7489 26.309 24.2106 30.1996 20.6861C34.0825 17.1617 36.3406 16.1547 36.3406 16.1547C36.3406 16.1547 34.7462 19.9614 27.9034 25.2633C21.0605 30.5652 17.2004 30.4431 17.2004 30.4431H17.1928Z" fill="#E06E00"/>
</g>
<path d="M16.7045 33.548C16.7045 33.548 28.3076 25.5227 32.8085 23.8215C37.3094 22.1203 38.7283 22.6162 38.7283 22.6162C38.7283 22.6162 37.7976 21.5558 37.0119 21.5558C36.2261 21.5558 30.97 23.5697 24.5772 27.8723C18.1768 32.1748 16.7045 33.548 16.7045 33.548Z" fill="#FFE250"/>
<path d="M15.0185 27.3917C15.0185 27.3917 15.6135 11.9209 18.1691 9.41866C20.7247 6.91647 25.8359 9.07537 25.8359 9.07537C25.8359 9.07537 21.4876 6.84019 18.07 7.81665C14.6523 8.79311 15.049 24.6454 15.0185 27.3917Z" fill="#FFE250"/>
<path d="M15.3314 38.4761C16.2315 37.7209 31.3591 42.2828 36.2033 45.7233C36.2033 45.7233 34.3114 43.6025 26.7438 40.7113C19.1762 37.82 14.8889 36.6757 15.3314 38.4761Z" fill="#FFE250"/>
<g style="mix-blend-mode:soft-light">
<path d="M16.1476 5.29921C14.5761 5.31446 13.6072 14.1866 13.8285 15.5597C14.0497 16.9329 13.4699 7.97685 19.3211 7.54202C25.1722 7.10719 36.7372 14.1179 37.3856 15.0562C38.0341 15.9945 35.9591 19.2367 36.2032 20.0377C36.4473 20.8387 38.9724 21.4185 40.5668 24.0885C42.1535 26.7662 43.6182 33.4946 42.3824 38.621C41.1466 43.7475 35.0742 41.6496 35.1505 42.7405C35.2191 43.8238 38.057 45.7767 38.1256 47.5847C38.1866 49.3927 32.6406 55.1675 32.3202 56.1135C31.9998 57.0594 48.8438 48.1187 47.402 30.4584C45.9602 12.7829 28.8034 5.15426 16.1476 5.29921Z" fill="#B3B35E"/>
</g>
<g style="mix-blend-mode:soft-light">
<path d="M19.6797 8.99145C17.2996 10.0137 14.7287 25.3396 15.8425 28.6809C16.9563 32.0223 31.8321 19.7707 32.7018 15.5292C33.5714 11.2877 23.0821 7.53438 19.6797 8.99908V8.99145Z" fill="#B3B35E"/>
</g>
<g style="mix-blend-mode:soft-light">
<path d="M17.6504 32.8996C16.3611 35.5772 33.5866 40.4061 37.851 38.6134C42.1154 36.8283 40.1014 25.2633 38.118 23.8215C36.1345 22.3797 18.726 30.672 17.6504 32.8996Z" fill="#B3B35E"/>
</g>
<g style="mix-blend-mode:soft-light">
<path d="M16.1476 39.2389C13.5157 40.2688 18.8176 51.2617 23.143 53.0544C27.4608 54.8471 32.8619 48.1568 33.1518 45.7233C33.4417 43.2897 18.6193 38.2777 16.1552 39.2389H16.1476Z" fill="#B3B35E"/>
</g>
<g style="mix-blend-mode:multiply" opacity="0.3">
<path d="M26.2937 60.9348C21.2817 60.2787 36.0889 58.4555 42.9394 48.7137C49.7899 38.9719 55.6716 40.0934 55.6716 40.0934C55.6716 40.0934 48.6532 58.5012 26.3014 60.9424L26.2937 60.9348Z" fill="#C62792"/>
</g>
<g style="mix-blend-mode:soft-light">
<path d="M36.3329 8.99146C35.3793 9.15166 44.2514 15.9716 45.5483 17.9703C46.8528 19.969 52.948 20.1292 52.9633 20.1598C52.9786 20.1903 46.7688 10.2959 36.3253 8.99146H36.3329Z" fill="#B3B35E"/>
</g>
<path d="M39.1631 51.9711C39.1631 51.9711 48.8057 44.4646 48.2335 30.4508C47.6538 16.4294 35.776 10.7918 35.776 10.7918C35.776 10.7918 46.2501 17.3143 47.4554 29.8329C48.6607 42.3514 39.1707 51.9711 39.1707 51.9711H39.1631Z" fill="#FFE250"/>
<g style="mix-blend-mode:soft-light">
<path d="M53.2151 45.7233C47.4403 55.4955 36.1728 59.6684 32.5644 60.9348C26.3013 63.1394 17.2462 61.8731 17.2462 61.8731V61.7892C15.9722 61.629 15.1178 61.2018 14.8355 60.5152C13.9964 58.4631 13.3022 47.5236 13.0504 35.8747C13.4013 41.2682 13.3327 58.5546 15.5755 59.9354C20.4197 62.8953 32.0838 60.1643 36.333 58.5012C45.228 55.0302 53.2151 45.7309 53.2151 45.7309V45.7233Z" fill="#B3FF5E"/>
</g>
<path d="M17.0631 15.5292C16.9868 18.0314 19.3669 15.4605 18.955 13.4313C18.5507 11.4021 17.1241 13.3627 17.0631 15.5292Z" fill="white"/>
<path d="M26.2098 26.7585C24.4704 28.0096 27.8576 27.9791 29.3146 26.3695C30.7793 24.7674 28.6052 25.0268 26.2098 26.7585Z" fill="white"/>
<path d="M38.8809 11.7225C35.8447 10.563 40.254 15.4529 42.6189 17.4821C44.9838 19.5113 44.3811 13.828 38.8809 11.7225Z" fill="white"/>
<path d="M16.1476 37.6217C14.2786 37.8276 17.0935 39.1926 20.4196 39.6273C23.7457 40.062 18.1768 37.4005 16.1476 37.6217Z" fill="white"/>
<path d="M46.9292 22.5704C46.0824 22.8832 48.0735 28.0859 47.5242 33.2505C46.9749 38.4227 45.4339 43.0914 45.7238 43.8161C46.0137 44.5408 49.0347 43.4347 49.7365 36.3477C50.446 29.2607 47.7683 22.2576 46.9292 22.5704Z" fill="#FFE250"/>
<path d="M15.5831 4.56678C13.3936 4.86419 17.3148 7.28926 24.623 6.275C28.2161 5.77931 24.4933 3.97958 15.5831 4.56678Z" fill="white"/>
<path d="M46.6468 22.1814C44.877 22.0288 43.2445 25.1718 46.4256 26.1406C49.5533 27.0942 48.5235 22.3416 46.6468 22.1814Z" fill="url(#paint3_linear_7_786)"/>
<g style="mix-blend-mode:multiply" opacity="0.5">
<path d="M46.6469 22.1814C45.5026 21.9983 44.6787 24.0351 46.0595 24.7751C47.4326 25.5151 48.4854 24.5005 48.3099 24.0199C48.1421 23.5392 47.2953 22.2805 46.6392 22.1814H46.6469Z" fill="#FF5410"/>
</g>
<path d="M44.7244 24.2258C44.7701 23.8903 45.9144 25.7129 46.8451 25.9264C48.5387 26.3077 48.1344 24.5842 48.2793 24.6986C48.4243 24.8054 48.4166 26.4602 46.8985 26.2543C45.3652 26.0484 44.6481 24.8359 44.7244 24.2334V24.2258Z" fill="#FFE250"/>
<path d="M21.7546 32.4875C20.4882 32.3426 19.2524 34.5549 21.5105 35.3177C23.7304 36.0653 23.0972 32.6401 21.7546 32.4875Z" fill="url(#paint4_linear_7_786)"/>
<g style="mix-blend-mode:multiply" opacity="0.5">
<path d="M21.7545 32.4876C20.9383 32.3351 20.3051 33.7688 21.2816 34.3331C22.2504 34.8898 23.0209 34.1882 22.9141 33.8374C22.8073 33.4942 22.2275 32.5715 21.7622 32.4876H21.7545Z" fill="#FF5410"/>
</g>
<path d="M20.3357 33.9142C20.3738 33.6778 21.1596 35.0047 21.8157 35.1801C23.021 35.4927 22.7692 34.2497 22.8684 34.326C22.9676 34.4099 22.9294 35.5843 21.8462 35.4089C20.7553 35.2258 20.267 34.3412 20.3281 33.9142H20.3357Z" fill="#FFE250"/>
<g style="mix-blend-mode:multiply" opacity="0.5">
<path d="M13.7598 7.81665C13.7598 7.81665 14.1642 25.4159 14.454 33.8455C14.7439 42.2751 14.065 55.9151 14.065 55.9151C14.065 55.9151 11.6543 29.0242 13.7522 7.82428L13.7598 7.81665Z" fill="#E06E00"/>
</g>
<defs>
<linearGradient id="paint0_linear_7_786" x1="35.7684" y1="62.2393" x2="35.7684" y2="4.39139" gradientUnits="userSpaceOnUse">
<stop stop-color="#FF5900"/>
<stop offset="0.16" stop-color="#FF5D00"/>
<stop offset="0.34" stop-color="#FF6B00"/>
<stop offset="0.52" stop-color="#FF8100"/>
<stop offset="0.72" stop-color="#FFA000"/>
<stop offset="0.77" stop-color="#FFAB00"/>
<stop offset="0.88" stop-color="#FFCE00"/>
<stop offset="1" stop-color="#FFFF00"/>
</linearGradient>
<linearGradient id="paint1_linear_7_786" x1="30.1995" y1="61.8654" x2="30.1995" y2="4.63543" gradientUnits="userSpaceOnUse">
<stop stop-color="#FF9500"/>
<stop offset="1" stop-color="#FFA200"/>
</linearGradient>
<linearGradient id="paint2_linear_7_786" x1="32.3126" y1="62.1858" x2="32.3126" y2="4.39138" gradientUnits="userSpaceOnUse">
<stop stop-color="#FF5E00"/>
<stop offset="0.74" stop-color="#FFEA00"/>
<stop offset="1" stop-color="#FFDC00"/>
</linearGradient>
<linearGradient id="paint3_linear_7_786" x1="45.9306" y1="25.9588" x2="47.4148" y2="22.4368" gradientUnits="userSpaceOnUse">
<stop stop-color="#FFDC00"/>
<stop offset="1" stop-color="#FF5900"/>
</linearGradient>
<linearGradient id="paint4_linear_7_786" x1="21.1568" y1="35.1831" x2="22.292" y2="32.6992" gradientUnits="userSpaceOnUse">
<stop stop-color="#FFDC00"/>
<stop offset="1" stop-color="#FF5900"/>
</linearGradient>
</defs>
</svg>
